<svg width="1280" height="834" viewBox="0 0 1280 834" fill="none" xmlns="http://www.w3.org/2000/svg">
<g clip-path="url(#clip0_32_70938)">
<rect width="1280" height="834" fill="white"/>
<path d="M1280 0H0V833.5H1280V0Z" fill="url(#paint0_linear_32_70938)"/>
<g opacity="0.5">
<path d="M1279.05 326.605L1261.92 336.507C1244.9 346.555 1210.64 366.358 1175.31 384.837C1139.99 403.317 1103.36 420.178 1074.3 446.451C1045.24 472.724 1023.75 508.409 994.808 534.829C965.985 561.396 929.83 578.846 905.146 610.559C880.343 642.126 867.13 688.104 846.467 724.817C825.921 761.678 798.044 789.421 772.296 819.812C746.666 850.349 723.046 883.386 692.094 907.307C661.025 931.08 622.505 945.589 603.245 952.843L583.985 960.098L630.104 1017.45L644.043 1003.58C657.981 989.704 685.858 961.96 713.735 934.217C741.612 906.473 769.489 878.73 797.366 850.986C825.243 823.243 853.12 795.499 880.997 767.756C908.874 740.012 936.751 712.269 964.628 684.526C992.505 656.782 1020.38 629.039 1048.26 601.295C1076.14 573.552 1104.01 545.808 1131.89 518.065C1159.77 490.321 1187.64 462.578 1215.52 434.834C1243.4 407.091 1271.27 379.347 1285.21 365.476L1299.15 351.604L1279.05 326.605Z" fill="url(#paint1_linear_32_70938)"/>
<path d="M581.341 963.919L596.897 952.216C612.514 940.593 643.627 917.187 679.09 899.697C714.494 882.126 754.188 870.391 783.633 844.715C813.137 819.12 832.333 779.503 861.838 753.908C891.283 728.232 930.977 716.497 960.422 690.821C989.926 665.226 1009.12 625.609 1035.95 596.367C1062.71 567.044 1097.04 548.014 1123.33 518.042C1149.61 488.071 1167.86 447.157 1194.14 417.185C1220.43 387.214 1254.76 368.184 1271.93 358.669L1289.09 349.154L1275.39 330.513L1258.22 340.027C1241.06 349.542 1206.73 368.572 1176.15 392.708C1145.63 416.925 1118.81 446.167 1090.97 474.032C1063.08 501.815 1034.11 528.14 1008.83 559.489C983.5 590.758 961.921 627.132 934.502 655.564C907.142 684.077 874.003 704.727 844.558 730.403C815.053 755.998 789.303 786.7 759.739 812.213C730.174 837.727 696.797 858.054 664.075 879.272C631.352 900.49 599.166 922.438 583.133 933.493L567.04 944.467L581.341 963.919Z" fill="url(#paint2_linear_32_70938)"/>
<path d="M603.983 994.718L618.468 981.556C632.952 968.394 661.92 942.069 696.251 923.039C730.582 904.01 770.276 892.274 799.721 866.598C829.225 841.003 848.422 801.387 876.317 773.603C904.213 745.82 940.689 729.708 969.181 702.735C997.672 675.762 1018.06 637.767 1047.56 612.172C1077.01 586.496 1115.51 573.14 1141.8 543.168C1168.09 513.196 1182.16 466.609 1207.37 435.179C1232.53 403.667 1268.88 387.393 1287 379.175L1305.18 371.038L1287.9 347.533L1270.74 357.048C1253.57 366.563 1219.24 385.593 1192.95 415.564C1166.67 445.536 1148.42 486.45 1122.14 516.421C1095.85 546.393 1061.52 565.423 1034.75 594.746C1007.93 623.988 988.735 663.605 959.23 689.2C929.785 714.876 890.091 726.611 860.646 752.287C831.142 777.882 811.945 817.499 782.441 843.094C752.996 868.77 713.302 880.505 677.899 898.076C642.435 915.566 611.322 938.972 595.706 950.595L580.149 962.298L603.983 994.718Z" fill="#7BA1C3"/>
<path d="M623.051 1020.65L643.97 1016.25C664.949 1011.92 706.788 1003.1 746.005 990.717C785.222 978.333 821.699 962.221 851.799 937.436C881.84 912.571 905.445 878.952 927.978 843.874C950.452 808.715 971.912 772.178 995.518 738.559C1019.12 704.941 1044.87 674.239 1078.61 654.399C1112.34 634.559 1154.06 625.579 1188.87 607.198C1223.68 588.816 1251.69 561.195 1276.37 529.035C1301.05 496.875 1322.51 460.338 1333.18 441.989L1343.91 423.72L1303.99 369.417L1285.81 377.554C1267.69 385.772 1231.33 402.046 1206.18 433.558C1180.97 464.988 1166.89 511.575 1140.61 541.547C1114.32 571.518 1075.82 584.875 1046.37 610.551C1016.87 636.146 996.481 674.141 967.989 701.114C939.497 728.087 903.021 744.199 875.126 771.982C847.23 799.766 828.034 839.382 798.529 864.977C769.084 890.653 729.39 902.389 695.059 921.418C660.728 940.448 631.76 966.773 617.276 979.935L602.792 993.097L623.051 1020.65Z" fill="#6D95B8"/>
<path d="M632.585 1033.62L654.04 1029.94C675.436 1026.18 718.348 1018.82 757.505 1006.36C796.722 993.975 832.245 976.567 861.809 951.053C891.374 925.539 914.979 891.92 938.585 858.301C962.19 824.682 985.796 791.063 1008.81 756.634C1031.82 722.204 1054.23 686.964 1087.49 666.476C1120.69 645.906 1164.79 640.168 1202.87 626.245C1240.96 612.321 1273.15 590.373 1298.3 558.862C1323.51 527.431 1341.76 486.518 1350.88 466.061L1360 445.604L1342.72 422.099L1331.99 440.368C1321.32 458.717 1299.86 495.254 1275.18 527.414C1250.5 559.574 1222.49 587.195 1187.68 605.577C1152.87 623.958 1111.15 632.938 1077.42 652.778C1043.68 672.618 1017.93 703.319 994.326 736.938C970.72 770.557 949.26 807.094 926.787 842.253C904.254 877.331 880.648 910.95 850.607 935.815C820.507 960.6 784.031 976.712 744.814 989.095C705.596 1001.48 663.758 1010.3 642.779 1014.62L621.859 1019.03L632.585 1033.62Z" fill="#6088AD"/>
<path d="M761.29 1208.69L772.617 1191.23C783.883 1173.69 806.535 1138.78 831.213 1106.62C855.891 1074.46 882.715 1045.22 909.478 1015.89C936.242 986.57 963.065 957.328 988.816 926.627C1014.63 896.007 1039.42 864.009 1070.6 840.683C1101.71 817.277 1139.26 802.623 1168.23 776.299C1197.19 749.975 1217.58 711.979 1245.96 684.844C1274.33 657.709 1310.68 641.435 1347.7 626.052C1384.71 610.67 1422.38 596.179 1441.27 589.014L1460.1 581.769L1358.81 443.983L1349.69 464.44C1340.57 484.897 1322.32 525.81 1297.11 557.241C1271.95 588.752 1239.77 610.7 1201.68 624.624C1163.6 638.547 1119.49 644.285 1086.3 664.855C1053.04 685.343 1030.62 720.583 1007.61 755.013C984.604 789.442 960.998 823.061 937.393 856.68C913.787 890.299 890.182 923.918 860.618 949.432C831.054 974.946 795.531 992.355 756.314 1004.74C717.156 1017.2 674.245 1024.56 652.849 1028.32L631.393 1032L761.29 1208.69Z" fill="#527CA3"/>
<path d="M797.042 1257.32L811.526 1244.16C826.011 1231 854.979 1204.67 883.947 1178.35C912.915 1152.02 941.884 1125.7 970.256 1098.56C998.629 1071.43 1026.41 1043.48 1055.37 1017.16C1084.34 990.836 1114.5 966.132 1143.47 939.808C1172.44 913.484 1200.21 885.538 1228.11 857.755C1255.95 829.891 1283.96 802.269 1319.37 784.699C1354.77 767.128 1397.68 759.769 1426.05 732.634C1454.43 705.499 1468.26 658.588 1475.23 635.213L1482.15 611.758L1458.91 580.148L1440.08 587.394C1421.19 594.558 1383.52 609.049 1346.51 624.432C1309.49 639.814 1273.14 656.088 1244.76 683.223C1216.39 710.358 1196 748.354 1167.03 774.678C1138.07 801.003 1100.52 815.656 1069.4 839.062C1038.23 862.388 1013.43 894.386 987.624 925.006C961.873 955.707 935.05 984.949 908.287 1014.27C881.523 1043.6 854.7 1072.84 830.022 1105C805.344 1137.16 782.692 1172.07 771.425 1189.61L760.099 1207.07L797.042 1257.32Z" fill="#446F98"/>
<path d="M809.555 1274.34L824.04 1261.18C838.524 1248.02 867.492 1221.69 895.984 1194.72C924.416 1167.67 952.431 1140.05 984.676 1118.18C1016.92 1096.31 1053.4 1080.2 1086.18 1059.06C1118.9 1037.85 1147.87 1011.52 1178.45 987.385C1208.96 963.168 1241.15 941.22 1270.6 915.544C1300.04 889.868 1326.86 860.626 1356.31 834.95C1385.75 809.274 1417.94 787.326 1445.3 758.814C1472.66 730.301 1495.31 695.385 1506.58 677.846L1517.9 660.388L1480.96 610.137L1474.04 633.593C1467.07 656.967 1453.23 703.878 1424.86 731.013C1396.49 758.148 1353.58 765.507 1318.17 783.078C1282.77 800.649 1254.76 828.27 1226.92 856.134C1199.02 883.917 1171.25 911.863 1142.28 938.187C1113.31 964.512 1083.15 989.215 1054.18 1015.54C1025.21 1041.86 997.437 1069.81 969.065 1096.94C940.692 1124.08 911.724 1150.4 882.756 1176.73C853.787 1203.05 824.819 1229.38 810.335 1242.54L795.851 1255.7L809.555 1274.34Z" fill="#36638D"/>
<path d="M854.841 1335.94L870.934 1324.97C886.967 1313.91 919.153 1291.96 948.121 1265.64C977.089 1239.32 1002.84 1208.61 1030.74 1180.83C1058.63 1153.05 1088.55 1128.02 1120.2 1105.34C1151.85 1082.67 1185.23 1062.34 1216.88 1039.66C1248.53 1016.99 1278.45 991.958 1307.42 965.633C1336.39 939.309 1364.4 911.688 1391.29 882.527C1418.17 853.366 1443.92 822.664 1472.89 796.34C1501.86 770.016 1534.04 748.068 1550.07 737.013L1566.17 726.039L1516.71 658.767L1505.39 676.225C1494.12 693.764 1471.47 728.68 1444.11 757.193C1416.75 785.705 1384.56 807.653 1355.12 833.329C1325.67 859.005 1298.85 888.247 1269.4 913.923C1239.96 939.599 1207.77 961.547 1177.26 985.764C1146.68 1009.9 1117.71 1036.22 1084.99 1057.44C1052.21 1078.58 1015.73 1094.69 983.484 1116.56C951.239 1138.42 923.224 1166.05 894.792 1193.1C866.3 1220.07 837.332 1246.4 822.848 1259.56L808.363 1272.72L854.841 1335.94Z" fill="#275882"/>
<path d="M880.462 1370.79L894.946 1357.63C909.43 1344.47 938.399 1318.14 967.367 1291.82C996.335 1265.49 1025.3 1239.17 1054.27 1212.85C1083.24 1186.52 1112.21 1160.2 1141.18 1133.87C1170.14 1107.55 1199.11 1081.22 1228.08 1054.9C1257.05 1028.57 1286.02 1002.25 1314.99 975.926C1343.95 949.602 1372.92 923.277 1401.89 896.953C1430.86 870.629 1459.83 844.304 1488.8 817.98C1517.76 791.655 1546.73 765.331 1561.22 752.169L1575.7 739.007L1564.98 724.417L1548.88 735.391C1532.85 746.446 1500.66 768.394 1471.69 794.718C1442.73 821.043 1416.98 851.744 1390.09 880.905C1363.21 910.066 1335.2 937.687 1306.23 964.012C1277.26 990.336 1247.34 1015.36 1215.69 1038.04C1184.04 1060.72 1150.66 1081.04 1119.01 1103.72C1087.36 1126.4 1057.44 1151.43 1029.54 1179.21C1001.65 1206.99 975.897 1237.69 946.929 1264.02C917.961 1290.34 885.775 1312.29 869.741 1323.35L853.648 1334.32L880.462 1370.79Z" fill="#164C78"/>
</g>
<g opacity="0.5">
<path d="M-341.287 569.999L-324.64 559.303C-308.118 548.466 -274.825 527.074 -240.405 506.954C-205.986 486.835 -170.192 468.269 -142.399 440.659C-114.607 413.049 -94.8173 376.394 -67.1501 348.643C-39.608 320.75 -4.31353 301.619 18.8523 268.78C42.1432 236.082 53.1804 189.534 72.095 151.89C90.8845 114.104 117.426 85.0808 141.717 53.5135C165.884 21.8049 187.924 -12.3063 217.717 -37.6552C247.635 -62.8627 285.43 -79.1666 304.328 -87.3186L323.225 -95.4705L274.461 -150.588L261.19 -136.077C247.919 -121.565 221.377 -92.5415 194.835 -63.5181C168.293 -34.4948 141.751 -5.47137 115.21 23.552C88.6677 52.5754 62.1259 81.5988 35.5841 110.622C9.04224 139.646 -17.4996 168.669 -44.0414 197.692C-70.5833 226.716 -97.1251 255.739 -123.667 284.762C-150.209 313.786 -176.751 342.809 -203.292 371.833C-229.834 400.856 -256.376 429.879 -282.918 458.903C-309.46 487.926 -336.002 516.95 -349.273 531.461L-362.544 545.973L-341.287 569.999Z" fill="url(#paint3_linear_32_70938)"/>
<path d="M325.687 -99.4117L310.697 -86.99C295.645 -74.6465 265.666 -49.803 231.064 -30.6652C196.526 -11.4493 157.428 2.13917 129.223 29.1711C100.954 56.1248 83.6416 96.6002 55.3729 123.554C27.1676 150.586 -11.9305 164.174 -40.1358 191.206C-68.4045 218.16 -85.7169 258.635 -111.136 289.106C-136.491 319.655 -169.89 340.278 -194.738 371.452C-219.587 402.627 -235.886 444.353 -260.735 475.527C-285.584 506.702 -318.982 527.324 -335.681 537.636L-352.381 547.947L-337.815 565.924L-321.115 555.612C-304.416 545.301 -271.018 524.678 -241.609 499.131C-212.264 473.506 -186.845 443.035 -160.35 413.893C-133.791 384.829 -106.092 357.172 -82.3202 324.669C-58.4847 292.244 -38.6391 254.895 -12.587 225.206C13.4017 195.438 45.5335 173.252 73.7388 146.22C102.007 119.266 126.286 87.3887 154.618 60.5131C182.95 33.6375 215.335 11.7641 247.024 -10.969C278.712 -33.7022 309.831 -57.1387 325.327 -68.9352L340.886 -80.6535L325.687 -99.4117Z" fill="url(#paint4_linear_32_70938)"/>
<path d="M301.621 -129.112L287.772 -115.284C273.922 -101.455 246.224 -73.798 212.825 -53.1752C179.427 -32.5524 140.329 -18.9639 112.123 8.06798C83.8547 35.0217 66.5423 75.4971 39.9836 104.561C13.4249 133.625 -22.2534 151.434 -49.4455 179.717C-76.6375 207.999 -95.2165 246.911 -123.485 273.865C-151.69 300.897 -189.522 316.049 -214.371 347.223C-239.22 378.397 -251.086 425.594 -274.794 458.176C-298.44 490.835 -333.992 508.801 -351.704 517.861L-369.48 526.844L-351.114 549.51L-334.415 539.199C-317.716 528.888 -284.317 508.265 -259.468 477.09C-234.62 445.916 -218.32 404.19 -193.472 373.016C-168.623 341.841 -135.224 321.218 -109.869 290.669C-84.4503 260.198 -67.1378 219.723 -38.8692 192.769C-10.6639 165.737 28.4342 152.149 56.6395 125.117C84.9082 98.1634 102.221 57.688 130.489 30.7343C158.695 3.70235 197.793 -9.88611 232.331 -29.1021C266.933 -48.2399 296.911 -73.0833 311.964 -85.4269L326.953 -97.8486L301.621 -129.112Z" fill="#7BA1C3"/>
<path d="M281.355 -154.123L260.666 -148.736C239.914 -143.427 198.536 -132.652 159.944 -118.438C121.353 -104.225 85.6744 -86.4155 56.7725 -60.2433C27.9339 -33.993 5.93499 0.698509 -14.924 36.7969C-35.7196 72.9735 -55.4386 110.479 -77.4375 145.17C-99.4364 179.862 -123.715 211.74 -156.48 233.144C-189.245 254.549 -230.497 265.48 -264.402 285.477C-298.307 305.475 -324.992 334.382 -348.131 367.667C-371.27 400.952 -390.989 438.457 -400.785 457.288L-410.645 476.04L-368.213 528.407L-350.437 519.425C-332.725 510.364 -297.173 492.398 -273.528 459.739C-249.819 427.158 -237.953 379.961 -213.104 348.786C-188.255 317.612 -150.424 302.46 -122.218 275.428C-93.9498 248.475 -75.3708 209.562 -48.1787 181.28C-20.9867 152.998 14.6916 135.188 41.2503 106.124C67.809 77.0604 85.1214 36.585 113.39 9.63127C141.595 -17.4006 180.694 -30.9891 214.092 -51.6119C247.49 -72.2347 275.189 -99.8919 289.038 -113.721L302.888 -127.549L281.355 -154.123Z" fill="#6D95B8"/>
<path d="M271.222 -166.629L249.963 -161.945C228.768 -157.183 186.25 -147.815 147.722 -133.523C109.13 -119.309 74.4649 -100.25 46.133 -73.3741C17.801 -46.4985 -4.19788 -11.8069 -26.1968 22.8846C-48.1957 57.5761 -70.1946 92.2677 -91.5602 127.741C-112.926 163.214 -133.658 199.469 -165.917 221.498C-198.112 243.606 -241.896 251.411 -279.284 267.11C-316.673 282.808 -347.791 306.245 -371.437 338.904C-395.146 371.486 -411.445 413.212 -419.594 434.075L-427.744 454.937L-409.378 477.604L-399.519 458.851C-389.722 440.02 -370.003 402.515 -346.864 369.23C-323.726 335.946 -297.04 307.038 -263.135 287.04C-229.23 267.043 -187.979 256.112 -155.214 234.707C-122.449 213.303 -98.1697 181.425 -76.1708 146.734C-54.1719 112.042 -34.4529 74.5368 -13.6573 38.3602C7.20164 2.26179 29.2006 -32.4298 58.0392 -58.6801C86.9411 -84.8522 122.619 -102.661 161.211 -116.875C199.802 -131.089 241.181 -141.864 261.933 -147.173L282.622 -152.56L271.222 -166.629Z" fill="#6088AD"/>
<path d="M134.428 -335.453L123.935 -317.482C113.506 -299.433 92.5203 -263.491 69.3815 -230.206C46.2426 -196.922 20.8239 -166.451 -4.53149 -135.902C-29.8869 -105.353 -55.3057 -74.8817 -79.5845 -43.0039C-103.927 -11.2042 -127.192 21.9241 -157.234 46.6894C-187.213 71.5328 -224.031 87.9351 -251.729 115.592C-279.428 143.249 -298.007 182.162 -325.073 210.6C-352.138 239.039 -387.69 257.005 -423.938 274.11C-460.186 291.216 -497.131 307.462 -515.667 315.506L-534.139 323.629L-426.477 456.501L-418.328 435.638C-410.178 414.775 -393.879 373.049 -370.17 340.468C-346.525 307.808 -315.406 284.372 -278.018 268.673C-240.63 252.974 -196.845 245.169 -164.65 223.062C-132.391 201.032 -111.659 164.777 -90.2936 129.304C-68.928 93.8309 -46.9291 59.1394 -24.9302 24.4478C-2.93126 -10.2437 19.0676 -44.9353 47.3996 -71.8109C75.7315 -98.6865 110.397 -117.746 148.988 -131.96C187.516 -146.252 230.034 -155.62 251.23 -160.382L272.489 -165.066L134.428 -335.453Z" fill="#527CA3"/>
<path d="M96.4297 -382.349L82.5804 -368.521C68.731 -354.692 41.0324 -327.035 13.3337 -299.378C-14.3649 -271.721 -42.0635 -244.063 -69.1289 -215.625C-96.1942 -187.186 -122.626 -157.966 -150.325 -130.308C-178.024 -102.651 -206.989 -76.5571 -234.688 -48.8999C-262.386 -21.2427 -288.818 7.97763 -315.377 37.0417C-341.872 66.1839 -368.558 95.0916 -403.096 114.308C-437.634 133.524 -480.152 142.891 -507.218 171.33C-534.283 199.769 -545.896 247.279 -551.765 270.955L-557.572 294.71L-532.873 325.192L-514.4 317.069C-495.865 309.025 -458.92 292.779 -422.671 275.673C-386.423 258.567 -350.871 240.602 -323.806 212.163C-296.741 183.725 -278.162 144.812 -250.463 117.155C-222.764 89.498 -185.946 73.0958 -155.968 48.2524C-125.926 23.4871 -102.66 -9.64127 -78.3181 -41.4409C-54.0393 -73.3187 -28.6205 -103.79 -3.26506 -134.339C22.0904 -164.888 47.5091 -195.359 70.6479 -228.643C93.7868 -261.928 114.772 -297.87 125.202 -315.919L135.695 -333.89L96.4297 -382.349Z" fill="#446F98"/>
<path d="M83.1302 -398.763L69.2808 -384.934C55.4315 -371.106 27.7329 -343.449 0.540845 -315.166C-26.5878 -286.806 -53.2732 -257.898 -84.455 -234.539C-115.637 -211.181 -151.315 -193.372 -183.067 -170.717C-214.755 -147.984 -242.454 -120.327 -271.863 -94.7797C-301.208 -69.1547 -332.326 -45.7182 -360.532 -18.6863C-388.737 8.34565 -414.156 38.8166 -442.361 65.8485C-470.566 92.8804 -501.685 116.317 -527.674 146.085C-553.662 175.852 -574.648 211.794 -585.077 229.843L-595.57 247.814L-556.305 296.273L-550.499 272.518C-544.629 248.842 -533.017 201.332 -505.951 172.893C-478.886 144.454 -436.368 135.087 -401.83 115.871C-367.291 96.6547 -340.606 67.7469 -314.11 38.6047C-287.552 9.54064 -261.12 -19.6797 -233.421 -47.3369C-205.722 -74.9941 -176.757 -101.088 -149.058 -128.745C-121.36 -156.402 -94.9278 -185.623 -67.8624 -214.062C-40.7971 -242.5 -13.0984 -270.158 14.6002 -297.815C42.2989 -325.472 69.9976 -353.129 83.8469 -366.958L97.6962 -380.786L83.1302 -398.763Z" fill="#36638D"/>
<path d="M34.9992 -458.164L19.4399 -446.446C3.94395 -434.65 -27.1746 -411.213 -54.8732 -383.556C-82.5719 -355.899 -106.851 -324.021 -133.409 -294.957C-159.968 -265.893 -188.68 -239.486 -219.229 -215.346C-249.777 -191.206 -282.162 -169.333 -312.711 -145.193C-343.259 -121.053 -371.971 -94.646 -399.67 -66.9889C-427.369 -39.3317 -454.054 -10.424 -479.536 19.9688C-505.018 50.3616 -529.297 82.2394 -556.996 109.897C-584.694 137.554 -615.813 160.99 -631.309 172.787L-646.868 184.505L-594.303 249.377L-583.811 231.406C-573.381 213.357 -552.396 177.415 -526.407 147.648C-500.418 117.88 -469.3 94.4436 -441.094 67.4117C-412.889 40.3797 -387.47 9.9088 -359.265 -17.1231C-331.06 -44.155 -299.941 -67.5916 -270.596 -93.2166C-241.187 -118.764 -213.489 -146.421 -181.8 -169.154C-150.048 -191.809 -114.37 -209.618 -83.1882 -232.976C-52.0063 -256.335 -25.321 -285.242 1.80771 -313.603C28.9997 -341.886 56.6984 -369.543 70.5477 -383.371L84.397 -397.2L34.9992 -458.164Z" fill="#275882"/>
<path d="M7.76758 -491.772L-6.08174 -477.944C-19.9311 -464.115 -47.6297 -436.458 -75.3284 -408.801C-103.027 -381.143 -130.726 -353.486 -158.424 -325.829C-186.123 -298.172 -213.822 -270.515 -241.52 -242.858C-269.219 -215.2 -296.918 -187.543 -324.616 -159.886C-352.315 -132.229 -380.014 -104.572 -407.712 -76.9144C-435.411 -49.2572 -463.11 -21.6001 -490.808 6.05712C-518.507 33.7143 -546.206 61.3715 -573.904 89.0287C-601.603 116.686 -629.301 144.343 -643.151 158.172L-657 172L-645.601 186.069L-630.041 174.351C-614.546 162.554 -583.427 139.118 -555.728 111.46C-528.03 83.8033 -503.751 51.9255 -478.269 21.5327C-452.787 -8.86006 -426.101 -37.7678 -398.403 -65.425C-370.704 -93.0821 -341.992 -119.489 -311.444 -143.629C-280.895 -167.769 -248.51 -189.642 -217.961 -213.782C-187.413 -237.922 -158.701 -264.329 -132.142 -293.393C-105.583 -322.457 -81.3047 -354.335 -53.606 -381.992C-25.9074 -409.649 5.21115 -433.086 20.7071 -444.882L36.2664 -456.6L7.76758 -491.772Z" fill="#164C78"/>
</g>
</g>
<defs>
<linearGradient id="paint0_linear_32_70938" x1="719.252" y1="229.173" x2="1600.51" y2="1111.45" gradientUnits="userSpaceOnUse">
<stop offset="0.380979" stop-color="#164C78"/>
<stop offset="0.894" stop-color="#49779E"/>
</linearGradient>
<linearGradient id="paint1_linear_32_70938" x1="-25.4501" y1="931.18" x2="1271.77" y2="1562.42" gradientUnits="userSpaceOnUse">
<stop stop-color="#97BBD9"/>
<stop offset="1" stop-color="#97BBD9" stop-opacity="0"/>
</linearGradient>
<linearGradient id="paint2_linear_32_70938" x1="2761.91" y1="770.554" x2="1734.46" y2="-601.863" gradientUnits="userSpaceOnUse">
<stop stop-color="#89AECE"/>
<stop offset="1" stop-color="#2A5E87" stop-opacity="0.7"/>
</linearGradient>
<linearGradient id="paint3_linear_32_70938" x1="933.346" y1="-95.2366" x2="-392.119" y2="-664.789" gradientUnits="userSpaceOnUse">
<stop stop-color="#97BBD9"/>
<stop offset="1" stop-color="#97BBD9" stop-opacity="0"/>
</linearGradient>
<linearGradient id="paint4_linear_32_70938" x1="-1843.38" y1="196.255" x2="-752.548" y2="1518.85" gradientUnits="userSpaceOnUse">
<stop stop-color="#89AECE"/>
<stop offset="1" stop-color="#2A5E87" stop-opacity="0.7"/>
</linearGradient>
<clipPath id="clip0_32_70938">
<rect width="1280" height="834" fill="white"/>
</clipPath>
</defs>
</svg>
