<svg width="448" height="448" viewBox="0 0 448 448" fill="none" xmlns="http://www.w3.org/2000/svg">
<path d="M448 0H0V448H448V0Z" fill="url(#paint0_radial_128_2184)"/>
<path d="M323.234 241.564C345.823 241.564 364.135 223.252 364.135 200.662C364.135 178.073 345.823 159.761 323.234 159.761C300.644 159.761 282.332 178.073 282.332 200.662C282.332 223.252 300.644 241.564 323.234 241.564Z" fill="white"/>
<path d="M308.555 174.815C308.555 174.815 311.395 183.337 321.338 183.337C331.281 183.337 334.832 174.815 334.832 174.815C334.832 174.815 331.281 175.525 329.151 175.525C327.02 175.525 326.31 172.684 324.179 172.684C322.048 172.684 321.338 175.525 319.918 175.525C318.497 175.525 317.077 171.264 315.656 171.264C314.236 171.264 312.815 175.525 312.105 175.525C311.395 175.525 308.555 174.815 308.555 174.815Z" fill="#A09C53"/>
<path d="M344.171 216.426C344.279 215.787 344.349 215.312 344.349 214.685C344.349 211.844 339.378 183.641 322.333 183.641C322.169 183.641 322.01 183.832 321.849 183.832C321.849 183.832 321.594 183.832 321.431 183.832C304.385 183.832 299.48 211.989 299.48 214.829C299.48 215.456 299.552 215.786 299.659 216.425H299.624C299.624 216.425 299.418 217.972 300.701 219.823C300.821 220.099 300.901 220.26 300.901 220.26H301.028C303.183 222.816 308.427 226.011 321.848 226.011C335.257 226.011 340.646 223.455 342.8 220.26H342.929C342.929 220.26 343.009 220.099 343.128 219.823C344.412 217.972 344.205 216.425 344.205 216.425H344.171V216.426Z" fill="#A09C53"/>
<path d="M324.803 235.177V232.317C322.397 232.035 320.676 231.19 319.639 229.783C318.603 228.375 318.084 226.327 318.084 223.639V222.584H324.765V223.39C324.765 225.361 325.386 226.346 326.627 226.346C327.165 226.346 327.555 226.18 327.798 225.847C328.054 225.514 328.182 225.124 328.182 224.676C328.182 223.883 327.779 223.076 326.973 222.257L321.463 216.709C319.441 214.687 318.43 212.492 318.43 210.125C318.43 208.845 318.718 207.718 319.294 206.746C319.883 205.76 320.657 204.96 321.617 204.346C322.589 203.719 323.652 203.303 324.803 203.098V200.775H328.125V203.041C330.313 203.322 331.977 204.225 333.116 205.748C334.255 207.271 334.824 209.286 334.824 211.795H327.971V210.547C327.971 209.997 327.824 209.574 327.529 209.28C327.235 208.986 326.845 208.838 326.358 208.838C325.821 208.838 325.418 208.973 325.149 209.241C324.88 209.51 324.746 209.869 324.746 210.317C324.746 210.956 325.379 211.904 326.646 213.158L332.022 218.456C332.815 219.237 333.493 220.184 334.057 221.297C334.632 222.411 334.92 223.671 334.92 225.079C334.92 227.191 334.274 228.88 332.982 230.147C331.689 231.402 330.07 232.138 328.125 232.355V235.177H324.803Z" fill="url(#paint1_angular_128_2184)"/>
<path d="M131.888 315.251C154.477 315.251 172.789 296.939 172.789 274.35C172.789 251.76 154.477 233.448 131.888 233.448C109.299 233.448 90.9863 251.76 90.9863 274.35C90.9863 296.939 109.299 315.251 131.888 315.251Z" fill="white"/>
<path d="M131.517 301.583C108.21 291.444 107.749 265.794 107.88 260.909C107.892 260.455 108.238 260.084 108.691 260.044C111.957 259.75 124.711 257.945 131.117 247.475C131.471 246.898 132.299 246.898 132.652 247.475C139.063 257.946 151.818 259.75 155.085 260.044C155.538 260.085 155.883 260.455 155.896 260.91C156.026 265.795 155.564 291.446 132.252 301.584C132.021 301.684 131.75 301.684 131.517 301.583Z" fill="#E66446"/>
<path d="M141.712 270.898H122.064V276.962H141.712V270.898Z" fill="white"/>
<path d="M134.92 283.754V264.106H128.856V283.754H134.92Z" fill="white"/>
<mask id="mask0_128_2184" style="mask-type:luminance" maskUnits="userSpaceOnUse" x="64" y="128" width="321" height="320">
<path d="M384.09 128H64.5469V447.544H384.09V128Z" fill="white"/>
</mask>
<g mask="url(#mask0_128_2184)">
<path d="M155.629 374.107C155.899 376.093 156.011 377.981 155.854 379.679C155.782 380.526 155.665 381.318 155.533 382.029C155.421 382.733 155.327 383.345 155.216 383.85C155.086 384.474 154.225 384.738 153.757 384.277C153.385 383.906 152.919 383.44 152.459 382.867C152.019 382.289 151.551 381.613 151.095 380.849C150.197 379.32 149.254 377.449 148.954 375.298C148.121 371.012 149.547 367.081 150.34 365.208C150.595 364.617 151.494 364.571 151.858 365.11C153.063 366.872 154.861 370.195 155.629 374.107Z" fill="#A09C53"/>
<path d="M153.133 377.504L154.35 382.585L155.904 387.575C157.078 390.853 158.306 394.119 159.838 397.251C162.812 403.551 166.472 409.525 170.728 415.045C179.303 426.032 190.338 435.105 202.891 441.17L202.624 441.731C189.978 435.621 178.869 426.485 170.238 415.426C165.953 409.87 162.27 403.857 159.276 397.516C157.735 394.363 156.497 391.075 155.316 387.775L153.752 382.751L152.525 377.634L153.133 377.504Z" fill="#A09C53"/>
<path d="M147.964 385.283C149.739 386.733 151.102 388.315 152.151 389.772C153.292 391.194 154.09 392.503 154.59 393.427C154.899 393.997 154.359 394.706 153.678 394.617C152.577 394.471 150.982 394.169 149.18 393.53C148.28 393.21 147.328 392.806 146.363 392.297C145.378 391.796 144.495 391.147 143.583 390.397C142.684 389.641 141.876 388.813 141.155 387.961C140.795 387.535 140.457 387.103 140.14 386.672C139.827 386.24 139.577 385.794 139.323 385.363C138.332 383.629 137.667 382.007 137.263 380.876C137.013 380.171 137.642 379.526 138.32 379.778C139.415 380.182 140.984 380.83 142.692 381.739C143.547 382.194 144.436 382.714 145.318 383.305C146.205 383.896 147.056 384.565 147.964 385.283Z" fill="#A09C53"/>
<path d="M159.801 397.613L159.417 398.086C158.46 397.438 157.495 396.773 156.522 396.091C156.042 395.747 155.536 395.409 155.071 395.048L153.686 393.946C152.758 393.203 151.824 392.441 150.885 391.66C150.419 391.269 149.937 390.878 149.479 390.474L148.15 389.227L148.586 388.787C150.303 390.481 152.264 392.002 154.095 393.489C155.892 394.993 157.905 396.319 159.801 397.613Z" fill="#A09C53"/>
<path d="M159.142 376.126C158.287 377.97 157.879 379.873 157.708 381.556C157.638 383.214 157.804 384.65 157.966 385.625C158.068 386.232 158.911 386.389 159.39 385.898C160.166 385.109 161.244 383.933 162.325 382.523C162.865 381.818 163.405 381.054 163.906 380.249C164.404 379.444 164.954 378.576 165.381 377.688C165.819 376.798 166.153 375.935 166.403 375.115C166.528 374.705 166.633 374.306 166.719 373.92C166.828 373.53 166.931 373.151 167.011 372.788C167.337 371.335 167.407 370.116 167.398 369.282C167.382 368.77 166.597 368.512 166.027 368.859C165.134 369.419 163.889 370.297 162.62 371.508C161.986 372.114 161.347 372.804 160.745 373.576C160.156 374.346 159.544 375.209 159.142 376.126Z" fill="#A09C53"/>
<path d="M160.872 379.081L160.321 380.643C160.139 381.169 160.013 381.685 159.859 382.215C159.563 383.269 159.272 384.342 158.986 385.435C158.358 387.639 158.021 389.827 157.602 392.124L157 392.082C157.401 389.783 157.769 387.575 158.391 385.364C158.973 383.168 159.494 381.067 160.286 378.981L160.872 379.081Z" fill="#A09C53"/>
<path d="M155.068 403.244C157.085 404.318 158.736 405.6 160.037 406.829C161.426 408.006 162.462 409.136 163.129 409.947C163.541 410.446 163.147 411.244 162.461 411.288C161.351 411.355 159.727 411.364 157.837 411.083C156.893 410.943 155.882 410.73 154.838 410.418C153.789 410.11 152.789 409.653 151.753 409.096C150.727 408.532 149.775 407.881 148.906 407.19C148.472 406.845 148.057 406.489 147.664 406.13C147.284 405.764 146.944 405.384 146.615 405.012C145.307 403.52 144.341 402.073 143.726 401.053C143.338 400.421 143.846 399.659 144.548 399.774C145.699 399.95 147.362 400.268 149.214 400.817C150.14 401.092 151.112 401.424 152.093 401.827C153.084 402.227 154.037 402.719 155.068 403.244Z" fill="#A09C53"/>
<path d="M169.038 413.066L168.751 413.603C166.644 412.682 164.395 411.765 162.339 410.629C161.287 410.077 160.225 409.51 159.154 408.926C158.624 408.63 158.069 408.345 157.554 408.03L156.01 407.067L156.352 406.553C158.366 407.874 160.566 408.999 162.654 410.103C164.709 411.23 166.923 412.159 169.038 413.066Z" fill="#A09C53"/>
<path d="M164.236 392.074C163.763 394.057 163.74 396.006 163.906 397.692C164.149 399.34 164.601 400.714 164.947 401.642C165.165 402.217 166.024 402.21 166.399 401.636C167.007 400.712 167.836 399.349 168.621 397.753C169.013 396.956 169.394 396.1 169.727 395.209C170.069 394.314 170.425 393.355 170.669 392.395C170.921 391.432 171.075 390.514 171.156 389.654C171.198 389.223 171.217 388.809 171.228 388.408C171.262 387.998 171.28 387.605 171.285 387.229C171.306 385.726 171.123 384.503 170.943 383.677C170.821 383.172 170.01 383.07 169.519 383.529C168.747 384.267 167.715 385.383 166.717 386.833C166.219 387.558 165.733 388.365 165.3 389.245C165.083 389.686 164.879 390.144 164.694 390.619C164.499 391.096 164.346 391.582 164.236 392.074Z" fill="#A09C53"/>
<path d="M166.521 394.644C166.156 396.844 166.067 398.993 165.912 401.258C165.728 403.542 165.802 405.763 165.837 408.092L165.238 408.166L165.187 404.721L165.184 403.875L165.223 403.011L165.315 401.302C165.452 399.036 165.568 396.864 165.926 394.658L166.521 394.644Z" fill="#A09C53"/>
<path d="M165.452 419.491C167.637 420.164 169.503 421.109 171.014 422.069C172.592 422.971 173.833 423.876 174.64 424.547C175.14 424.959 174.904 425.817 174.239 425.99C173.162 426.266 171.568 426.583 169.657 426.666C168.702 426.707 167.668 426.689 166.583 426.581C165.505 426.466 164.427 426.215 163.306 425.861C162.192 425.503 161.133 425.044 160.148 424.53C159.656 424.273 159.18 424.004 158.728 423.724C158.296 423.43 157.883 423.128 157.492 422.824C155.926 421.611 154.703 420.378 153.907 419.495C153.403 418.951 153.772 418.098 154.477 418.082C155.63 418.041 157.329 418.032 159.249 418.219C160.21 418.312 161.229 418.452 162.268 418.661C163.322 418.86 164.339 419.171 165.452 419.491Z" fill="#A09C53"/>
<path d="M181.036 426.486L180.857 427.068C178.607 426.572 176.232 426.091 173.995 425.367C171.734 424.668 169.336 423.987 167.104 423.065L167.343 422.495C169.572 423.41 171.938 424.108 174.204 424.791L175.899 425.289L176.74 425.528L177.61 425.73C178.765 425.995 179.907 426.247 181.036 426.486Z" fill="#A09C53"/>
<path d="M172.339 406.787C172.254 408.824 172.603 410.742 173.087 412.365C173.627 413.946 174.339 415.201 174.853 416.048C175.177 416.572 176.019 416.401 176.279 415.767C176.7 414.745 177.257 413.25 177.725 411.536C177.958 410.679 178.169 409.767 178.327 408.83C178.506 407.877 178.663 406.875 178.722 405.883C178.784 404.888 178.76 403.957 178.674 403.096C178.635 402.664 178.566 402.258 178.512 401.853C178.465 401.444 178.406 401.052 178.337 400.681C178.065 399.197 177.647 398.025 177.31 397.245C177.091 396.771 176.285 396.817 175.888 397.366C175.262 398.248 174.473 399.538 173.77 401.157C173.086 402.764 172.458 404.725 172.339 406.787Z" fill="#A09C53"/>
<path d="M175.076 408.877C175.14 411.106 175.446 413.241 175.729 415.489C175.983 417.765 176.466 419.938 176.948 422.213L176.374 422.399L175.669 419.03C175.549 418.483 175.462 417.913 175.385 417.34L175.15 415.646L174.733 412.323L174.639 411.507L174.587 410.667L174.494 409.005L175.076 408.877Z" fill="#A09C53"/>
<path d="M178.746 433.486C181.027 433.726 183.044 434.294 184.715 434.944C186.435 435.531 187.838 436.168 188.762 436.67C189.334 436.976 189.273 437.864 188.654 438.164C187.652 438.647 186.149 439.27 184.287 439.723C183.356 439.95 182.334 440.134 181.244 440.237C180.168 440.322 179.054 440.29 177.884 440.155C176.716 440.017 175.584 439.768 174.514 439.451C173.981 439.29 173.452 439.124 172.962 438.925C172.48 438.718 172.016 438.499 171.571 438.275C169.796 437.379 168.354 436.398 167.399 435.681C166.796 435.243 167.008 434.324 167.693 434.179C168.808 433.93 170.487 433.592 172.409 433.414C174.346 433.219 176.495 433.216 178.746 433.486Z" fill="#A09C53"/>
<path d="M195.419 437.302L195.361 437.908C193.054 437.878 190.629 437.874 188.291 437.6C185.93 437.362 183.442 437.154 181.068 436.676L181.192 436.071L182.984 436.381L183.873 436.526L184.786 436.629C186 436.763 187.198 436.884 188.381 436.994L190.143 437.149L191.015 437.22L191.907 437.248C193.095 437.277 194.266 437.295 195.419 437.302Z" fill="#A09C53"/>
<path d="M183.079 419.699C183.383 421.71 184.091 423.523 184.876 425.021C185.699 426.476 186.648 427.559 187.312 428.292C187.731 428.743 188.524 428.412 188.656 427.739C188.872 426.656 189.13 425.083 189.26 423.315C189.325 422.432 189.359 421.499 189.335 420.553C189.338 419.574 189.295 418.57 189.168 417.586C188.599 413.72 187.135 410.787 186.158 409.397C185.856 408.972 185.08 409.164 184.79 409.782C184.331 410.776 183.808 412.181 183.422 413.904C183.052 415.61 182.815 417.646 183.079 419.699Z" fill="#A09C53"/>
<path d="M186.161 421.221C186.648 423.393 187.348 425.431 188.064 427.575C188.751 429.756 189.641 431.798 190.566 433.928L190.038 434.223C189.571 433.157 189.121 432.102 188.686 431.06C188.247 430.024 187.901 428.897 187.527 427.84C187.162 426.77 186.814 425.712 186.479 424.667C186.303 424.155 186.159 423.612 186.023 423.068L185.615 421.457L186.161 421.221Z" fill="#A09C53"/>
</g>
<mask id="mask1_128_2184" style="mask-type:luminance" maskUnits="userSpaceOnUse" x="64" y="128" width="321" height="320">
<path d="M384.09 128H64.5469V447.544H384.09V128Z" fill="white"/>
</mask>
<g mask="url(#mask1_128_2184)">
<path d="M113.653 410.992C114.717 412.69 115.598 414.364 116.155 415.976C116.438 416.777 116.659 417.547 116.831 418.249C117.019 418.936 117.185 419.533 117.293 420.038C117.432 420.66 116.756 421.255 116.14 421.03C115.648 420.845 115.032 420.612 114.376 420.28C113.737 419.935 113.033 419.512 112.302 419.004C110.853 417.981 109.222 416.665 108.062 414.828C105.536 411.267 105.216 407.098 105.166 405.064C105.155 404.421 105.956 404.008 106.509 404.35C108.333 405.457 111.34 407.745 113.653 410.992Z" fill="#A09C53"/>
<path d="M112.78 415.115L115.985 419.243L119.458 423.149C121.878 425.651 124.343 428.121 127.03 430.343C132.336 434.857 138.134 438.791 144.287 442.065C156.628 448.541 170.422 452.258 184.359 452.61L184.348 453.23C170.307 452.876 156.42 449.133 143.998 442.615C137.804 439.319 131.97 435.359 126.627 430.815C123.923 428.578 121.441 426.092 119.004 423.572L115.508 419.64L112.281 415.483L112.78 415.115Z" fill="#A09C53"/>
<path d="M111.278 424.333C113.492 424.922 115.387 425.802 116.943 426.697C118.569 427.523 119.836 428.387 120.672 429.023C121.188 429.415 120.989 430.283 120.332 430.483C119.268 430.804 117.691 431.186 115.785 431.346C114.833 431.426 113.8 431.45 112.711 431.385C111.608 431.334 110.535 431.106 109.395 430.799C108.265 430.482 107.187 430.06 106.179 429.581C105.676 429.341 105.189 429.087 104.723 428.825C104.259 428.56 103.847 428.257 103.438 427.968C101.82 426.797 100.546 425.593 99.7118 424.729C99.1935 424.191 99.5002 423.344 100.222 423.294C101.387 423.211 103.082 423.154 105.014 423.278C105.98 423.34 107.004 423.448 108.053 423.622C109.104 423.794 110.154 424.053 111.278 424.333Z" fill="#A09C53"/>
<path d="M127.145 430.688L126.991 431.277C125.852 431.081 124.699 430.874 123.531 430.653C122.951 430.538 122.351 430.438 121.779 430.302L120.062 429.869C118.911 429.574 117.746 429.264 116.569 428.94C115.983 428.776 115.383 428.618 114.798 428.439L113.074 427.851L113.29 427.271C115.552 428.106 117.966 428.683 120.247 429.284C122.503 429.911 124.883 430.29 127.145 430.688Z" fill="#A09C53"/>
<path d="M117.688 411.383C117.669 413.415 118.081 415.317 118.619 416.92C119.239 418.46 119.982 419.699 120.532 420.521C120.875 421.032 121.708 420.827 121.943 420.182C122.323 419.143 122.822 417.627 123.225 415.898C123.426 415.033 123.603 414.115 123.728 413.175C123.85 412.236 123.993 411.218 124.016 410.234C124.048 409.242 123.997 408.318 123.887 407.468C123.832 407.043 123.762 406.635 123.681 406.248C123.62 405.847 123.557 405.46 123.48 405.096C123.179 403.638 122.739 402.499 122.388 401.743C122.162 401.282 121.342 401.371 120.965 401.921C120.382 402.8 119.609 404.112 118.953 405.739C118.625 406.553 118.327 407.445 118.097 408.396C117.877 409.343 117.675 410.382 117.688 411.383Z" fill="#A09C53"/>
<path d="M120.481 413.362L120.624 415.012C120.674 415.567 120.773 416.089 120.85 416.635C121.016 417.718 121.193 418.816 121.383 419.928C121.719 422.196 122.315 424.328 122.88 426.593L122.314 426.803C121.731 424.542 121.157 422.379 120.812 420.109C120.437 417.868 120.045 415.74 119.906 413.512L120.481 413.362Z" fill="#A09C53"/>
<path d="M125.154 437.769C127.435 437.916 129.467 438.404 131.159 438.987C132.91 439.486 134.32 440.089 135.261 440.553C135.842 440.838 135.812 441.728 135.205 442.05C134.222 442.568 132.745 443.245 130.909 443.769C129.99 444.031 128.982 444.253 127.902 444.4C126.82 444.55 125.72 444.547 124.547 444.466C123.38 444.376 122.245 444.175 121.168 443.904C120.629 443.768 120.106 443.615 119.599 443.451C119.102 443.273 118.636 443.068 118.183 442.864C116.377 442.044 114.9 441.124 113.919 440.447C113.304 440.032 113.453 439.128 114.14 438.944C115.261 438.629 116.908 438.234 118.821 437.97C119.778 437.839 120.801 437.74 121.861 437.703C122.927 437.66 123.999 437.715 125.154 437.769Z" fill="#A09C53"/>
<path d="M141.93 440.958L141.891 441.565C139.591 441.595 137.165 441.687 134.823 441.499C133.637 441.43 132.435 441.351 131.219 441.26C130.614 441.21 129.99 441.179 129.391 441.104L127.588 440.864L127.688 440.254C130.067 440.628 132.535 440.745 134.892 440.89C137.229 441.07 139.63 441.004 141.93 440.958Z" fill="#A09C53"/>
<path d="M128.903 423.813C129.29 425.814 130.072 427.599 130.918 429.067C131.82 430.468 132.796 431.533 133.494 432.236C133.931 432.67 134.71 432.309 134.815 431.632C134.987 430.539 135.182 428.955 135.238 427.179C135.267 426.29 135.26 425.354 135.197 424.405C135.14 423.448 135.069 422.428 134.896 421.453C134.728 420.471 134.49 419.572 134.209 418.755C134.07 418.346 133.916 417.961 133.761 417.59C133.623 417.203 133.477 416.837 133.327 416.493C132.727 415.115 132.056 414.075 131.551 413.397C131.232 412.987 130.452 413.229 130.193 413.85C129.795 414.841 129.314 416.283 129.002 418.016C128.848 418.881 128.738 419.816 128.705 420.797C128.689 421.287 128.692 421.789 128.719 422.298C128.74 422.813 128.801 423.319 128.903 423.813Z" fill="#A09C53"/>
<path d="M132.043 425.212C132.617 427.367 133.423 429.362 134.215 431.489C134.989 433.646 135.972 435.639 136.964 437.747L136.449 438.061L134.983 434.943L134.63 434.173L134.31 433.37L133.689 431.775C132.881 429.654 132.091 427.628 131.508 425.471L132.043 425.212Z" fill="#A09C53"/>
<path d="M142.349 433.876C143.111 435.767 144.219 437.37 145.33 438.65C146.473 439.868 147.64 440.718 148.457 441.278C148.968 441.622 149.665 441.12 149.64 440.435C149.602 439.33 149.494 437.738 149.213 435.985C149.073 435.108 148.889 434.189 148.647 433.271C148.417 432.329 148.147 431.351 147.791 430.423C147.438 429.491 147.032 428.653 146.599 427.904C146.385 427.526 146.155 427.186 145.939 426.839C145.728 426.485 145.512 426.153 145.298 425.843C144.438 424.603 143.574 423.707 142.945 423.136C142.55 422.794 141.836 423.168 141.699 423.832C141.492 424.894 141.306 426.395 141.333 428.16C141.371 429.904 141.607 431.949 142.349 433.876Z" fill="#A09C53"/>
<path d="M145.703 434.653C146.68 436.658 147.84 438.476 149.025 440.408C150.194 442.377 151.529 444.158 152.907 446.032L152.46 446.439L150.429 443.659C150.094 443.21 149.781 442.726 149.475 442.237L148.563 440.789L146.813 437.934L146.391 437.229L145.997 436.486L145.227 435.009L145.703 434.653Z" fill="#A09C53"/>
<path d="M157.457 441.215C158.563 442.922 159.955 444.282 161.288 445.324C162.639 446.31 163.949 446.905 164.857 447.299C165.425 447.537 166.01 446.908 165.853 446.241C165.604 445.165 165.191 443.626 164.581 441.961C164.276 441.129 163.921 440.266 163.511 439.413C163.11 438.52 162.657 437.623 162.135 436.779C160.024 433.491 157.481 431.422 156.018 430.559C155.568 430.297 154.939 430.791 154.93 431.473C154.922 432.568 155.025 434.064 155.383 435.793C155.747 437.5 156.37 439.453 157.457 441.215Z" fill="#A09C53"/>
<path d="M160.892 441.33C162.231 443.109 163.71 444.677 165.245 446.335C166.771 448.039 168.423 449.532 170.143 451.092L169.785 451.578C168.92 450.8 168.074 450.025 167.249 449.255C166.421 448.492 165.641 447.608 164.865 446.799C164.092 445.973 163.337 445.154 162.602 444.34C162.231 443.945 161.876 443.511 161.528 443.071L160.492 441.771L160.892 441.33Z" fill="#A09C53"/>
</g>
<mask id="mask2_128_2184" style="mask-type:luminance" maskUnits="userSpaceOnUse" x="64" y="128" width="321" height="320">
<path d="M384.09 128H64.5469V447.544H384.09V128Z" fill="white"/>
</mask>
<g mask="url(#mask2_128_2184)">
<path d="M338.676 403.264C335.956 407.339 332.151 409.918 330.071 411.086C329.427 411.451 328.659 410.922 328.773 410.196C329.148 407.857 330.125 403.439 332.82 399.401C335.515 395.361 339.252 392.741 341.297 391.518C341.931 391.138 342.713 391.647 342.617 392.376C342.306 394.725 341.394 399.189 338.676 403.264Z" fill="#A09C53"/>
<path d="M334.115 404.344C324.983 417.9 315.316 431.219 303.815 442.951C298.071 448.807 291.865 454.231 285.189 459.032C278.497 463.808 271.299 467.91 263.679 471.064L263.432 470.474C271.001 467.342 278.156 463.265 284.812 458.514C291.454 453.738 297.632 448.339 303.353 442.505C314.81 430.818 324.457 417.532 333.58 403.988L334.115 404.344Z" fill="#A09C53"/>
<path d="M324.205 406.196C324.068 411.005 322.162 415.12 320.993 417.162C320.631 417.797 319.7 417.738 319.42 417.065C318.518 414.891 317.064 410.655 317.205 405.913C317.349 401.171 319.084 397.109 320.145 395.032C320.474 394.393 321.405 394.417 321.716 395.072C322.719 397.188 324.348 401.392 324.205 406.196Z" fill="#A09C53"/>
<path d="M319.479 424.503L318.842 424.402C319.717 419.233 320.418 414.092 321.02 408.957L321.657 409.035C321.055 414.176 320.354 419.325 319.479 424.503Z" fill="#A09C53"/>
<path d="M339.494 407.78C335.008 409.77 331.738 412.996 330.134 414.782C329.638 415.334 329.986 416.202 330.721 416.245C333.093 416.384 337.685 416.287 342.217 414.279C346.754 412.273 350.003 408.931 351.551 407.093C352.034 406.521 351.657 405.666 350.922 405.646C348.541 405.584 343.983 405.792 339.494 407.78Z" fill="#A09C53"/>
<path d="M337.992 411.827C333.287 414.332 328.554 416.772 323.801 419.071L323.525 418.492C328.272 416.197 332.999 413.757 337.698 411.254L337.992 411.827Z" fill="#A09C53"/>
<path d="M311.948 422.856C311.537 427.61 309.312 431.546 307.978 433.466C307.564 434.064 306.644 433.921 306.423 433.228C305.709 430.99 304.611 426.68 305.027 422.042C305.451 417.405 307.324 413.574 308.442 411.611C308.79 411.011 309.708 411.089 309.995 411.751C310.911 413.878 312.369 418.112 311.948 422.856Z" fill="#A09C53"/>
<path d="M305.794 440.617L305.17 440.452C306.563 435.402 307.682 430.367 308.615 425.346L309.242 425.473C308.309 430.506 307.189 435.553 305.794 440.617Z" fill="#A09C53"/>
<path d="M327.123 425.308C322.516 427.119 319.024 430.132 317.284 431.81C316.746 432.328 317.026 433.222 317.758 433.316C320.117 433.621 324.738 433.828 329.445 432C334.157 430.177 337.64 426.852 339.295 425.009C339.815 424.437 339.474 423.555 338.734 423.52C336.332 423.405 331.736 423.505 327.123 425.308Z" fill="#A09C53"/>
<path d="M325.364 429.313C320.475 431.597 315.55 433.721 310.612 435.606L310.387 435.006C315.313 433.123 320.228 431.003 325.107 428.722L325.364 429.313Z" fill="#A09C53"/>
<path d="M298.489 438.19C297.612 442.84 294.922 446.462 293.363 448.186C292.877 448.723 291.986 448.459 291.855 447.747C291.434 445.442 290.878 441.057 291.752 436.568C292.636 432.083 294.774 428.575 296.013 426.783C296.4 426.24 297.295 426.406 297.529 427.084C298.272 429.251 299.382 433.552 298.489 438.19Z" fill="#A09C53"/>
<path d="M290.246 454.968L289.65 454.717C291.744 449.915 293.48 445.085 294.938 440.254L295.544 440.455C294.084 445.301 292.343 450.148 290.246 454.968Z" fill="#A09C53"/>
<path d="M313.346 442.129C308.557 443.559 304.737 446.181 302.804 447.662C302.206 448.117 302.378 449.04 303.096 449.215C304.253 449.493 305.992 449.83 308.036 449.888C309.062 449.922 310.174 449.895 311.345 449.773C312.508 449.646 313.716 449.417 314.956 449.066C319.911 447.639 323.768 444.501 325.609 442.734C326.191 442.189 325.922 441.268 325.182 441.187C322.77 440.919 318.141 440.714 313.346 442.129Z" fill="#A09C53"/>
<path d="M311.162 445.991C306.015 447.827 300.846 449.397 295.7 450.643L295.555 450.021C300.683 448.777 305.837 447.208 310.97 445.374L311.162 445.991Z" fill="#A09C53"/>
<path d="M283.378 451.517C281.87 455.965 278.634 459.092 276.821 460.526C276.254 460.97 275.424 460.559 275.413 459.837C275.39 458.664 275.441 457.005 275.65 455.063C275.758 454.099 275.914 453.081 276.14 452.049C276.358 451.002 276.638 449.922 277.014 448.87C278.498 444.635 280.994 441.541 282.418 439.974C282.862 439.505 283.709 439.787 283.862 440.487C284.336 442.71 284.901 447.083 283.378 451.517Z" fill="#A09C53"/>
</g>
<mask id="mask3_128_2184" style="mask-type:luminance" maskUnits="userSpaceOnUse" x="64" y="128" width="321" height="320">
<path d="M384.09 128H64.5469V447.544H384.09V128Z" fill="white"/>
</mask>
<g mask="url(#mask3_128_2184)">
<path d="M283.051 430.614C280.419 434.582 276.742 437.096 274.732 438.234C274.109 438.59 273.369 438.076 273.48 437.37C273.845 435.095 274.794 430.796 277.403 426.865C280.011 422.932 283.623 420.377 285.599 419.185C286.212 418.815 286.966 419.308 286.872 420.018C286.569 422.304 285.682 426.647 283.051 430.614Z" fill="#A09C53"/>
<path d="M278.645 431.672C269.808 444.87 260.456 457.838 249.334 469.267C243.78 474.971 237.781 480.256 231.327 484.935C224.861 489.59 217.905 493.59 210.542 496.669L210.305 496.095C217.617 493.037 224.531 489.062 230.964 484.432C237.384 479.778 243.357 474.517 248.89 468.834C259.968 457.45 269.301 444.513 278.129 431.327L278.645 431.672Z" fill="#A09C53"/>
<path d="M269.074 433.488C268.934 438.166 267.087 442.171 265.956 444.159C265.606 444.777 264.707 444.72 264.437 444.067C263.569 441.953 262.172 437.836 262.315 433.223C262.461 428.61 264.143 424.658 265.17 422.636C265.487 422.014 266.387 422.035 266.686 422.672C267.652 424.729 269.219 428.815 269.074 433.488Z" fill="#A09C53"/>
<path d="M264.485 451.3L263.869 451.203C264.722 446.174 265.406 441.173 265.995 436.178L266.61 436.253C266.022 441.254 265.337 446.263 264.485 451.3Z" fill="#A09C53"/>
<path d="M283.834 435.006C279.5 436.948 276.338 440.09 274.787 441.829C274.308 442.367 274.643 443.212 275.352 443.251C277.641 443.383 282.074 443.281 286.454 441.322C290.837 439.365 293.979 436.109 295.475 434.319C295.943 433.762 295.581 432.931 294.87 432.912C292.572 432.856 288.171 433.065 283.834 435.006Z" fill="#A09C53"/>
<path d="M282.378 438.943C277.832 441.387 273.259 443.768 268.666 446.01L268.4 445.447C272.986 443.207 277.553 440.828 282.095 438.387L282.378 438.943Z" fill="#A09C53"/>
<path d="M257.216 449.709C256.812 454.333 254.658 458.165 253.367 460.035C252.967 460.617 252.079 460.479 251.866 459.806C251.181 457.63 250.126 453.439 250.535 448.927C250.951 444.416 252.764 440.688 253.846 438.776C254.183 438.193 255.07 438.266 255.346 438.911C256.228 440.978 257.63 445.094 257.216 449.709Z" fill="#A09C53"/>
</g>
<path d="M193.751 233.226C216.34 233.226 234.653 214.914 234.653 192.324C234.653 169.735 216.34 151.423 193.751 151.423C171.162 151.423 152.85 169.735 152.85 192.324C152.85 214.914 171.162 233.226 193.751 233.226Z" fill="white"/>
<path d="M170.051 174.856V191.79C170.051 200.698 180.413 207.406 193.377 207.406C206.342 207.406 216.704 200.698 216.704 191.79V174.856H170.051ZM213.509 191.751C213.509 199.546 204.722 205.351 193.377 205.351C182.033 205.351 173.246 199.546 173.246 191.751V177.413H213.509V191.751Z" fill="#FF9C00"/>
<path opacity="0.43" d="M170.051 174.856V191.79C170.051 200.698 180.413 207.406 193.377 207.406C206.342 207.406 216.704 200.698 216.704 191.79V174.856H170.051ZM213.509 191.751C213.509 199.546 204.722 205.351 193.377 205.351C182.033 205.351 173.246 199.546 173.246 191.751V177.413H213.509V191.751Z" fill="url(#paint2_angular_128_2184)"/>
<path d="M196.254 204.255H189.863V216.398H196.254V204.255Z" fill="#D3442D"/>
<path d="M176.486 171.022C176.385 171.662 176.442 172.456 176.442 173.241V191.223C176.442 200.729 183.872 208.434 193.377 208.434C202.883 208.434 210.313 200.728 210.313 191.223V173.241C210.313 172.456 210.693 171.662 210.591 171.022H176.486Z" fill="#FF9C00"/>
<path d="M214.147 170.703C214.147 171.938 213.146 172.939 211.91 172.939H176.122C174.886 172.939 173.885 171.938 173.885 170.703C173.885 169.467 174.886 168.466 176.122 168.466H211.91C213.146 168.466 214.147 169.467 214.147 170.703Z" fill="#FF9C00"/>
<path opacity="0.43" d="M214.147 170.703C214.147 171.938 213.146 172.939 211.91 172.939H176.122C174.886 172.939 173.885 171.938 173.885 170.703C173.885 169.467 174.886 168.466 176.122 168.466H211.91C213.146 168.466 214.147 169.467 214.147 170.703Z" fill="url(#paint3_angular_128_2184)"/>
<path d="M199.962 213.521C199.962 214.089 199.617 214.48 199.191 214.48H187.374C186.949 214.48 186.604 214.089 186.604 213.521C186.604 212.954 186.949 212.562 187.374 212.562H199.191C199.617 212.562 199.962 212.954 199.962 213.521Z" fill="#FF9C00"/>
<path opacity="0.43" d="M199.962 213.521C199.962 214.089 199.617 214.48 199.191 214.48H187.374C186.949 214.48 186.604 214.089 186.604 213.521C186.604 212.954 186.949 212.562 187.374 212.562H199.191C199.617 212.562 199.962 212.954 199.962 213.521Z" fill="url(#paint4_angular_128_2184)"/>
<path d="M203.922 214.48H182.832V221.51H203.922V214.48Z" fill="#FF9C00"/>
<path d="M200.087 216.397H186.027V219.593H200.087V216.397Z" fill="white"/>
<path d="M204.955 190.207C205.955 184.045 201.77 178.239 195.609 177.239C189.447 176.239 183.641 180.423 182.641 186.585C181.641 192.747 185.825 198.553 191.987 199.553C198.149 200.553 203.955 196.368 204.955 190.207Z" fill="white"/>
<path d="M193.795 182.018L195.821 186.122L200.351 186.78L197.073 189.975L197.847 194.487L193.795 192.357L189.744 194.487L190.518 189.975L187.24 186.78L191.77 186.122L193.795 182.018Z" fill="#FF9C00"/>
<path d="M291.87 332.284C311.483 299.974 327.928 258.116 315.608 254.364C303.289 250.612 298.435 266.441 276.885 294.936C266.64 308.484 245.113 347.75 245.113 347.75" fill="#FFBEA2"/>
<path d="M250.181 343.88C269.793 311.569 286.239 269.712 273.919 265.96C261.599 262.207 256.745 278.037 235.195 306.532C224.95 320.079 203.424 359.346 203.424 359.346" fill="#FFBEA2"/>
<path d="M228.349 332.55C242.169 309.782 253.757 280.287 245.076 277.642C236.395 274.998 232.974 286.152 217.789 306.232C210.569 315.778 195.4 343.449 195.4 343.449" fill="#FFBEA2"/>
<g opacity="0.67">
<path d="M291.868 332.282L245.11 347.748C245.11 347.748 245.648 346.775 246.587 345.073L203.424 359.348C203.424 359.348 209.278 348.667 216.337 336.524L195.398 343.446C195.398 343.446 210.572 315.783 217.787 306.232C232.974 286.152 236.397 275.002 245.077 277.643C248.208 278.596 248.705 283.055 247.398 289.426C259.283 271.952 264.354 263.049 273.918 265.962C281.528 268.276 278.159 285.144 269.841 305.32C272.461 301.202 274.891 297.58 276.886 294.939C298.437 266.445 303.29 250.612 315.611 254.362C327.925 258.119 311.479 299.976 291.868 332.282Z" fill="#FFBEA2"/>
</g>
<path d="M226.072 224.098C226.493 223.391 226.001 222.051 226.013 220.966C226.028 219.535 225.609 217.383 225.054 216.232C224.22 214.503 221.488 209.547 219.961 209.09C218.434 208.633 220.46 213.09 220.857 214.013C221.255 214.935 221.183 215.707 221.183 215.707C221.183 215.707 215.742 205.841 214.49 205.614C213.239 205.386 215.772 211.311 216.408 212.771C216.408 212.771 211.896 205.565 211.056 205.671C209.371 205.884 214.15 214.031 214.15 214.031C214.15 214.031 210.045 208.162 209.101 208.864C208.1 209.608 212.513 215.883 212.513 215.883C212.513 215.883 209.278 212.448 208.186 212.682C207.095 212.916 213.33 220.653 214.432 221.726C215.534 222.8 218.265 225.939 219.921 227.081C221.047 227.857 224.739 226.336 226.072 224.098Z" fill="#FFBEA2"/>
<path d="M218.969 214.894C215.835 215.255 214.611 216.987 214.611 216.987" stroke="#ED7854" stroke-width="0.9059" stroke-miterlimit="10" stroke-linecap="round"/>
<path d="M216.156 217.854C220.151 218.841 220.954 222.125 220.954 222.125" stroke="#ED7854" stroke-width="0.9059" stroke-miterlimit="10" stroke-linecap="round"/>
<path d="M291.045 211.856C291.045 211.856 297.896 205.716 309.197 214.211C320.497 222.705 306.804 236.852 307.648 245.796C308.493 254.739 304.998 254.003 298.275 252.523C291.551 251.043 278.279 247.318 276.337 242.765C274.331 238.059 283.563 220.814 291.045 211.856Z" fill="#82264B"/>
<path d="M276.944 242.187C266.451 244.645 265.257 244.82 253.597 245.064C244.756 240.156 234.743 228.536 226.944 219.936L218.227 226.883C224.597 235.281 231.181 243.297 238.955 250.532C244.825 256.273 251.503 260.965 260.022 259.848C271.94 259.299 283.312 255.207 294.117 250.072L276.944 242.187Z" fill="#E66446"/>
<path d="M180.539 360.409C182.961 358.768 200.991 352.308 200.991 352.308C200.991 352.308 202.667 355.483 201.547 357.654C200.48 359.72 195.579 370.919 195.022 372.082L193.491 371.397L194.905 365.92C194.905 365.92 188.92 369.942 185.447 370.682C181.973 371.422 173.277 367.122 171.279 365.889C169.284 364.655 178.116 362.051 180.539 360.409Z" fill="#FF9C00"/>
<path d="M204.972 347.46L201.071 351.69C201.071 351.69 201.051 353.635 199.267 355.724C197.483 357.815 193.095 360.436 189.269 362.126C185.969 363.585 180.149 363.909 179.018 362.639C177.886 361.369 184.176 358.32 186.519 356.31C188.862 354.3 190.446 352.072 191.814 350.106C193.212 348.096 195.888 342.819 195.888 342.819L204.972 347.46Z" fill="#FFBEA2"/>
<path d="M150.58 340.975C153.449 340.399 172.575 341.412 172.575 341.412C172.575 341.412 172.892 344.989 171.019 346.558C169.236 348.051 160.386 356.484 159.423 357.34L158.276 356.117L161.698 351.613C161.698 351.613 154.624 353.007 151.134 352.346C147.645 351.686 141.288 344.357 139.923 342.448C138.558 340.538 147.711 341.552 150.58 340.975Z" fill="#FF9C00"/>
<path d="M178.121 338.481L172.886 340.873C172.886 340.873 172.116 342.658 169.663 343.896C167.209 345.133 162.15 345.854 157.968 345.934C154.361 346.002 148.868 344.05 148.316 342.442C147.765 340.833 154.743 340.454 157.681 339.506C160.618 338.559 162.942 337.116 164.964 335.832C167.03 334.519 171.538 330.688 171.538 330.688L178.121 338.481Z" fill="#FFBEA2"/>
<path d="M221.109 284.854C224.907 283.541 271.039 292.75 282.78 302.986C282.91 306.712 258.254 310.041 250.067 314.729C230.877 309.155 218.088 310.41 218.088 310.41C218.088 310.41 204.825 321.99 198.523 325.557C192.221 329.123 177.992 340.577 177.992 340.577L170.217 331.013C170.217 331.013 210.769 288.429 221.109 284.854Z" fill="#82264B"/>
<path d="M221.109 284.854C224.907 283.541 271.039 292.75 282.78 302.986C282.91 306.712 258.254 310.041 250.067 314.729C230.877 309.155 218.088 310.41 218.088 310.41C218.088 310.41 204.825 321.99 198.523 325.557C192.221 329.123 177.992 340.577 177.992 340.577L170.217 331.013C170.217 331.013 210.769 288.429 221.109 284.854Z" fill="#82264B"/>
<g opacity="0.58">
<path d="M221.109 284.854C224.907 283.541 271.039 292.75 282.78 302.986C282.91 306.712 258.254 310.041 250.067 314.729C230.877 309.155 218.088 310.41 218.088 310.41C218.088 310.41 204.825 321.99 198.523 325.557C192.221 329.123 177.992 340.577 177.992 340.577L170.217 331.013C170.217 331.013 210.769 288.429 221.109 284.854Z" fill="#82264B"/>
</g>
<path opacity="0.58" d="M248.773 309.324C248.773 309.324 224.71 301.4 221.257 302.718C217.805 304.037 203.173 322.242 181.32 332.631" stroke="#82264B" stroke-width="1.0651" stroke-miterlimit="10" stroke-linecap="round"/>
<path opacity="0.58" d="M183.23 335.152L175.055 326.712" stroke="#82264B" stroke-width="1.0651" stroke-miterlimit="10" stroke-linecap="round"/>
<path d="M292.394 301.704C292.394 301.704 292.677 339.227 252.687 324.131C234.639 317.318 227.451 310.843 227.451 310.843C227.451 310.843 220.092 326.213 216.347 332.411C212.602 338.61 204.945 349.226 204.945 349.226L194.4 344.525C194.4 344.525 211.555 294.679 222.399 293.225C233.242 291.771 249.745 294.407 271.64 301.752C271.64 301.752 288.633 301.826 292.394 301.704Z" fill="#82264B"/>
<path opacity="0.58" d="M289.473 304.027C282.429 326.323 266.134 325.418 255.643 322.004C245.153 318.591 231.081 306.367 227.179 307.326C223.277 308.284 218.815 328.832 205.982 342.385" stroke="#82264B" stroke-width="1.0651" stroke-miterlimit="10" stroke-linecap="round"/>
<path opacity="0.58" d="M208.558 343.774L197.422 338.811" stroke="#82264B" stroke-width="1.0651" stroke-miterlimit="10" stroke-linecap="round"/>
<path d="M255.098 303.729L218.313 287.332C216.897 286.701 216.261 285.041 216.892 283.625L217.041 283.291C217.672 281.875 219.332 281.239 220.748 281.87L257.532 298.267C258.949 298.898 259.584 300.558 258.954 301.973L258.805 302.308C258.174 303.724 256.514 304.36 255.098 303.729Z" fill="#E7D8CE"/>
<path d="M211.374 284.239C209.797 283.536 208.889 281.86 209.161 280.155L214.407 247.307C214.728 245.299 216.865 244.141 218.721 244.97L237.487 253.335C238.753 253.899 239.489 255.237 239.288 256.609L233.777 294.225L211.374 284.239Z" fill="white"/>
<path d="M239.291 256.609L233.824 293.915L235.968 294.871L241.435 257.565C241.634 256.192 240.9 254.853 239.634 254.289L237.489 253.333C238.755 253.898 239.49 255.236 239.291 256.609Z" fill="#E7D8CE"/>
<path d="M226.785 270.406C226.39 272.44 224.575 273.422 222.732 272.601C220.888 271.779 219.714 269.464 220.11 267.431C220.505 265.397 222.32 264.415 224.163 265.237C226.006 266.058 227.18 268.373 226.785 270.406Z" fill="#E7D8CE"/>
<path d="M261.048 267.867C261.052 267.909 261.051 267.942 261.055 267.985C261.079 268.434 261.132 268.876 261.213 269.318C261.671 271.956 262.959 274.401 263.486 275.323C263.63 275.581 263.721 275.719 263.721 275.719C263.718 275.732 263.708 275.743 263.704 275.763C263.662 275.882 263.62 276.003 263.575 276.136C263.402 276.64 263.179 277.243 262.875 277.895C259.347 285.368 258.622 286.588 257.158 289.772C264.042 307.028 290.675 303.251 292.394 301.706C295.354 293.992 295.354 293.992 298.322 286.551C299.752 282.957 302.563 277.723 305.875 272.627C306.004 272.425 306.133 272.224 306.269 272.024C307.254 270.529 308.277 269.05 309.316 267.643C313.867 261.481 314.594 255.163 311.241 251.435C310.102 250.168 306.215 247.958 304.456 247.142C303.982 246.922 303.514 246.709 303.07 246.509C300.579 245.406 298.608 244.65 298.608 244.65L286.081 241.873C284.819 241.726 283.677 241.622 282.637 241.576C281.728 241.526 280.897 241.523 280.138 241.556C273.36 241.834 272.342 245.128 269.78 250.898C269.046 252.54 268.183 254.125 267.29 255.634C267.001 256.105 266.715 256.57 266.429 257.035C263.686 261.453 260.94 265.161 261.048 267.867Z" fill="#E66446"/>
<path d="M299.505 245.002C299.505 245.002 305.703 246.951 304.246 250.466C302.789 253.982 294.052 255.723 289.113 251.705C289.113 251.705 297.613 250.101 299.505 245.002Z" fill="white"/>
<path d="M286.336 241.911C286.336 241.911 279.118 240.196 277.826 244.064C276.533 247.932 282.371 251.874 286.554 250.75C286.554 250.75 284.478 247.472 286.336 241.911Z" fill="white"/>
<path d="M286.541 241.439L285.067 245.759C283.865 249.283 287.22 252.646 290.754 251.471C294.87 250.103 298.805 247.841 299.504 245.002L286.541 241.439Z" fill="#FFBEA2"/>
<path d="M287.416 214.631C287.416 214.631 282.606 219.115 284.408 222.818L288.707 215.424L287.416 214.631Z" fill="#82264B"/>
<path d="M293.741 210.474C293.741 210.474 304.418 207.335 309.665 217.467C315.002 227.774 306.141 242.028 297.605 239.761C297.605 239.761 290.888 222.018 293.741 210.474Z" fill="#82264B"/>
<path d="M286.034 224.968C286.034 224.968 284.899 222.18 283.141 224.022C281.382 225.865 280.74 230.547 283.789 230.744L286.034 224.968Z" fill="#ED7854"/>
<path d="M288.419 235.368L286.047 242.951C286.047 242.951 288.282 249.177 299.504 245.002C298.147 242.518 298.995 238.596 300.293 236.405C300.293 236.405 299.519 236.49 298.199 236.907C297.941 236.989 297.648 237.01 297.347 237.061C294.681 237.51 291.434 236.327 288.419 235.368Z" fill="#FFBEA2"/>
<path d="M288.42 235.368L286.932 239.779C289.708 239.81 294.792 239.485 298.199 236.907C297.933 236.958 297.648 237.01 297.346 237.061C294.682 237.51 291.435 236.327 288.42 235.368Z" fill="#ED7854"/>
<path d="M282.233 233.644C284.598 240.929 298.764 238.234 299.191 238.15C299.197 238.149 299.202 238.148 299.202 238.148C299.459 237.713 299.704 237.278 299.938 236.846C301.927 233.187 303.154 229.585 303.882 226.02C305.256 222.459 304.202 218.379 301.201 216.022C298.089 213.58 294.414 214.097 292.319 214.061C289.157 214.008 286.136 217.129 284.389 222.414C282.246 228.9 281.579 231.629 282.233 233.644Z" fill="#FFBEA2"/>
<path d="M294.061 220.252C294.061 220.252 292.977 220.012 293.031 221.096C293.086 222.179 295.539 221.807 296.466 224.073C296.466 224.073 297.862 221.974 294.061 220.252Z" fill="#82264B"/>
<path d="M289.304 218.696C289.304 218.696 290.32 219.144 289.636 219.985C288.952 220.827 287.193 219.078 285.105 220.358C285.105 220.358 285.22 217.839 289.304 218.696Z" fill="#82264B"/>
<path d="M297.895 234.705C297.902 234.791 298.116 237.132 299.191 238.15C299.193 238.151 299.192 238.152 299.193 238.152C299.199 238.149 299.202 238.148 299.202 238.148C299.459 237.713 299.704 237.279 299.939 236.847C299.893 236.824 298.682 236.18 297.895 234.705Z" fill="#ED7854"/>
<path d="M300.655 230.435C300.655 230.435 304.527 227.701 305.569 231.185C306.428 234.057 301.363 239.151 298.832 236.01L300.655 230.435Z" fill="#FFBEA2"/>
<path d="M289.579 222.929L287.451 225.844C287.427 225.878 287.436 225.925 287.473 225.943C287.713 226.062 288.538 226.424 289.162 226.141" stroke="#ED7854" stroke-width="1.0651" stroke-miterlimit="10" stroke-linecap="round"/>
<path d="M285.943 228.807C287.06 233.464 292.299 231.148 292.965 228.956L285.943 228.807Z" fill="white"/>
<path d="M304.246 231.539C301.445 231.416 300.298 233.765 299.875 234.581" stroke="#ED7854" stroke-width="1.0651" stroke-miterlimit="10" stroke-linecap="round"/>
<path d="M302.935 233.845C302.209 232.621 301.398 232.921 301.398 232.921" stroke="#ED7854" stroke-width="1.0651" stroke-miterlimit="10" stroke-linecap="round"/>
<path d="M299.7 236.35C299.548 236.814 299.802 237.313 300.266 237.465C300.73 237.616 301.229 237.363 301.381 236.899C301.533 236.435 301.28 235.936 300.816 235.784C300.351 235.633 299.852 235.886 299.7 236.35Z" fill="white"/>
<path d="M292.417 225.038C292.197 225.711 292.323 226.356 292.7 226.479C293.076 226.603 293.56 226.156 293.78 225.484C294 224.811 293.873 224.166 293.497 224.043C293.12 223.92 292.636 224.365 292.417 225.038Z" fill="#82264B"/>
<path d="M285.758 222.862C285.539 223.535 285.665 224.18 286.041 224.303C286.418 224.426 286.901 223.98 287.122 223.307C287.341 222.634 287.215 221.989 286.838 221.866C286.462 221.743 285.978 222.189 285.758 222.862Z" fill="#82264B"/>
<path d="M305.612 222.601C305.612 222.601 300.831 224.755 299.552 223.418C298.273 222.08 301.774 219.855 301.774 219.855C301.774 219.855 295.351 221.026 293.567 219.389C291.783 217.752 296.374 216.434 296.374 216.434C296.374 216.434 290.998 218.777 288.698 217.783C286.399 216.788 289.748 214.573 289.748 214.573C289.748 214.573 286.208 218.057 284.895 217.229C283.582 216.401 287.471 211.01 292.884 210.512C298.297 210.015 310.248 214.332 305.612 222.601Z" fill="#82264B"/>
<path d="M301.933 222.357C301.933 222.357 297.607 229.392 299.537 230.984C301.821 232.868 305.098 227.229 305.827 221.747L301.933 222.357Z" fill="#82264B"/>
<path d="M249.997 288.939C249.997 288.939 241.305 284.773 237.304 285.754L236.336 292.362C236.336 292.362 241.814 293.098 243.041 294.058C244.268 295.019 243.802 297.676 249.044 298.912L249.997 288.939Z" fill="#FFBEA2"/>
<path d="M298.788 255.957L298.783 256.324L298.766 256.839C298.751 257.192 298.731 257.556 298.705 257.924C298.657 258.66 298.591 259.411 298.507 260.163C298.339 261.668 298.101 263.18 297.804 264.676C297.227 267.675 296.403 270.621 295.325 273.435C295.058 274.139 294.77 274.834 294.471 275.521C294.176 276.209 293.862 276.888 293.531 277.556C293.203 278.226 292.857 278.884 292.495 279.531C292.136 280.18 291.754 280.814 291.362 281.439C290.974 282.067 290.559 282.676 290.139 283.28C289.712 283.878 289.275 284.468 288.817 285.041C288.36 285.614 287.891 286.177 287.4 286.719C287.158 286.994 286.907 287.261 286.657 287.526L286.563 287.627L286.524 287.668L286.566 287.628C286.629 287.574 286.668 287.539 286.715 287.506C286.792 287.448 286.833 287.426 286.852 287.42C286.873 287.415 286.797 287.475 286.645 287.547C286.496 287.62 286.287 287.707 286.044 287.792C285.554 287.965 284.936 288.134 284.272 288.281C282.935 288.576 281.419 288.789 279.864 288.959C276.74 289.294 273.437 289.423 270.115 289.481C266.787 289.529 263.42 289.492 260.045 289.396C258.357 289.352 256.666 289.292 254.976 289.217L252.445 289.092L251.184 289.026L249.954 288.954L248.777 300.04L250.125 300.223L251.442 300.393C252.32 300.501 253.197 300.602 254.073 300.7C255.826 300.895 257.581 301.074 259.34 301.236C262.86 301.549 266.396 301.793 269.975 301.921C273.558 302.052 277.169 302.073 280.93 301.849C282.816 301.733 284.736 301.545 286.79 301.184C287.821 300.999 288.886 300.77 290.043 300.423C290.623 300.247 291.228 300.041 291.873 299.775C292.516 299.511 293.211 299.178 293.966 298.717C294.349 298.479 294.744 298.21 295.157 297.88C295.369 297.708 295.574 297.536 295.791 297.33L295.95 297.179L296.026 297.105L296.159 296.974C296.515 296.626 296.87 296.277 297.214 295.917C297.909 295.204 298.577 294.467 299.227 293.715C299.877 292.963 300.501 292.19 301.108 291.405C301.707 290.615 302.295 289.817 302.849 288.998C305.065 285.722 306.923 282.237 308.393 278.632C309.87 275.028 310.996 271.32 311.811 267.554C312.207 265.668 312.527 263.768 312.763 261.843C312.881 260.88 312.979 259.912 313.052 258.926C313.086 258.433 313.114 257.935 313.135 257.425C313.146 257.17 313.154 256.913 313.16 256.645L313.167 256.234L313.169 256.012L313.167 255.718L298.788 255.957Z" fill="#E66446"/>
<path d="M274.732 255.374C276.03 264.081 285.095 261.734 293.418 258.182" stroke="#D3442D" stroke-width="1.0651" stroke-miterlimit="10" stroke-linecap="round"/>
<path d="M299.647 259.284C295.885 274.98 285.887 286.793 285.887 286.793L258.586 289.572" stroke="#D3442D" stroke-width="1.0651" stroke-miterlimit="10" stroke-linecap="round"/>
<path d="M285.887 286.793C290.204 288.993 289.769 292.191 289.769 292.191" stroke="#D3442D" stroke-width="1.0651" stroke-miterlimit="10" stroke-linecap="round"/>
<path d="M256.835 289.775L255.799 300.624" stroke="#D3442D" stroke-width="1.0651" stroke-miterlimit="10" stroke-linecap="round"/>
<path d="M255.861 297.918L250.127 297.883" stroke="#D3442D" stroke-width="1.0651" stroke-miterlimit="10" stroke-linecap="round"/>
<path d="M268.766 253.793C267.632 256.562 265.865 258.883 263.982 261.176C263.277 262.034 262.491 262.911 261.974 263.903C261.384 265.034 261.536 266.714 261.526 267.96C261.515 269.516 261.589 271.28 262.156 272.75C262.833 274.504 264.345 275.833 266.026 276.677C267.707 277.52 269.564 277.937 271.399 278.346" stroke="#D3442D" stroke-width="1.0651" stroke-miterlimit="10" stroke-linecap="round"/>
<path d="M263.719 275.719C261.182 279.991 259.229 284.87 259.229 284.87" stroke="#D3442D" stroke-width="1.0651" stroke-miterlimit="10" stroke-linecap="round"/>
<path d="M253.705 245.504C255.737 248.949 256.006 251.647 256.006 251.647" stroke="#D3442D" stroke-width="1.0651" stroke-miterlimit="10" stroke-linecap="round"/>
<path d="M285.65 252.776C285.398 253.342 285.652 254.006 286.218 254.259C286.785 254.511 287.449 254.257 287.701 253.691C287.954 253.124 287.699 252.46 287.133 252.208C286.567 251.955 285.903 252.21 285.65 252.776Z" fill="#D3442D"/>
<path d="M283.803 256.92C283.55 257.486 283.805 258.15 284.371 258.403C284.937 258.655 285.601 258.401 285.853 257.835C286.106 257.268 285.852 256.604 285.285 256.352C284.719 256.099 284.055 256.353 283.803 256.92Z" fill="#D3442D"/>
<path d="M251.568 293.847C251.316 294.414 251.57 295.078 252.136 295.33C252.703 295.582 253.367 295.328 253.619 294.762C253.872 294.196 253.617 293.532 253.051 293.279C252.485 293.027 251.821 293.281 251.568 293.847Z" fill="#D3442D"/>
<path d="M230.019 225.592C227.645 229.575 223.262 231.568 223.262 231.568" stroke="#D3442D" stroke-width="1.0651" stroke-miterlimit="10" stroke-linecap="round"/>
<path d="M221.203 225.862L225.042 230.152" stroke="#D3442D" stroke-width="1.0651" stroke-miterlimit="10" stroke-linecap="round"/>
<path d="M226.626 225.872C226.508 226.453 225.941 226.828 225.36 226.71C224.778 226.591 224.403 226.024 224.522 225.443C224.64 224.861 225.208 224.486 225.789 224.605C226.37 224.723 226.745 225.29 226.626 225.872Z" fill="#D3442D"/>
<path d="M172.232 387.725C172.232 387.725 224.981 367.748 258.34 400.131C258.34 400.131 193.395 411.807 172.232 387.725Z" fill="#E7D8CE"/>
<path d="M286.999 316.77C307.947 287.829 313.403 272.446 325.722 276.198C338.042 279.95 332.367 298.676 312.754 330.987C293.141 363.297 288.325 368.173 270.38 377.991C248.25 390.098 255.653 401.879 255.653 401.879C255.653 401.879 208.216 420.248 181.513 415.363C181.513 415.363 175.392 394.709 175.68 378.328C175.967 361.949 286.999 316.77 286.999 316.77Z" fill="#FFBEA2"/>
<path d="M233.376 355.92C233.376 355.92 259.414 348.778 285.079 338.34C310.744 327.901 296.97 305.456 276.775 315.186C256.58 324.915 255.495 322.105 227.809 323.194C200.123 324.283 178.057 339.934 175.678 378.329C175.678 378.329 203.188 402.62 241.339 380.803L233.376 355.92Z" fill="#FFBEA2"/>
<path d="M233.376 355.92C233.376 355.92 259.414 348.778 285.079 338.34C310.744 327.901 296.97 305.456 276.775 315.186C256.58 324.915 255.494 322.105 227.809 323.194" stroke="#ED7854" stroke-width="0.9059" stroke-miterlimit="10" stroke-linecap="round"/>
<path d="M281.689 323.169C281.689 323.169 281.754 331.343 286.069 336.256C286.069 336.256 294.498 332.898 295.691 329.724C296.884 326.551 293.86 320.21 292.531 319.638C291.202 319.067 282.254 322.423 281.689 323.169Z" fill="white"/>
<path d="M172.232 387.726C172.232 387.726 194.489 403.779 258.34 400.131V411.806C258.34 411.806 219.3 422.387 172.232 408.158V387.726Z" fill="white"/>
<path d="M264.842 447.543L259.968 410.777C193.701 414.426 170.603 398.372 170.603 398.372L170.217 447.543H264.842Z" fill="#82264B"/>
<path d="M325.878 403.096C348.467 403.096 366.78 384.784 366.78 362.195C366.78 339.605 348.467 321.293 325.878 321.293C303.289 321.293 284.977 339.605 284.977 362.195C284.977 384.784 303.289 403.096 325.878 403.096Z" fill="white"/>
<path d="M312.297 363.153L292.805 382.645H358.95L340.097 363.792L312.297 363.153Z" fill="#799FD7"/>
<path opacity="0.43" d="M310.589 364.751C310.589 364.751 318.288 369.864 318.288 372.42C318.288 374.976 307.423 375.615 306.145 376.255C304.867 376.894 298.476 377.533 299.115 376.255C299.754 374.976 310.589 364.751 310.589 364.751Z" fill="url(#paint5_angular_128_2184)"/>
<path opacity="0.43" d="M341.935 365.39C341.935 365.39 325.318 369.224 325.957 373.059C326.597 376.893 328.514 376.254 333.626 374.337C338.739 372.42 336.822 374.976 338.1 376.893C339.378 378.81 343.213 378.171 345.769 378.171C348.325 378.171 357.273 380.728 357.273 380.728L341.935 365.39Z" fill="url(#paint6_angular_128_2184)"/>
<path d="M341.57 345.933C341.57 354.6 325.878 377.533 325.878 377.533C325.878 377.533 310.186 354.6 310.186 345.933C310.186 337.266 317.211 330.24 325.878 330.24C334.545 330.24 341.57 337.266 341.57 345.933Z" fill="#E66446"/>
<path d="M336.41 345.718C336.41 351.417 331.791 356.036 326.092 356.036C320.393 356.036 315.773 351.417 315.773 345.718C315.773 340.019 320.393 335.399 326.092 335.399C331.791 335.399 336.41 340.02 336.41 345.718Z" fill="white"/>
<mask id="mask4_128_2184" style="mask-type:luminance" maskUnits="userSpaceOnUse" x="64" y="128" width="321" height="320">
<path d="M384.09 128H64.5469V447.544H384.09V128Z" fill="white"/>
</mask>
<g mask="url(#mask4_128_2184)">
<path d="M351.998 269.837H400.604C400.604 269.837 401.097 266.541 393.812 268.189C393.812 268.189 393.001 259.397 386.527 258.774C380.053 258.152 381.594 262.821 381.594 262.821C381.594 262.821 379.436 252.689 367.413 251.875C355.39 251.062 355.39 265.415 355.39 265.415C355.39 265.415 348.607 263.95 346.758 269.837H351.998Z" fill="white"/>
<path d="M55.1587 350.478H118.186C118.186 350.478 118.825 346.203 109.379 348.341C109.379 348.341 108.328 336.94 99.9325 336.133C91.5374 335.326 93.5365 341.38 93.5365 341.38C93.5365 341.38 90.7379 328.242 75.1474 327.187C59.5569 326.132 59.5569 344.744 59.5569 344.744C59.5569 344.744 50.7618 342.845 48.3633 350.479H55.1587V350.478Z" fill="white"/>
</g>
<path d="M86.18 187.974H134.786C134.786 187.974 135.278 184.678 127.994 186.326C127.994 186.326 127.183 177.534 120.709 176.912C114.235 176.289 115.776 180.958 115.776 180.958C115.776 180.958 113.618 170.826 101.595 170.013C89.5716 169.199 89.5716 183.552 89.5716 183.552C89.5716 183.552 82.789 182.087 80.9395 187.974H86.18Z" fill="white"/>
<path d="M238.127 156.605H278.618C278.618 156.605 279.028 153.858 272.959 155.231C272.959 155.231 272.284 147.907 266.891 147.388C261.497 146.87 262.781 150.76 262.781 150.76C262.781 150.76 260.984 142.319 250.967 141.641C240.951 140.963 240.951 152.92 240.951 152.92C240.951 152.92 235.301 151.7 233.76 156.605H238.127Z" fill="white"/>
<defs>
<radialGradient id="paint0_radial_128_2184" cx="0" cy="0" r="1" gradientUnits="userSpaceOnUse" gradientTransform="translate(224 214) rotate(90) scale(227 202.027)">
<stop stop-color="#D4E2E8"/>
<stop offset="0.540164" stop-color="#D9E6EB"/>
<stop offset="0.812053" stop-color="#F1F6F8"/>
<stop offset="1" stop-color="white"/>
</radialGradient>
<radialGradient id="paint1_angular_128_2184" cx="0" cy="0" r="1" gradientUnits="userSpaceOnUse" gradientTransform="translate(323.503 205.861) rotate(90) scale(18.8531 6.07133)">
<stop stop-color="white"/>
<stop offset="0.36" stop-color="#D9E6EB"/>
<stop offset="0.775" stop-color="#D4E2E8"/>
<stop offset="1" stop-color="#F1F6F8"/>
</radialGradient>
<radialGradient id="paint2_angular_128_2184" cx="0" cy="0" r="1" gradientUnits="userSpaceOnUse" gradientTransform="translate(193.377 191.131) rotate(90) scale(16.2747 23.3267)">
<stop stop-color="white"/>
<stop offset="0.36" stop-color="#D9E6EB"/>
<stop offset="0.775" stop-color="#D4E2E8"/>
<stop offset="1" stop-color="#F1F6F8"/>
</radialGradient>
<radialGradient id="paint3_angular_128_2184" cx="0" cy="0" r="1" gradientUnits="userSpaceOnUse" gradientTransform="translate(194.016 170.703) rotate(90) scale(2.2368 20.1312)">
<stop stop-color="white"/>
<stop offset="0.36" stop-color="#D9E6EB"/>
<stop offset="0.775" stop-color="#D4E2E8"/>
<stop offset="1" stop-color="#F1F6F8"/>
</radialGradient>
<radialGradient id="paint4_angular_128_2184" cx="0" cy="0" r="1" gradientUnits="userSpaceOnUse" gradientTransform="translate(193.283 213.521) rotate(90) scale(0.958631 6.6791)">
<stop stop-color="white"/>
<stop offset="0.36" stop-color="#D9E6EB"/>
<stop offset="0.775" stop-color="#D4E2E8"/>
<stop offset="1" stop-color="#F1F6F8"/>
</radialGradient>
<radialGradient id="paint5_angular_128_2184" cx="0" cy="0" r="1" gradientUnits="userSpaceOnUse" gradientTransform="translate(308.679 370.872) rotate(90) scale(6.12076 9.6087)">
<stop stop-color="white"/>
<stop offset="0.36" stop-color="#D9E6EB"/>
<stop offset="0.775" stop-color="#D4E2E8"/>
<stop offset="1" stop-color="#F1F6F8"/>
</radialGradient>
<radialGradient id="paint6_angular_128_2184" cx="0" cy="0" r="1" gradientUnits="userSpaceOnUse" gradientTransform="translate(341.606 373.059) rotate(90) scale(7.66904 15.6666)">
<stop stop-color="white"/>
<stop offset="0.36" stop-color="#D9E6EB"/>
<stop offset="0.775" stop-color="#D4E2E8"/>
<stop offset="1" stop-color="#F1F6F8"/>
</radialGradient>
</defs>
</svg>
