<svg width="500" height="500" viewBox="0 0 500 500" fill="none" xmlns="http://www.w3.org/2000/svg">
<g clip-path="url(#clip0_34_3)">
<path d="M500 0H0V500H500V0Z" fill="#F1F6F8"/>
<path d="M475.113 415.435H24.4609V416.435H475.113V415.435Z" fill="#602320"/>
<path d="M395.129 260.86C395.604 258.69 396.008 256.496 396.384 254.291C396.513 253.543 396.656 252.798 396.774 252.047C396.858 251.499 396.979 250.963 397.057 250.412L434.815 243.236L434.359 211.119L396.413 205.018C396.329 204.531 396.207 204.057 396.119 203.572C395.842 202.063 395.529 200.557 395.202 199.051C394.876 197.539 394.538 196.035 394.166 194.542C394.047 194.065 393.962 193.586 393.838 193.11L425.872 171.875L413.017 142.439L375.667 151.505C375.369 151.036 375.037 150.596 374.732 150.131C374.317 149.499 373.881 148.883 373.456 148.257C372.201 146.401 370.924 144.568 369.594 142.785C369.567 142.749 369.543 142.71 369.516 142.674L391.159 110.875L368.127 88.487L336.954 111.024C336.524 110.72 336.071 110.449 335.637 110.149C334.401 109.299 333.153 108.473 331.893 107.663C330.629 106.846 329.354 106.047 328.063 105.269C327.615 105 327.182 104.701 326.731 104.437L334.374 66.738L304.47 55.014L284.455 87.862C284.411 87.852 284.365 87.846 284.321 87.836C282.149 87.361 279.953 86.957 277.747 86.581C277 86.452 276.257 86.31 275.508 86.192C274.959 86.107 274.422 85.987 273.872 85.908L266.696 48.15L234.579 48.606L228.478 86.552C227.993 86.635 227.522 86.756 227.039 86.844C225.525 87.122 224.014 87.436 222.502 87.765C220.995 88.089 219.496 88.427 218.009 88.797C217.53 88.917 217.049 89.002 216.57 89.127L195.335 57.093L165.9 69.948L174.966 107.297C174.497 107.596 174.058 107.928 173.593 108.232C172.96 108.648 172.343 109.084 171.716 109.51C169.86 110.765 168.027 112.042 166.244 113.373C166.209 113.4 166.171 113.423 166.136 113.449L134.336 91.807L111.949 114.84L134.486 146.012C134.182 146.442 133.91 146.895 133.611 147.329C132.762 148.565 131.935 149.813 131.125 151.073C130.308 152.337 129.51 153.612 128.731 154.902C128.462 155.351 128.163 155.783 127.899 156.234L90.1991 148.591L78.4751 178.495L111.323 198.51C111.313 198.555 111.307 198.6 111.297 198.645C110.822 200.816 110.419 203.01 110.042 205.215C109.914 205.963 109.771 206.708 109.653 207.459C109.569 208.007 109.448 208.543 109.369 209.094L71.6121 216.27L72.0681 248.387L110.014 254.488C110.098 254.975 110.219 255.449 110.308 255.934C110.585 257.443 110.899 258.949 111.226 260.455C111.551 261.967 111.889 263.471 112.261 264.964C112.381 265.441 112.465 265.92 112.59 266.396L80.5561 287.631L93.4111 317.067L130.76 308.001C131.059 308.47 131.39 308.908 131.694 309.372C132.111 310.006 132.547 310.625 132.974 311.252C134.229 313.107 135.505 314.941 136.836 316.724C136.863 316.759 136.886 316.797 136.912 316.832L115.27 348.631L138.302 371.019L169.475 348.482C169.903 348.784 170.354 349.054 170.786 349.352C172.025 350.204 173.277 351.034 174.541 351.846C175.803 352.66 177.074 353.458 178.361 354.234C178.811 354.504 179.244 354.804 179.697 355.069L172.054 392.768L201.958 404.492L221.973 371.644C222.017 371.654 222.063 371.66 222.107 371.67C224.279 372.145 226.475 372.55 228.681 372.925C229.428 373.054 230.171 373.196 230.92 373.314C231.469 373.399 232.006 373.519 232.556 373.598L239.732 411.356L271.849 410.9L277.95 372.954C278.435 372.871 278.907 372.75 279.391 372.662C280.904 372.384 282.414 372.07 283.924 371.742C285.432 371.417 286.932 371.08 288.423 370.709C288.901 370.589 289.381 370.504 289.858 370.379L311.093 402.413L340.528 389.558L331.462 352.209C331.93 351.911 332.368 351.58 332.832 351.277C333.468 350.859 334.088 350.421 334.717 349.993C336.571 348.739 338.403 347.464 340.184 346.134C340.22 346.107 340.257 346.084 340.293 346.057L372.093 367.699L394.48 344.666L371.943 313.494C372.246 313.067 372.515 312.615 372.813 312.185C373.666 310.944 374.497 309.691 375.31 308.425C376.123 307.166 376.919 305.897 377.693 304.612C377.964 304.16 378.265 303.726 378.531 303.272L416.23 310.915L427.954 281.011L395.106 260.996C395.113 260.952 395.119 260.905 395.129 260.86ZM369.57 241.48C369.244 244.749 368.821 247.99 368.231 251.176C367.774 253.616 367.143 256.013 366.533 258.415C366.225 259.637 365.99 260.886 365.643 262.093C364.887 264.716 363.958 267.283 363.023 269.846C362.667 270.819 362.376 271.821 361.996 272.781C361.061 275.146 359.962 277.443 358.876 279.743C358.337 280.879 357.862 282.049 357.287 283.164C356.308 285.075 355.185 286.912 354.1 288.769C353.248 290.221 352.452 291.709 351.541 293.121C350.636 294.528 349.616 295.861 348.65 297.23C347.403 298.99 346.19 300.778 344.851 302.464C344.077 303.441 343.214 304.352 342.408 305.305C340.756 307.254 339.111 309.211 337.336 311.047C336.632 311.776 335.855 312.442 335.13 313.155C333.173 315.079 331.206 316.996 329.116 318.78C328.162 319.593 327.122 320.323 326.138 321.107C324.202 322.655 322.279 324.221 320.244 325.646C317.605 327.487 314.847 329.198 312.026 330.835C311.58 331.095 311.166 331.402 310.716 331.656C307.284 333.587 303.724 335.367 300.037 336.977C296.385 338.572 292.693 339.959 288.978 341.156C288.085 341.442 287.152 341.634 286.249 341.899C283.489 342.716 280.725 343.507 277.946 344.111C275.135 344.716 272.262 345.144 269.379 345.543C268.476 345.67 267.576 345.875 266.673 345.98C262.794 346.425 258.859 346.688 254.873 346.744C250.851 346.801 246.874 346.652 242.952 346.312C242.419 346.265 241.897 346.153 241.365 346.098C238.137 345.773 234.935 345.358 231.789 344.776C229.335 344.316 226.925 343.683 224.509 343.069C223.303 342.764 222.069 342.533 220.878 342.19C218.236 341.429 215.652 340.496 213.073 339.552C212.118 339.202 211.135 338.917 210.191 338.543C207.817 337.604 205.511 336.502 203.202 335.411C202.074 334.875 200.912 334.403 199.804 333.833C197.884 332.85 196.041 331.722 194.176 330.633C192.732 329.786 191.253 328.994 189.849 328.088C188.433 327.177 187.089 326.149 185.711 325.176C183.961 323.936 182.186 322.731 180.509 321.4C179.518 320.615 178.593 319.74 177.625 318.921C175.691 317.28 173.748 315.648 171.925 313.886C171.183 313.17 170.505 312.379 169.78 311.642C167.867 309.694 165.961 307.738 164.187 305.66C163.373 304.704 162.641 303.662 161.854 302.676C160.309 300.742 158.744 298.822 157.322 296.791C155.477 294.147 153.762 291.383 152.121 288.555C151.865 288.114 151.562 287.705 151.309 287.261C149.378 283.829 147.599 280.268 145.988 276.582C144.393 272.928 143.005 269.235 141.807 265.519C141.53 264.654 141.346 263.75 141.088 262.877C140.262 260.088 139.464 257.295 138.854 254.487C138.248 251.674 137.819 248.797 137.421 245.911C137.295 245.014 137.09 244.12 136.986 243.222C136.542 239.342 136.278 235.406 136.222 231.418C136.165 227.395 136.313 223.417 136.654 219.492C136.697 219.001 136.801 218.521 136.851 218.03C137.177 214.761 137.6 211.52 138.19 208.334C138.647 205.894 139.278 203.497 139.888 201.095C140.196 199.873 140.431 198.624 140.778 197.417C141.534 194.793 142.462 192.227 143.398 189.664C143.754 188.691 144.045 187.689 144.425 186.729C145.358 184.371 146.453 182.081 147.536 179.787C148.079 178.643 148.558 177.465 149.136 176.342C150.116 174.429 151.24 172.59 152.326 170.731C153.174 169.284 153.967 167.803 154.876 166.396C155.787 164.981 156.812 163.639 157.785 162.262C159.027 160.508 160.234 158.728 161.57 157.047C162.343 156.07 163.207 155.159 164.013 154.205C165.665 152.256 167.309 150.3 169.085 148.463C169.791 147.731 170.571 147.062 171.299 146.347C173.254 144.427 175.217 142.513 177.303 140.733C178.262 139.916 179.306 139.183 180.295 138.395C182.229 136.849 184.148 135.285 186.18 133.862C188.826 132.017 191.59 130.301 194.42 128.66C194.857 128.405 195.263 128.104 195.705 127.854C199.137 125.923 202.699 124.143 206.385 122.533C210.039 120.937 213.731 119.551 217.448 118.353C218.32 118.073 219.232 117.887 220.114 117.627C222.895 116.802 225.681 116.007 228.482 115.398C231.262 114.8 234.105 114.377 236.956 113.981C237.89 113.85 238.821 113.638 239.755 113.529C243.632 113.085 247.566 112.822 251.551 112.765C255.572 112.708 259.55 112.857 263.472 113.197C264.014 113.245 264.545 113.359 265.086 113.415C268.303 113.74 271.493 114.152 274.629 114.733C277.078 115.191 279.484 115.824 281.894 116.436C283.109 116.743 284.352 116.977 285.552 117.322C288.186 118.081 290.762 119.012 293.334 119.952C294.295 120.304 295.285 120.591 296.234 120.967C298.607 121.905 300.91 123.006 303.219 124.098C304.349 124.634 305.512 125.108 306.623 125.679C308.538 126.66 310.379 127.785 312.239 128.872C313.687 129.721 315.169 130.515 316.576 131.423C317.992 132.334 319.336 133.362 320.714 134.334C322.464 135.574 324.239 136.779 325.916 138.11C326.907 138.895 327.833 139.77 328.8 140.589C330.734 142.23 332.677 143.863 334.5 145.624C335.242 146.34 335.92 147.131 336.645 147.868C338.558 149.816 340.464 151.771 342.238 153.85C343.052 154.806 343.784 155.848 344.571 156.834C346.116 158.768 347.681 160.688 349.103 162.719C350.948 165.363 352.663 168.127 354.304 170.955C354.56 171.396 354.863 171.805 355.116 172.249C357.047 175.681 358.826 179.242 360.437 182.928C362.032 186.582 363.42 190.275 364.618 193.991C364.895 194.858 365.08 195.764 365.339 196.64C366.165 199.426 366.961 202.217 367.571 205.022C368.173 207.822 368.599 210.686 368.998 213.558C369.125 214.47 369.333 215.38 369.439 216.292C369.883 220.17 370.147 224.105 370.203 228.092C370.26 232.115 370.112 236.093 369.77 240.018C369.724 240.51 369.62 240.99 369.57 241.48ZM334.451 237.941C334.223 240.224 333.928 242.486 333.516 244.711C333.197 246.415 332.756 248.088 332.331 249.765C332.116 250.618 331.952 251.49 331.71 252.333C331.182 254.165 330.534 255.957 329.881 257.746C329.633 258.425 329.43 259.125 329.164 259.795C328.511 261.446 327.744 263.05 326.986 264.656C326.61 265.449 326.278 266.266 325.877 267.044C325.194 268.378 324.409 269.661 323.652 270.957C323.057 271.971 322.502 273.01 321.865 273.995C321.233 274.977 320.521 275.908 319.847 276.863C318.976 278.092 318.129 279.34 317.194 280.517C316.653 281.199 316.051 281.835 315.488 282.501C314.335 283.861 313.186 285.228 311.947 286.51C311.455 287.019 310.913 287.484 310.406 287.982C309.039 289.325 307.666 290.664 306.207 291.909C305.541 292.477 304.815 292.986 304.128 293.534C302.776 294.615 301.434 295.708 300.013 296.703C298.171 297.988 296.245 299.183 294.275 300.326C293.963 300.508 293.674 300.722 293.36 300.899C290.964 302.247 288.478 303.49 285.904 304.614C283.354 305.728 280.777 306.696 278.183 307.532C277.56 307.732 276.908 307.865 276.278 308.051C274.351 308.621 272.422 309.174 270.481 309.595C268.519 310.017 266.513 310.316 264.5 310.595C263.87 310.683 263.241 310.827 262.611 310.9C259.903 311.21 257.156 311.394 254.372 311.434C251.564 311.474 248.788 311.37 246.049 311.132C245.677 311.099 245.313 311.021 244.941 310.982C242.688 310.755 240.452 310.465 238.255 310.059C236.542 309.738 234.859 309.296 233.172 308.867C232.33 308.654 231.468 308.492 230.637 308.253C228.793 307.722 226.989 307.07 225.188 306.411C224.521 306.167 223.835 305.968 223.176 305.707C221.519 305.052 219.908 304.282 218.296 303.52C217.509 303.146 216.697 302.816 215.923 302.418C214.583 301.732 213.296 300.945 211.994 300.184C210.986 299.592 209.953 299.04 208.973 298.407C207.984 297.771 207.046 297.054 206.084 296.374C204.862 295.508 203.623 294.667 202.452 293.737C201.76 293.189 201.114 292.578 200.438 292.007C199.088 290.861 197.731 289.722 196.458 288.491C195.94 287.991 195.467 287.439 194.961 286.924C193.625 285.564 192.295 284.198 191.056 282.748C190.488 282.08 189.977 281.353 189.427 280.665C188.348 279.315 187.256 277.974 186.263 276.556C184.975 274.71 183.777 272.78 182.632 270.806C182.453 270.498 182.241 270.213 182.065 269.903C180.717 267.507 179.475 265.021 178.35 262.447C177.236 259.896 176.268 257.317 175.431 254.723C175.238 254.119 175.109 253.488 174.929 252.878C174.352 250.931 173.795 248.981 173.369 247.02C172.946 245.056 172.647 243.047 172.368 241.032C172.28 240.406 172.137 239.781 172.064 239.155C171.754 236.446 171.57 233.698 171.531 230.914C171.491 228.105 171.595 225.328 171.833 222.588C171.863 222.245 171.935 221.91 171.97 221.568C172.198 219.285 172.493 217.023 172.905 214.798C173.224 213.094 173.665 211.421 174.09 209.744C174.305 208.891 174.469 208.019 174.711 207.176C175.239 205.344 175.887 203.552 176.54 201.763C176.788 201.084 176.991 200.384 177.257 199.714C177.908 198.068 178.673 196.469 179.429 194.867C179.808 194.068 180.142 193.246 180.546 192.462C181.23 191.126 182.015 189.842 182.773 188.545C183.365 187.535 183.919 186.5 184.553 185.518C185.189 184.53 185.905 183.593 186.584 182.631C187.451 181.406 188.294 180.163 189.226 178.99C189.766 178.308 190.369 177.672 190.932 177.006C192.085 175.646 193.233 174.279 194.473 172.997C194.966 172.486 195.511 172.019 196.019 171.52C197.384 170.179 198.755 168.843 200.211 167.6C200.881 167.03 201.609 166.518 202.3 165.968C203.65 164.889 204.99 163.797 206.409 162.803C208.256 161.515 210.186 160.317 212.162 159.171C212.467 158.993 212.751 158.783 213.059 158.608C215.455 157.26 217.942 156.017 220.516 154.893C223.067 153.779 225.645 152.811 228.24 151.975C228.849 151.78 229.485 151.649 230.101 151.468C232.043 150.892 233.988 150.337 235.943 149.912C237.884 149.495 239.869 149.199 241.86 148.922C242.512 148.83 243.162 148.682 243.814 148.607C246.521 148.297 249.267 148.113 252.05 148.074C254.857 148.034 257.634 148.138 260.373 148.376C260.752 148.41 261.122 148.489 261.5 148.528C263.746 148.755 265.973 149.043 268.163 149.448C269.873 149.768 271.553 150.21 273.235 150.637C274.084 150.852 274.951 151.015 275.789 151.255C277.628 151.785 279.427 152.435 281.222 153.091C281.893 153.336 282.584 153.538 283.247 153.8C284.904 154.455 286.512 155.224 288.123 155.986C288.912 156.36 289.724 156.691 290.499 157.09C291.836 157.775 293.121 158.56 294.42 159.319C295.431 159.911 296.466 160.466 297.448 161.1C298.437 161.736 299.375 162.454 300.337 163.133C301.559 163.998 302.798 164.84 303.969 165.77C304.661 166.318 305.307 166.929 305.983 167.5C307.333 168.646 308.69 169.786 309.963 171.016C310.481 171.516 310.955 172.068 311.46 172.583C312.796 173.943 314.126 175.308 315.365 176.759C315.933 177.427 316.444 178.154 316.994 178.842C318.073 180.192 319.165 181.533 320.158 182.951C321.446 184.797 322.644 186.727 323.789 188.701C323.968 189.009 324.18 189.294 324.356 189.605C325.705 192.001 326.946 194.487 328.071 197.061C329.185 199.612 330.153 202.191 330.99 204.785C331.183 205.39 331.313 206.023 331.493 206.635C332.07 208.58 332.625 210.529 333.052 212.487C333.473 214.442 333.77 216.441 334.048 218.447C334.137 219.084 334.282 219.719 334.356 220.356C334.666 223.064 334.85 225.811 334.889 228.595C334.929 231.404 334.825 234.181 334.587 236.921C334.558 237.264 334.486 237.599 334.451 237.941Z" fill="#775144"/>
<path d="M108.551 67.363L105.948 60.478L97.296 62.122C94.637 57.447 90.949 53.61 86.639 50.786L88.823 42.247L82.114 39.219L77.155 46.506C72.186 45.142 66.869 44.914 61.604 46.013L57.113 38.437L50.228 41.04L51.872 49.692C47.197 52.351 43.36 56.039 40.536 60.349L31.996 58.165L28.968 64.874L36.255 69.833C34.891 74.802 34.664 80.119 35.762 85.384L28.186 89.874L30.789 96.759L39.441 95.115C42.1 99.79 45.788 103.627 50.098 106.451L47.914 114.99L54.623 118.018L59.582 110.731C64.551 112.095 69.868 112.323 75.133 111.224L79.623 118.8L86.508 116.197L84.864 107.545C89.539 104.886 93.376 101.198 96.2 96.888L104.739 99.072L107.767 92.363L100.48 87.404C101.844 82.435 102.072 77.118 100.973 71.853L108.551 67.363ZM75.267 96.864C65.191 100.673 53.934 95.593 50.125 85.516C46.316 75.44 51.396 64.183 61.473 60.374C71.549 56.565 82.806 61.645 86.615 71.722C90.424 81.798 85.344 93.055 75.267 96.864ZM71.809 87.716C66.785 89.615 61.173 87.082 59.274 82.058C57.375 77.034 59.908 71.422 64.932 69.523C69.956 67.624 75.568 70.157 77.467 75.181C79.366 80.204 76.833 85.816 71.809 87.716Z" fill="#775144"/>
<path d="M478.564 333.53L478.567 324.76L475.107 323.925C474.643 322.18 473.951 320.53 473.066 319.004L474.927 315.964L468.727 309.76L465.686 311.619C464.161 310.734 462.51 310.04 460.766 309.575L459.933 306.114L451.163 306.111L450.328 309.571C448.583 310.035 446.933 310.727 445.407 311.612L442.367 309.752L436.163 315.952L438.022 318.993C437.137 320.519 436.443 322.169 435.978 323.913L432.517 324.746L432.514 333.516L435.974 334.351C436.438 336.096 437.13 337.746 438.015 339.272L436.154 342.312L442.354 348.516L445.395 346.657C446.921 347.542 448.571 348.236 450.315 348.701L451.148 352.162L459.918 352.165L460.753 348.705C462.498 348.241 464.148 347.549 465.674 346.664L468.714 348.524L474.918 342.324L473.059 339.283C473.944 337.757 474.638 336.107 475.103 334.363L478.564 333.53ZM455.538 336.782C451.316 336.781 447.895 333.357 447.896 329.135C447.897 324.913 451.321 321.492 455.543 321.493C459.765 321.494 463.186 324.918 463.185 329.14C463.183 333.362 459.76 336.784 455.538 336.782Z" fill="#775144"/>
<path d="M147.526 50.732L147.528 44.097L144.91 43.465C144.559 42.145 144.035 40.897 143.366 39.742L144.773 37.442L140.083 32.749L137.782 34.155C136.628 33.485 135.38 32.961 134.06 32.609L133.43 29.991L126.795 29.989L126.163 32.607C124.843 32.958 123.595 33.482 122.44 34.151L120.14 32.744L115.447 37.434L116.853 39.735C116.183 40.889 115.659 42.137 115.307 43.457L112.689 44.087L112.687 50.722L115.305 51.354C115.656 52.674 116.18 53.922 116.849 55.077L115.442 57.377L120.132 62.07L122.433 60.664C123.587 61.334 124.835 61.858 126.155 62.21L126.785 64.828L133.42 64.83L134.052 62.212C135.372 61.861 136.62 61.337 137.775 60.668L140.075 62.075L144.768 57.385L143.362 55.084C144.032 53.93 144.556 52.682 144.908 51.362L147.526 50.732ZM130.107 53.192C126.913 53.191 124.325 50.601 124.326 47.407C124.327 44.213 126.917 41.625 130.111 41.626C133.305 41.627 135.893 44.217 135.892 47.411C135.891 50.605 133.301 53.193 130.107 53.192Z" fill="#775144"/>
<path d="M84.7219 249.184C80.3359 257.971 68.5659 254.225 67.0679 254.019C59.3369 252.956 44.1319 242.026 44.1319 242.026C40.0399 239.499 41.9679 236.093 43.2919 236.613C43.9109 236.921 41.0299 235.27 40.4489 234.913C35.4319 231.574 38.8739 228.264 41.1639 229.038C36.8669 227.128 38.6519 222.282 41.5139 223.3C38.5929 221.594 40.4129 217.228 45.1139 218.943C47.8009 219.67 68.7189 229.225 68.7189 229.225C69.4979 227.309 61.2859 223.754 62.6569 218.81C62.9219 218.333 63.4279 218.298 63.8159 218.468C75.5239 225.233 80.0189 232.426 81.8039 234.788C84.4999 238.358 87.3609 243.895 84.7219 249.184Z" fill="#FCA886"/>
<path d="M43.5665 236.55L43.2515 237.231L55.6933 242.989L56.0083 242.308L43.5665 236.55Z" fill="#602320"/>
<path d="M41.3594 228.822L41.0195 229.49L57.234 237.744L57.5738 237.077L41.3594 228.822Z" fill="#602320"/>
<path d="M41.7697 222.943L41.4456 223.618L59.5964 232.332L59.9205 231.657L41.7697 222.943Z" fill="#602320"/>
<path d="M55.7819 244.805L55.0439 244.675C55.7879 240.462 57.6079 235.526 60.6069 229.587L61.2769 229.925C58.3099 235.797 56.5139 240.665 55.7819 244.805Z" fill="#602320"/>
<path d="M72.5648 243.397C65.8398 237.725 68.3328 229.2 68.3598 229.115L69.0768 229.333C69.0528 229.414 66.7078 237.476 73.0498 242.824L72.5648 243.397Z" fill="#602320"/>
<path d="M122.78 276.764C110.452 284.188 107.717 297.437 119.742 307.054C124.083 310.525 129.886 311.928 135.604 311.336L135.965 311.299C137.055 311.165 137.961 311 138.832 310.784L208.204 291.39C212.527 290.87 216.542 289.4 220.111 287.031C230.205 280.329 234.719 270.347 230.081 259.748C225.269 248.753 215.088 245.794 203.062 248.074L202.859 248.114C201.587 248.371 200.425 248.681 199.335 249.052L130.42 273.809L130.423 273.842L129.525 274.061C127.107 274.615 124.838 275.525 122.78 276.764Z" fill="#E1D1CB"/>
<path d="M75.185 262.146L92.137 242.599L85.214 236.595C83.822 242.241 71.522 254.88 68.262 256.142L75.185 262.146Z" fill="#E1D1CB"/>
<path d="M137.645 270.96C120.47 258.359 98.701 237.742 90.923 241.54L74.7 261.774C71.868 269.363 101.825 291.023 119.107 306.62C139.58 322.946 166.524 293.094 137.645 270.96Z" fill="#E1D1CB"/>
<path d="M74.7819 262.141L74.6179 261.409C79.4629 260.324 89.9629 248.047 90.5499 241.508L91.2959 241.575C90.6749 248.498 79.9369 260.986 74.7819 262.141Z" fill="#602320"/>
<path d="M134.844 277.587L134.188 277.224L137.467 271.302C137.545 271.161 137.697 271.085 137.861 271.114C138.018 271.141 138.141 271.266 138.166 271.425L139.101 277.364L138.361 277.481L137.595 272.62L134.844 277.587Z" fill="#602320"/>
<path d="M56.0908 243.159C56.3698 237.197 67.6838 234.241 69.4988 223.189C70.0108 219.166 68.2888 217.082 68.2888 217.082H54.4118H52.6458H38.7688C38.7688 217.082 37.0458 219.166 37.5588 223.189C39.3748 234.24 50.6878 237.197 50.9668 243.159C51.2458 249.121 33.7638 252.288 38.2488 269.139H50.6448H56.4148H68.4998C72.9838 252.287 55.8118 249.121 56.0908 243.159Z" fill="#E1D1CB"/>
<path d="M70.2319 213.47H36.8259V217.438H70.2319V213.47Z" fill="#E0654A"/>
<path d="M71.7888 210.958H35.2688V213.469H71.7888V210.958Z" fill="#E0654A"/>
<path d="M36.8259 272.751H70.2319V268.783H36.8259V272.751Z" fill="#E0654A"/>
<path d="M35.2688 275.262H71.7888V272.751H35.2688V275.262Z" fill="#E0654A"/>
<path d="M70.2319 272.376H36.8259V273.126H70.2319V272.376Z" fill="#602320"/>
<path d="M70.2319 213.095H36.8259V213.845H70.2319V213.095Z" fill="#602320"/>
<path d="M67.427 261.392L64.146 259.897C58.893 257.503 55.3189 252.632 54.7569 247.064C54.5829 245.342 54.4769 243.872 54.5129 243.091C54.6639 239.866 57.255 237.512 59.997 235.019C60.99 234.117 62.0219 233.176 63.0059 232.148H44.0489C45.0329 233.175 46.0659 234.116 47.0589 235.019C49.8009 237.511 52.3919 239.866 52.5429 243.091C52.5779 243.837 52.4709 245.195 52.2939 246.793C51.6619 252.508 47.988 257.499 42.58 259.936L39.3469 261.392C39.0079 263.201 39.0019 265.247 39.5029 267.62H67.2429C67.7469 265.247 67.751 263.2 67.427 261.392Z" fill="#E0654A"/>
<path d="M59.2358 229.253L69.1668 231.992C70.7628 232.25 74.5228 226.395 74.5228 226.395C74.5228 226.395 72.8898 224.532 69.6558 224.186L58.3408 222.871C56.4678 222.699 55.7968 223.013 55.5668 223.711C55.3368 224.41 54.7718 227.975 59.2358 229.253Z" fill="#FCA886"/>
<path d="M58.4818 225.007C57.8798 225.007 57.1448 224.908 56.2478 224.655L56.4508 223.933C59.8038 224.877 60.3788 223.45 60.3838 223.435L61.0948 223.674C61.0718 223.743 60.6288 225.007 58.4818 225.007Z" fill="#602320"/>
<path d="M422.903 249.184C427.289 257.971 439.059 254.225 440.557 254.019C448.288 252.956 463.493 242.026 463.493 242.026C467.585 239.499 465.657 236.093 464.333 236.613C463.714 236.921 466.595 235.27 467.177 234.913C472.194 231.574 468.752 228.264 466.462 229.038C470.759 227.128 468.974 222.282 466.112 223.3C469.033 221.594 467.213 217.228 462.512 218.943C459.825 219.67 438.907 229.225 438.907 229.225C438.128 227.309 434.147 225.134 431.348 228.017C428.379 231.076 426.742 233.572 425.823 234.788C423.125 238.358 420.264 243.895 422.903 249.184Z" fill="#FCA886"/>
<path d="M464.031 236.543L451.586 242.291L451.901 242.972L464.346 237.224L464.031 236.543Z" fill="#602320"/>
<path d="M466.273 228.819L450.056 237.069L450.396 237.736L466.613 229.487L466.273 228.819Z" fill="#602320"/>
<path d="M465.865 222.976L447.712 231.686L448.037 232.362L466.19 223.652L465.865 222.976Z" fill="#602320"/>
<path d="M451.843 244.805C451.114 240.667 449.317 235.8 446.349 229.924L447.019 229.586C450.02 235.528 451.839 240.463 452.582 244.675L451.843 244.805Z" fill="#602320"/>
<path d="M435.061 243.397L434.577 242.824C440.929 237.467 438.573 229.414 438.549 229.333L439.266 229.115C439.291 229.2 441.784 237.725 435.061 243.397Z" fill="#602320"/>
<path d="M384.845 276.764C397.173 284.188 399.908 297.437 387.883 307.054C383.542 310.525 377.739 311.928 372.021 311.336L371.66 311.299C370.57 311.165 369.664 311 368.793 310.784L299.421 291.39C295.098 290.87 291.083 289.4 287.514 287.031C277.42 280.329 272.906 270.347 277.544 259.748C282.356 248.753 292.537 245.794 304.563 248.074L304.766 248.114C306.038 248.371 307.2 248.681 308.29 249.052L377.205 273.809L377.202 273.842L378.1 274.061C380.518 274.615 382.787 275.525 384.845 276.764Z" fill="#E1D1CB"/>
<path d="M432.44 262.146L415.487 242.599L422.41 236.595C423.802 242.241 436.102 254.88 439.362 256.142L432.44 262.146Z" fill="#E1D1CB"/>
<path d="M369.98 270.96C387.155 258.359 408.924 237.742 416.702 241.54L432.925 261.773C435.757 269.362 405.8 291.022 388.518 306.619C368.045 322.946 341.101 293.094 369.98 270.96Z" fill="#E1D1CB"/>
<path d="M432.844 262.141C427.689 260.987 416.95 248.498 416.329 241.575L417.075 241.508C417.662 248.048 428.162 260.324 433.008 261.409L432.844 262.141Z" fill="#602320"/>
<path d="M372.782 277.587L370.031 272.62L369.265 277.481L368.525 277.364L369.46 271.425C369.484 271.267 369.607 271.142 369.765 271.114C369.927 271.084 370.08 271.161 370.158 271.302L373.438 277.224L372.782 277.587Z" fill="#602320"/>
<path d="M469.632 257.853H443.758L439.586 207.971H473.805L469.632 257.853Z" fill="white"/>
<path d="M471.267 245.106L473.605 220.717H439.786L442.124 245.106H471.267Z" fill="#E0654A"/>
<path d="M475.114 209.269L474.781 207.035C474.698 206.479 474.289 206.074 473.81 206.074H439.38C438.915 206.074 438.517 206.468 438.436 207.007L438.099 209.269H475.114Z" fill="#602320"/>
<path d="M472.007 206.596L471.727 203.107C471.661 202.286 471.061 201.657 470.342 201.657H442.968C442.194 201.657 441.548 202.333 441.477 203.217L441.206 206.596H472.007Z" fill="#602320"/>
<path d="M461.229 241.319C456.593 241.319 452.822 237.548 452.822 232.911C452.822 228.275 456.593 224.504 461.229 224.504C465.865 224.504 469.636 228.275 469.636 232.911C469.637 237.548 465.865 241.319 461.229 241.319ZM461.229 225.254C457.006 225.254 453.572 228.689 453.572 232.911C453.572 237.134 457.007 240.569 461.229 240.569C465.452 240.569 468.886 237.134 468.886 232.911C468.887 228.689 465.452 225.254 461.229 225.254Z" fill="#602320"/>
<path d="M461.229 238.145C458.344 238.145 455.997 235.797 455.997 232.912C455.997 230.027 458.345 227.679 461.229 227.679V228.429C458.757 228.429 456.747 230.44 456.747 232.912C456.747 235.384 458.758 237.395 461.229 237.395C463.701 237.395 465.712 235.384 465.712 232.912H466.462C466.463 235.797 464.115 238.145 461.229 238.145Z" fill="#602320"/>
<path d="M446.561 230.944L436.63 233.683C435.034 233.941 431.274 228.086 431.274 228.086C431.274 228.086 432.907 226.223 436.141 225.878L447.455 224.563C449.329 224.391 449.999 224.705 450.229 225.403C450.459 226.101 451.026 229.666 446.561 230.944Z" fill="#FCA886"/>
<path d="M447.315 226.697C445.167 226.697 444.725 225.433 444.703 225.364L445.414 225.125C445.419 225.14 445.99 226.566 449.347 225.623L449.55 226.345C448.652 226.598 447.917 226.697 447.315 226.697Z" fill="#602320"/>
<path d="M392.54 364.511C386.941 372.58 395.882 381.102 396.782 382.316C401.429 388.586 418.32 396.668 418.32 396.668C422.502 399.042 424.563 395.715 423.47 394.804C422.902 394.409 425.735 396.142 426.327 396.481C431.666 399.277 432.915 394.668 431.136 393.031C434.876 395.881 438.268 391.988 436 389.967C438.9 391.709 441.854 388.015 438.091 384.716C436.162 382.709 417.732 368.955 417.732 368.955C419.038 367.351 426.101 372.845 429.779 369.267C430.07 368.806 429.858 368.345 429.522 368.086C417.964 361.069 409.496 360.582 406.566 360.152C402.141 359.504 395.91 359.655 392.54 364.511Z" fill="#FCA886"/>
<path d="M412.371 386.364L411.925 386.968L422.953 395.113L423.399 394.51L412.371 386.364Z" fill="#602320"/>
<path d="M416.234 382.515L415.812 383.134L430.842 393.388L431.265 392.77L416.234 382.515Z" fill="#602320"/>
<path d="M419.835 377.866L419.398 378.475L435.761 390.208L436.198 389.598L419.835 377.866Z" fill="#602320"/>
<path d="M410.755 388.373L410.286 387.787C413.565 385.156 416.97 381.241 420.695 375.819L421.314 376.243C417.547 381.728 414.093 385.694 410.755 388.373Z" fill="#602320"/>
<path d="M408.144 373.286C406.682 373.286 405.109 373.03 403.456 372.391L403.726 371.692C411.46 374.682 417.408 368.753 417.467 368.692L418.002 369.217C417.952 369.269 413.937 373.286 408.144 373.286Z" fill="#602320"/>
<path d="M349.684 340.375C352.44 354.499 344.443 365.411 329.245 362.935C323.759 362.041 318.828 358.676 315.434 354.036L315.219 353.743C314.588 352.845 314.102 352.062 313.679 351.27L281.564 286.794C279.052 283.238 277.451 279.273 276.816 275.036C275.022 263.053 279.403 253.011 290.377 249.348C301.761 245.548 310.782 251.118 317.152 261.57L317.258 261.747C317.92 262.864 318.469 263.933 318.924 264.991L346.754 332.723L346.728 332.743L347.168 333.556C348.379 335.724 349.225 338.018 349.684 340.375Z" fill="#E1D1CB"/>
<path d="M385.754 379.103L394.751 354.844L403.342 358.03C399.059 361.964 393.885 378.824 394.345 382.289L385.754 379.103Z" fill="#E1D1CB"/>
<path d="M348.013 328.561C367.316 337.569 395.857 346.754 396.263 355.4L386.313 379.35C381.018 385.481 347.629 369.615 325.646 361.953C301.491 351.842 314.725 313.868 348.013 328.561Z" fill="#E1D1CB"/>
<path d="M385.953 379.453C384.488 374.377 390.28 358.96 396.055 355.089L396.473 355.712C391.02 359.368 385.297 374.475 386.674 379.246L385.953 379.453Z" fill="#602320"/>
<path d="M340.372 333.478L339.749 333.062L343.244 327.83L338.439 329.444L338.201 328.733L344.047 326.768C344.196 326.715 344.366 326.768 344.464 326.896C344.562 327.023 344.568 327.199 344.478 327.331L340.372 333.478Z" fill="#602320"/>
<path d="M326.787 285.446L326.109 285.767L333.382 301.135L334.06 300.815L326.787 285.446Z" fill="#602320"/>
<path d="M474.502 385.955L420.431 367.815C418.047 367.015 415.466 368.299 414.666 370.684L401.052 411.263C400.252 413.647 401.537 416.228 403.921 417.028L457.992 435.168C460.376 435.968 462.957 434.684 463.757 432.299L477.371 391.72C478.171 389.336 476.887 386.754 474.502 385.955Z" fill="white"/>
<path d="M482.14 377.543L419.433 356.504L414.647 370.768L477.354 391.807L482.14 377.543Z" fill="#5B78C8"/>
<path d="M425.691 363.464C424.817 363.171 424.342 362.216 424.635 361.341L426.515 355.736C426.808 354.862 427.763 354.387 428.638 354.68C429.512 354.973 429.987 355.928 429.694 356.803L427.814 362.408C427.521 363.282 426.565 363.757 425.691 363.464Z" fill="#E1D1CB"/>
<path d="M437.501 367.426C436.627 367.133 436.152 366.177 436.445 365.303L438.325 359.698C438.618 358.824 439.573 358.349 440.448 358.642C441.322 358.935 441.797 359.89 441.504 360.764L439.624 366.369C439.33 367.244 438.375 367.719 437.501 367.426Z" fill="#E1D1CB"/>
<path d="M449.311 371.388C448.437 371.095 447.962 370.14 448.255 369.265L450.135 363.66C450.428 362.786 451.384 362.311 452.258 362.604C453.132 362.897 453.607 363.852 453.314 364.727L451.434 370.332C451.14 371.206 450.185 371.681 449.311 371.388Z" fill="#E1D1CB"/>
<path d="M461.121 375.35C460.247 375.057 459.771 374.102 460.065 373.228L461.945 367.623C462.238 366.749 463.193 366.274 464.067 366.567C464.941 366.86 465.416 367.815 465.123 368.689L463.243 374.294C462.95 375.168 461.995 375.643 461.121 375.35Z" fill="#E1D1CB"/>
<path d="M472.931 379.312C472.057 379.019 471.582 378.064 471.875 377.189L473.755 371.584C474.048 370.71 475.003 370.235 475.878 370.528C476.752 370.821 477.227 371.776 476.934 372.651L475.054 378.255C474.76 379.13 473.805 379.605 472.931 379.312Z" fill="#E1D1CB"/>
<path d="M433.963 382.848L432.528 387.123L436.803 388.557L438.238 384.282L433.963 382.848Z" fill="#E1D1CB"/>
<path d="M442.188 385.604L440.754 389.879L445.029 391.314L446.463 387.039L442.188 385.604Z" fill="#E1D1CB"/>
<path d="M450.413 388.361L448.979 392.636L453.254 394.07L454.688 389.795L450.413 388.361Z" fill="#E1D1CB"/>
<path d="M458.645 391.128L457.21 395.403L461.485 396.837L462.919 392.562L458.645 391.128Z" fill="#E0654A"/>
<path d="M466.868 393.88L465.433 398.155L469.708 399.59L471.143 395.315L466.868 393.88Z" fill="#E0654A"/>
<path d="M407.164 408.147L405.729 412.422L410.004 413.856L411.439 409.581L407.164 408.147Z" fill="#E1D1CB"/>
<path d="M415.395 410.914L413.96 415.189L418.235 416.624L419.67 412.349L415.395 410.914Z" fill="#E1D1CB"/>
<path d="M423.622 413.674L422.188 417.949L426.463 419.383L427.897 415.108L423.622 413.674Z" fill="#E1D1CB"/>
<path d="M431.851 416.438L430.417 420.713L434.692 422.147L436.126 417.872L431.851 416.438Z" fill="#E1D1CB"/>
<path d="M414.925 385.038L413.49 389.313L417.765 390.747L419.2 386.472L414.925 385.038Z" fill="#E1D1CB"/>
<path d="M423.144 387.784L421.71 392.059L425.985 393.493L427.419 389.218L423.144 387.784Z" fill="#E1D1CB"/>
<path d="M431.377 390.554L429.943 394.829L434.218 396.264L435.652 391.989L431.377 390.554Z" fill="#E1D1CB"/>
<path d="M439.601 393.307L438.166 397.582L442.441 399.016L443.876 394.741L439.601 393.307Z" fill="#E1D1CB"/>
<path d="M447.829 396.067L446.395 400.342L450.67 401.776L452.104 397.501L447.829 396.067Z" fill="#E1D1CB"/>
<path d="M456.06 398.834L454.626 403.109L458.901 404.544L460.335 400.269L456.06 398.834Z" fill="#E0654A"/>
<path d="M464.288 401.594L462.853 405.869L467.128 407.304L468.563 403.029L464.288 401.594Z" fill="#E0654A"/>
<path d="M412.334 392.735L410.9 397.01L415.175 398.444L416.609 394.169L412.334 392.735Z" fill="#E1D1CB"/>
<path d="M420.565 395.502L419.131 399.777L423.406 401.211L424.84 396.936L420.565 395.502Z" fill="#E1D1CB"/>
<path d="M428.793 398.262L427.358 402.537L431.633 403.971L433.068 399.696L428.793 398.262Z" fill="#E1D1CB"/>
<path d="M437.022 401.025L435.588 405.3L439.863 406.735L441.297 402.46L437.022 401.025Z" fill="#E1D1CB"/>
<path d="M445.251 403.789L443.817 408.064L448.092 409.498L449.526 405.223L445.251 403.789Z" fill="#E1D1CB"/>
<path d="M453.475 406.541L452.041 410.816L456.316 412.25L457.75 407.975L453.475 406.541Z" fill="#E0654A"/>
<path d="M461.702 409.301L460.268 413.576L464.543 415.011L465.977 410.736L461.702 409.301Z" fill="#E0654A"/>
<path d="M409.756 400.455L408.322 404.73L412.597 406.165L414.031 401.89L409.756 400.455Z" fill="#E1D1CB"/>
<path d="M417.98 403.208L416.546 407.483L420.821 408.917L422.255 404.642L417.98 403.208Z" fill="#E1D1CB"/>
<path d="M426.207 405.968L424.773 410.243L429.048 411.677L430.482 407.402L426.207 405.968Z" fill="#E1D1CB"/>
<path d="M434.439 408.735L433.004 413.01L437.279 414.445L438.714 410.17L434.439 408.735Z" fill="#E1D1CB"/>
<path d="M442.658 411.48L441.224 415.755L445.499 417.19L446.933 412.915L442.658 411.48Z" fill="#E1D1CB"/>
<path d="M450.889 414.248L449.455 418.523L453.73 419.957L455.164 415.682L450.889 414.248Z" fill="#E0654A"/>
<path d="M459.119 417.011L457.685 421.286L461.96 422.721L463.394 418.446L459.119 417.011Z" fill="#E0654A"/>
<path d="M432.501 394.783C432.468 394.783 432.435 394.779 432.402 394.77C432.288 394.739 432.195 394.656 432.152 394.545L431.348 392.507L432.045 392.232L432.665 393.803L436.221 391.021L436.684 391.611L432.732 394.703C432.665 394.756 432.584 394.783 432.501 394.783Z" fill="black"/>
<path d="M419.431 407.341C419.398 407.341 419.365 407.337 419.332 407.328C419.218 407.297 419.125 407.214 419.082 407.103L418.278 405.065L418.975 404.79L419.595 406.361L423.151 403.579L423.614 404.169L419.662 407.261C419.595 407.314 419.514 407.341 419.431 407.341Z" fill="black"/>
<path d="M435.916 412.928C435.883 412.928 435.85 412.924 435.817 412.915C435.703 412.884 435.61 412.801 435.567 412.69L434.763 410.652L435.46 410.377L436.08 411.948L439.636 409.166L440.099 409.756L436.147 412.848C436.08 412.9 435.999 412.928 435.916 412.928Z" fill="black"/>
<path d="M451.588 392.664C451.555 392.664 451.522 392.66 451.489 392.651C451.375 392.62 451.282 392.537 451.239 392.426L450.435 390.387L451.132 390.112L451.752 391.683L455.308 388.901L455.771 389.491L451.819 392.584C451.752 392.637 451.671 392.664 451.588 392.664Z" fill="black"/>
<path d="M421.327 376.249L412.871 370.366C411.652 369.304 413.749 362.669 413.749 362.669C413.749 362.669 416.226 362.733 418.559 364.998L426.806 372.855C428.136 374.186 428.323 374.902 427.934 375.525C427.545 376.149 425.165 378.863 421.327 376.249Z" fill="#FCA886"/>
<path d="M426.772 375.604C423.263 373.191 424.378 371.33 424.427 371.252L425.066 371.645C425.058 371.659 424.327 373.012 427.198 374.987L426.772 375.604Z" fill="#602320"/>
<path d="M155.081 155.224C148.518 162.53 138.166 155.79 136.777 155.194C129.606 152.115 117.853 137.538 117.853 137.538C114.58 134.014 117.344 131.243 118.482 132.097C118.997 132.559 116.658 130.201 116.192 129.702C112.243 125.149 116.44 122.874 118.442 124.228C114.807 121.245 117.815 117.048 120.304 118.789C117.942 116.368 120.856 112.643 124.933 115.545C127.33 116.96 144.957 131.73 144.957 131.73C146.217 130.09 139.245 124.481 141.88 120.078C142.262 119.689 142.76 119.789 143.088 120.056C152.577 129.689 155 137.817 156.092 140.569C157.743 144.729 159.031 150.827 155.081 155.224Z" fill="#FCA886"/>
<path d="M118.765 132.101L118.281 132.673L128.746 141.53L129.23 140.957L118.765 132.101Z" fill="#602320"/>
<path d="M118.686 124.064L118.18 124.618L131.618 136.884L132.124 136.33L118.686 124.064Z" fill="#602320"/>
<path d="M120.645 118.513L120.152 119.079L135.335 132.303L135.828 131.737L120.645 118.513Z" fill="#602320"/>
<path d="M128.346 143.313L127.668 142.991C129.505 139.126 132.57 134.851 137.041 129.923L137.596 130.427C133.176 135.3 130.15 139.515 128.346 143.313Z" fill="#602320"/>
<path d="M144.898 146.415C139.922 139.16 144.592 131.605 144.639 131.529L145.274 131.93C145.229 132.001 140.825 139.151 145.517 145.991L144.898 146.415Z" fill="#602320"/>
<path d="M148.163 208.072C134.531 203.461 122.652 209.934 123.083 225.326C123.239 230.882 125.918 236.217 130.065 240.198L130.327 240.45C131.133 241.195 131.845 241.781 132.573 242.305L192.201 282.717C195.391 285.68 199.107 287.795 203.222 288.988C214.859 292.362 225.395 289.356 230.486 278.967C235.768 268.19 231.448 258.508 221.937 250.803L221.775 250.674C220.756 249.869 219.769 249.183 218.782 248.591L155.357 211.992L155.334 212.015L154.586 211.471C152.598 209.986 150.438 208.842 148.163 208.072Z" fill="#E1D1CB"/>
<path d="M131.045 161.832L156.88 163.245L157.38 154.095C152.066 156.457 134.54 154.485 131.544 152.682L131.045 161.832Z" fill="#E1D1CB"/>
<path d="M162.366 216.585C161.794 195.291 164.741 165.453 156.972 161.636L131.041 161.22C123.308 163.634 124.558 200.58 122.828 223.795C122.478 249.98 162.58 252.97 162.366 216.585Z" fill="#E1D1CB"/>
<path d="M144.741 164.421C138.897 164.421 133.017 163.34 130.802 161.509L131.281 160.931C135.107 164.095 151.245 164.866 156.77 161.321L157.174 161.952C154.507 163.663 149.636 164.421 144.741 164.421Z" fill="#602320"/>
<path d="M160.77 219.507L160.141 219.099L161.648 216.78C159.942 217.294 157.899 217.916 157.708 217.997L157.336 217.349C157.394 217.31 157.502 217.237 162.411 215.768C162.559 215.722 162.725 215.776 162.818 215.903C162.913 216.029 162.919 216.2 162.833 216.332L160.77 219.507Z" fill="#602320"/>
<path d="M184.177 277.733L161.088 262.085L161.508 261.464L184.597 277.112L184.177 277.733Z" fill="#602320"/>
<path d="M122.656 160.538L101.344 147.022C99.4309 145.809 98.8589 143.252 100.072 141.339L129.647 94.703C130.86 92.79 133.417 92.218 135.33 93.431L156.642 106.947C158.555 108.16 159.127 110.717 157.914 112.63L128.339 159.266C127.126 161.178 124.569 161.751 122.656 160.538Z" fill="#164C78"/>
<path d="M153.398 115.542L128.938 100.029L104.579 138.437L129.039 153.95L153.398 115.542Z" fill="white"/>
<path d="M140.606 102.174L140.204 102.809L146.073 106.53L146.476 105.896L140.606 102.174Z" fill="white"/>
<path d="M114.431 152.718C113.922 152.718 113.408 152.579 112.947 152.287C112.321 151.89 111.886 151.271 111.724 150.547C111.562 149.822 111.692 149.078 112.089 148.452C112.486 147.825 113.104 147.39 113.828 147.228C114.557 147.065 115.297 147.196 115.924 147.594C116.155 147.74 116.364 147.92 116.542 148.128L115.974 148.616C115.844 148.465 115.693 148.335 115.523 148.228C115.066 147.937 114.523 147.842 113.993 147.961C113.464 148.08 113.013 148.397 112.722 148.854C112.123 149.799 112.404 151.055 113.349 151.654C114.293 152.255 115.551 151.971 116.15 151.028C116.271 150.837 116.358 150.63 116.409 150.416L117.139 150.589C117.069 150.885 116.949 151.168 116.784 151.43C116.254 152.262 115.351 152.718 114.431 152.718Z" fill="white"/>
<path d="M356.081 159.731C364.487 164.81 372.428 155.35 373.584 154.375C379.548 149.342 386.55 131.975 386.55 131.975C388.656 127.651 385.205 125.805 384.365 126.952C384.006 127.543 385.558 124.607 385.858 123.995C388.311 118.49 383.633 117.534 382.112 119.413C384.721 115.501 380.622 112.361 378.747 114.751C380.302 111.747 376.43 109.032 373.375 112.995C371.494 115.047 358.929 134.307 358.929 134.307C357.246 133.105 362.284 125.709 358.481 122.264C358.002 122.003 357.555 122.244 357.319 122.595C351.044 134.573 351.093 143.054 350.848 146.005C350.479 150.465 351.023 156.674 356.081 159.731Z" fill="#FCA886"/>
<path d="M384.085 127.042L376.661 138.567L377.292 138.973L384.715 127.448L384.085 127.042Z" fill="#602320"/>
<path d="M381.858 119.327L372.565 134.971L373.21 135.354L382.502 119.71L381.858 119.327Z" fill="#602320"/>
<path d="M378.341 114.594L367.68 131.674L368.317 132.071L378.978 114.992L378.341 114.594Z" fill="#602320"/>
<path d="M378.192 140.553C375.362 137.447 371.24 134.295 365.591 130.918L365.976 130.274C371.689 133.689 375.866 136.886 378.746 140.048L378.192 140.553Z" fill="#602320"/>
<path d="M363.258 148.34L362.543 148.115C365.041 140.204 358.747 134.646 358.684 134.591L359.174 134.023C359.241 134.081 365.907 139.95 363.258 148.34Z" fill="#602320"/>
<path d="M359.462 208.072C373.094 203.461 384.973 209.934 384.542 225.326C384.386 230.882 381.707 236.217 377.56 240.198L377.298 240.45C376.492 241.195 375.78 241.781 375.052 242.305L315.424 282.717C312.234 285.68 308.518 287.795 304.403 288.988C292.766 292.362 282.23 289.356 277.139 278.967C271.857 268.19 276.177 258.508 285.688 250.803L285.849 250.674C286.868 249.869 287.855 249.183 288.842 248.591L352.267 211.992L352.29 212.015L353.038 211.471C355.027 209.986 357.187 208.842 359.462 208.072Z" fill="#E1D1CB"/>
<path d="M376.581 161.832L350.745 163.245L350.245 154.095C355.559 156.457 373.085 154.485 376.081 152.682L376.581 161.832Z" fill="#E1D1CB"/>
<path d="M345.259 216.585C345.831 195.291 342.884 165.453 350.653 161.636L376.584 161.22C384.317 163.634 383.067 200.58 384.797 223.795C385.147 249.98 345.045 252.97 345.259 216.585Z" fill="#E1D1CB"/>
<path d="M362.884 164.421C357.988 164.421 353.118 163.663 350.451 161.951L350.855 161.32C356.382 164.865 372.519 164.093 376.344 160.93L376.822 161.508C374.607 163.341 368.728 164.421 362.884 164.421Z" fill="#602320"/>
<path d="M346.854 219.507L344.79 216.331C344.704 216.199 344.71 216.028 344.805 215.902C344.899 215.776 345.064 215.722 345.212 215.767C350.12 217.236 350.229 217.308 350.287 217.347L350.079 217.659L349.917 217.996C349.726 217.915 347.683 217.293 345.976 216.779L347.483 219.098L346.854 219.507Z" fill="#602320"/>
<path d="M345.188 262.077L324.087 275.881L324.497 276.508L345.598 262.704L345.188 262.077Z" fill="#602320"/>
<path d="M396.405 135.448H361.835C358.904 135.448 356.528 133.072 356.528 130.141V97.453C356.528 94.522 358.904 92.146 361.835 92.146H396.405C399.336 92.146 401.712 94.522 401.712 97.453V130.141C401.712 133.072 399.336 135.448 396.405 135.448Z" fill="white"/>
<path d="M393.723 132.463H364.518C361.839 132.463 359.66 130.283 359.66 127.605V99.99C359.66 97.311 361.84 95.132 364.518 95.132H393.723C396.402 95.132 398.581 97.312 398.581 99.99V127.605C398.581 130.284 396.401 132.463 393.723 132.463ZM364.518 95.881C362.252 95.881 360.41 97.724 360.41 99.989V127.604C360.41 129.87 362.253 131.712 364.518 131.712H393.723C395.989 131.712 397.831 129.869 397.831 127.604V99.99C397.831 97.724 395.988 95.882 393.723 95.882H364.518V95.881Z" fill="#602320"/>
<path d="M380.903 127.344L362.339 109.939L368.809 103.039L380.015 113.545L399.959 89.33L407.26 95.344L380.903 127.344Z" fill="#775144"/>
<path d="M367.722 130.256L360.316 137.416C359.039 138.406 352.934 135.067 352.934 135.067C352.934 135.067 353.475 132.649 356.149 130.797L365.452 124.224C367.015 123.176 367.753 123.131 368.29 123.633C368.826 124.136 371.029 126.996 367.722 130.256Z" fill="#FCA886"/>
<path d="M364.661 126.658C363.871 126.658 363.453 126.28 363.419 126.248L363.929 125.698C363.94 125.709 365.127 126.687 367.619 124.252L368.142 124.788C366.618 126.278 365.453 126.658 364.661 126.658Z" fill="#602320"/>
<path d="M251.451 131.305C248.184 131.305 245.511 128.632 245.511 125.365V123.298C245.511 120.031 248.184 117.358 251.451 117.358C254.718 117.358 257.391 120.031 257.391 123.298V125.365C257.391 128.632 254.718 131.305 251.451 131.305Z" fill="#602320"/>
<path d="M256.66 125.66H246.242C244.448 125.66 242.98 124.192 242.98 122.398V109.032C242.98 107.238 244.448 105.77 246.242 105.77H256.66C258.454 105.77 259.922 107.238 259.922 109.032V122.398C259.923 124.192 258.455 125.66 256.66 125.66Z" fill="#602320"/>
<path d="M276.936 79.531C276.936 65.038 264.837 53.37 250.188 54.077C237.772 54.676 227.362 64.494 226.103 76.86C225.246 85.282 228.498 92.965 234.092 98.169C237.694 101.519 239.704 106.238 239.704 111.157C239.704 113.829 241.89 116.015 244.562 116.015H258.34C261.012 116.015 263.198 113.829 263.198 111.157V110.439C263.198 105.74 265.341 101.388 268.786 98.191C273.797 93.542 276.936 86.907 276.936 79.531Z" fill="#FFC43C"/>
<path d="M257.798 61.712C256.72 61.348 255.599 61.086 254.465 60.934L254.731 58.952C255.992 59.121 257.239 59.412 258.439 59.818L257.798 61.712Z" fill="#E1D1CB"/>
<path d="M269.338 74.044C268.178 69.668 265.418 65.924 261.566 63.503L262.63 61.81C266.912 64.502 269.982 68.664 271.272 73.532L269.338 74.044Z" fill="#E1D1CB"/>
<path d="M251.826 87.521H251.076V103.853H251.826V87.521Z" fill="#602320"/>
<path d="M254.488 105.262L253.892 104.806L262.072 94.125C257.408 94.272 253.862 92.316 251.448 88.271C248.869 92.534 245.316 94.524 240.866 94.17L249.011 104.805L248.415 105.261L239.18 93.2L240.088 93.329C244.879 94.006 248.488 92.05 251.124 87.336L251.455 86.743L251.78 87.339C254.208 91.794 257.817 93.753 262.836 93.326L263.682 93.254L254.488 105.262Z" fill="#602320"/>
<path d="M257.041 116.015V108.523C257.041 105.448 254.525 102.933 251.451 102.933C248.377 102.933 245.861 105.449 245.861 108.523V116.015H257.041Z" fill="#E1D1CB"/>
<path d="M254.841 118.062H248.062V109.153C248.062 107.284 249.582 105.763 251.452 105.763C253.321 105.763 254.842 107.284 254.842 109.153L254.841 118.062ZM248.812 117.312H254.091V109.153C254.091 107.698 252.906 106.513 251.451 106.513C249.996 106.513 248.811 107.697 248.811 109.153L248.812 117.312Z" fill="#602320"/>
<path d="M115.085 364.511C120.684 372.58 111.743 381.102 110.843 382.316C106.196 388.586 89.3048 396.668 89.3048 396.668C85.1228 399.042 83.0618 395.715 84.1538 394.804C84.7218 394.409 81.8888 396.142 81.2968 396.481C75.9578 399.277 74.7088 394.668 76.4868 393.031C72.7468 395.881 69.3549 391.988 71.6229 389.967C68.7229 391.709 65.7688 388.015 69.5318 384.716C71.4608 382.709 89.8908 368.955 89.8908 368.955C88.5848 367.351 81.5219 372.845 77.8439 369.267C77.5529 368.806 77.7648 368.345 78.1008 368.086C89.6588 361.069 98.1269 360.582 101.057 360.152C105.485 359.504 111.715 359.655 115.085 364.511Z" fill="#FCA886"/>
<path d="M95.2485 386.399L84.2161 394.538L84.6613 395.142L95.6938 387.002L95.2485 386.399Z" fill="#602320"/>
<path d="M91.4286 382.513L76.3931 392.758L76.8148 393.377L91.8503 383.132L91.4286 382.513Z" fill="#602320"/>
<path d="M87.7971 377.826L71.4414 389.569L71.8788 390.178L88.2345 378.435L87.7971 377.826Z" fill="#602320"/>
<path d="M96.8708 388.373C93.5318 385.695 90.0778 381.728 86.3108 376.243L86.9298 375.819C90.6548 381.241 94.0598 385.156 97.3398 387.787L96.8708 388.373Z" fill="#602320"/>
<path d="M99.4808 373.286C93.6858 373.286 89.6718 369.268 89.6228 369.218L90.1578 368.693C90.2178 368.754 96.1618 374.683 103.899 371.693L104.169 372.392C102.517 373.03 100.942 373.286 99.4808 373.286Z" fill="#602320"/>
<path d="M157.941 340.375C155.185 354.499 163.182 365.411 178.38 362.935C183.866 362.041 188.797 358.676 192.191 354.036L192.406 353.743C193.037 352.845 193.523 352.062 193.946 351.27L226.061 286.794C228.573 283.238 230.174 279.273 230.809 275.036C232.603 263.053 228.222 253.011 217.248 249.348C205.864 245.548 196.843 251.118 190.473 261.57L190.367 261.747C189.705 262.864 189.156 263.933 188.701 264.991L160.871 332.723L160.897 332.743L160.458 333.556C159.246 335.724 158.401 338.018 157.941 340.375Z" fill="#E1D1CB"/>
<path d="M121.871 379.103L112.874 354.844L104.283 358.03C108.566 361.964 113.74 378.824 113.28 382.289L121.871 379.103Z" fill="#E1D1CB"/>
<path d="M159.612 328.561C140.308 337.569 111.767 346.754 111.362 355.4L121.312 379.35C126.607 385.481 159.996 369.615 181.979 361.953C206.134 351.842 192.9 313.868 159.612 328.561Z" fill="#E1D1CB"/>
<path d="M121.672 379.453L120.951 379.246C122.328 374.475 116.605 359.368 111.152 355.712L111.57 355.089C117.345 358.96 123.137 374.377 121.672 379.453Z" fill="#602320"/>
<path d="M165.378 334.196L163.028 327.187C162.977 327.035 163.028 326.868 163.156 326.77C163.284 326.671 163.459 326.668 163.593 326.756L168.719 330.187L168.301 330.81L164.089 327.991L166.089 333.958L165.378 334.196Z" fill="#602320"/>
<path d="M94.9454 434.742C113.487 427.965 123.024 407.44 116.246 388.898C109.469 370.356 88.9439 360.819 70.4022 367.597C51.8606 374.374 42.3238 394.899 49.1012 413.441C55.8786 431.983 76.4038 441.52 94.9454 434.742Z" fill="#602320"/>
<path d="M97.0078 427.686C111.642 419.767 117.087 401.484 109.168 386.849C101.249 372.214 82.9657 366.77 68.331 374.689C53.6963 382.608 48.252 400.891 56.1709 415.526C64.0898 430.161 82.3731 435.605 97.0078 427.686Z" fill="white"/>
<path d="M58.9091 386.196L58.5181 386.836L60.6402 388.132L61.0313 387.492L58.9091 386.196Z" fill="#602320"/>
<path d="M104.737 414.211L104.346 414.851L106.469 416.148L106.86 415.508L104.737 414.211Z" fill="#602320"/>
<path d="M68.9976 422.834L67.7026 424.957L68.3429 425.348L69.6379 423.225L68.9976 422.834Z" fill="#602320"/>
<path d="M97.0059 377.007L95.7107 379.131L96.351 379.521L97.6463 377.397L97.0059 377.007Z" fill="#602320"/>
<path d="M57.0663 400.995L54.5793 401.014L54.5851 401.764L57.0721 401.745L57.0663 400.995Z" fill="#602320"/>
<path d="M110.762 400.614L108.275 400.633L108.281 401.383L110.768 401.364L110.762 400.614Z" fill="#602320"/>
<path d="M83.2544 426.784L82.5044 426.789L82.5221 429.276L83.2721 429.271L83.2544 426.784Z" fill="#602320"/>
<path d="M82.8701 373.089L82.1201 373.094L82.1378 375.581L82.8878 375.576L82.8701 373.089Z" fill="#602320"/>
<path d="M70.135 376.021L69.4692 376.364L70.6087 378.575L71.2745 378.232L70.135 376.021Z" fill="#602320"/>
<path d="M94.7594 423.751L94.0935 424.094L95.2323 426.305L95.8982 425.962L94.7594 423.751Z" fill="#602320"/>
<path d="M107.498 387.989L105.287 389.129L105.631 389.795L107.842 388.654L107.498 387.989Z" fill="#602320"/>
<path d="M59.75 412.573L57.54 413.714L57.8841 414.38L60.094 413.24L59.75 412.573Z" fill="#602320"/>
<path d="M106.979 392.847L77.1687 402.58L77.4794 403.532L107.289 393.798L106.979 392.847Z" fill="#E0654A"/>
<path d="M72.5555 379.086L70.7773 380.001L84.4841 406.627L86.2623 405.711L72.5555 379.086Z" fill="#602320"/>
<path d="M86.396 396.825L66.6067 412.916L67.8685 414.467L87.6578 398.376L86.396 396.825Z" fill="#602320"/>
<path d="M81.1168 403.741C82.5338 404.607 84.3848 404.16 85.2498 402.742C86.1158 401.325 85.6688 399.474 84.2518 398.609C82.8348 397.743 80.9838 398.19 80.1188 399.607C79.2528 401.025 79.6998 402.875 81.1168 403.741Z" fill="white"/>
<path d="M82.6779 404.558C82.0639 404.558 81.4589 404.39 80.9219 404.062C79.3309 403.089 78.8259 401.003 79.7979 399.413C80.2699 398.641 81.0129 398.1 81.8909 397.889C82.7709 397.676 83.6779 397.82 84.4479 398.29C85.2189 398.761 85.7609 399.504 85.9719 400.382C86.1839 401.26 86.0409 402.168 85.5709 402.939C85.1009 403.71 84.3569 404.252 83.4789 404.463C83.2129 404.526 82.9439 404.558 82.6779 404.558ZM81.3119 403.421C81.9139 403.788 82.6209 403.898 83.3019 403.734C83.9849 403.568 84.5629 403.147 84.9289 402.548C85.2959 401.948 85.4069 401.241 85.2419 400.558C85.0769 399.875 84.6559 399.297 84.0559 398.931C82.8169 398.173 81.1939 398.566 80.4379 399.804C79.6819 401.041 80.0739 402.664 81.3119 403.421Z" fill="#602320"/>
<path d="M174.252 301.138L173.576 300.811L181.073 285.332L181.749 285.658L174.252 301.138Z" fill="#602320"/>
<path d="M271.421 222.721H234.829V286.74H271.421V222.721Z" fill="#FCA886"/>
<path d="M299.416 415.935C298.799 404.035 297.774 392.66 296.273 381.85H211.04C208.91 391.326 207.088 402.969 205.524 415.935H299.416Z" fill="#602320"/>
<path d="M303.854 239.266L272.162 246.42L253.867 254.732L234.863 247.16L201.641 238.745C201.641 238.745 200.357 312.392 205.725 346.074C209.238 368.113 198.534 381.883 210.536 385.54C226.337 389.533 280.158 389.506 296.633 385.54C308.783 382.435 298.076 368.114 301.589 346.074C306.955 312.391 303.854 239.266 303.854 239.266Z" fill="#E1D1CB"/>
<path d="M208.977 401.142L208.909 400.396C209.013 400.386 219.245 399.347 221.392 390.677L222.121 390.857C219.843 400.05 209.085 401.132 208.977 401.142Z" fill="#934A4A"/>
<path d="M298.482 401.142C298.374 401.132 287.617 400.05 285.339 390.857L286.068 390.677C288.215 399.347 298.447 400.386 298.55 400.396L298.482 401.142Z" fill="#934A4A"/>
<path d="M254.07 401.883C251.152 401.774 248.991 400.772 247.645 398.905C244.815 394.978 246.61 388.684 246.687 388.418L247.408 388.629C247.389 388.69 245.639 394.841 248.256 398.469C249.459 400.137 251.425 401.033 254.098 401.133L254.07 401.883Z" fill="#934A4A"/>
<path d="M253.383 388.498L253.176 415.393L253.926 415.399L254.133 388.504L253.383 388.498Z" fill="#934A4A"/>
<path d="M234.829 241.558L229.294 245.989C231.666 253.883 237.198 259.65 245.23 263.734L253.866 254.731C245.735 252 239.393 247.606 234.829 241.558Z" fill="#E1D1CB"/>
<path d="M271.431 241.558L276.966 245.989C274.595 253.883 269.062 259.65 261.03 263.734L252.394 254.731C260.525 252 266.867 247.606 271.431 241.558Z" fill="#E1D1CB"/>
<path d="M246.848 260.452L249.296 262.828L244.338 372.6L252.938 381.97V254.471C250.399 256.079 248.392 258.089 246.848 260.452Z" fill="#E0654A"/>
<path d="M256.581 262.828L259.029 260.452C257.486 258.089 255.478 256.079 252.938 254.471V381.969L261.538 372.599L256.581 262.828Z" fill="#E0654A"/>
<path d="M245.431 264.269L245.052 264.064C237.784 260.122 232.518 254.258 228.95 246.14L229.638 245.838C233.074 253.658 238.113 259.341 245.036 263.198C245.45 262.168 245.958 261.182 246.548 260.264L247.179 260.668C246.541 261.662 246.004 262.737 245.582 263.864L245.431 264.269Z" fill="#602320"/>
<path d="M260.459 264.269L260.308 263.866C259.885 262.735 259.346 261.657 258.706 260.66L259.337 260.256C259.929 261.178 260.438 262.166 260.854 263.199C267.778 259.342 272.817 253.659 276.252 245.839L276.94 246.141C273.373 254.259 268.106 260.122 260.838 264.065L260.459 264.269Z" fill="#602320"/>
<path d="M252.988 264.261C251.602 264.261 250.201 263.887 249.087 263.139L249.505 262.516C251.461 263.83 254.537 263.834 256.362 262.523L256.8 263.132C255.751 263.885 254.378 264.261 252.988 264.261Z" fill="#602320"/>
<path d="M203.528 330.639C202.111 313.174 201.363 296.281 201.304 280.428L202.054 280.426C202.113 296.259 202.86 313.132 204.276 330.578L203.528 330.639Z" fill="#602320"/>
<path d="M303.64 330.639L302.892 330.578C304.308 313.115 305.055 296.241 305.113 280.426L305.863 280.428C305.805 296.264 305.057 313.157 303.64 330.639Z" fill="#602320"/>
<path d="M254.181 236.314H252.071C238.8 236.314 227.942 225.456 227.942 212.185V189.962C227.942 176.691 238.8 165.833 252.071 165.833H254.181C267.452 165.833 278.31 176.691 278.31 189.962V212.185C278.309 225.456 267.451 236.314 254.181 236.314Z" fill="#FCA886"/>
<path d="M230.45 202.915C230.45 202.915 227.26 194.934 222.15 198.575C217.04 202.216 222.169 214.839 229.079 216.073C235.988 217.307 230.45 202.915 230.45 202.915Z" fill="#FCA886"/>
<path d="M275.8 202.915C275.8 202.915 278.99 194.934 284.1 198.575C289.21 202.216 284.081 214.839 277.171 216.073C270.262 217.307 275.8 202.915 275.8 202.915Z" fill="#FCA886"/>
<path d="M228.801 210.334C229.197 205.301 229.724 198.426 225.34 197.623L224.087 189.13C223.148 185.268 224.629 182.778 226.183 182.129C226.183 182.129 218.515 175.256 222.234 168.149C225.953 161.042 234.486 164.347 234.486 164.347C234.486 164.347 234.025 158.732 241.636 156.86C249.247 154.988 272.54 169.026 272.54 169.026C278.191 172.36 279.619 176.743 280.497 182.128C283.164 182.609 283.375 186.506 283.137 188.327L282.099 197.623C277.023 197.289 276.809 202.943 277.106 210.334C273.702 210.334 274.267 199.829 274.267 199.829L274.288 184.235C259.183 188.7 244.018 188.197 232.956 184.235L232.351 199.879C232.349 199.878 232.551 210.334 228.801 210.334Z" fill="#602320"/>
<path d="M224.466 209.333C223.208 207.489 221.933 203.879 223.193 201.984C223.64 201.311 224.61 200.596 226.682 201.021L226.532 201.755C225.193 201.484 224.282 201.7 223.818 202.4C222.894 203.789 223.745 206.946 225.086 208.911L224.466 209.333Z" fill="#602320"/>
<path d="M282.303 209.333L281.684 208.91C283.025 206.945 283.875 203.788 282.952 202.399C282.487 201.7 281.578 201.483 280.238 201.754L280.088 201.02C282.162 200.596 283.129 201.31 283.577 201.983C284.836 203.878 283.561 207.489 282.303 209.333Z" fill="#602320"/>
<path d="M253.196 237.233C245.964 237.233 239.21 234.375 234.665 229.39L235.22 228.885C239.622 233.714 246.175 236.483 253.197 236.483H253.201C260.207 236.482 266.747 233.713 271.145 228.885L271.7 229.39C267.159 234.373 260.417 237.232 253.202 237.233C253.199 237.233 253.196 237.233 253.196 237.233Z" fill="#602320"/>
<path d="M253.227 211.819L253.016 211.099C254.026 210.803 256.887 209.661 256.787 208.35C256.672 206.85 253.598 201.174 252.424 199.113L253.076 198.742C253.252 199.05 257.384 206.319 257.535 208.292C257.699 210.446 253.685 211.685 253.227 211.819Z" fill="#602320"/>
<path d="M243.431 206.135C243.428 206.976 242.753 207.656 241.924 207.653C241.095 207.65 240.425 206.965 240.428 206.124C240.431 205.283 241.106 204.603 241.935 204.606C242.765 204.609 243.434 205.294 243.431 206.135Z" fill="#602320"/>
<path d="M244.835 202.162C242.924 201.214 240.7 201.211 238.035 202.153L237.785 201.446C240.651 200.434 243.066 200.449 245.169 201.49L244.835 202.162Z" fill="#602320"/>
<path d="M266.325 206.222C266.322 207.05 265.658 207.719 264.842 207.715C264.026 207.712 263.367 207.038 263.37 206.21C263.373 205.382 264.037 204.714 264.853 204.717C265.669 204.72 266.328 205.394 266.325 206.222Z" fill="#602320"/>
<path d="M268.174 202.251C266.263 201.304 264.04 201.301 261.374 202.242L261.124 201.535C263.989 200.522 266.404 200.537 268.508 201.579L268.174 202.251Z" fill="#602320"/>
<path d="M247.363 214.154C249.18 220.378 257.928 221.076 260.185 214.294C256.271 215.249 251.955 215.085 247.363 214.154Z" fill="#E1D1CB"/>
<path d="M237.42 215.997C231.139 215.997 226.029 210.887 226.029 204.606C226.029 198.325 231.138 193.215 237.42 193.215C243.701 193.215 248.812 198.325 248.812 204.606C248.812 210.887 243.701 215.997 237.42 215.997ZM237.42 193.965C231.553 193.965 226.779 198.738 226.779 204.606C226.779 210.474 231.552 215.247 237.42 215.247C243.288 215.247 248.062 210.474 248.062 204.606C248.062 198.739 243.288 193.965 237.42 193.965Z" fill="#E1D1CB"/>
<path d="M268.943 215.997C262.662 215.997 257.552 210.887 257.552 204.606C257.552 198.325 262.661 193.215 268.943 193.215C275.224 193.215 280.335 198.325 280.335 204.606C280.335 210.887 275.225 215.997 268.943 215.997ZM268.943 193.965C263.076 193.965 258.302 198.738 258.302 204.606C258.302 210.474 263.075 215.247 268.943 215.247C274.811 215.247 279.585 210.474 279.585 204.606C279.585 198.739 274.812 193.965 268.943 193.965Z" fill="#E1D1CB"/>
<path d="M258.921 199.772C257.361 198.271 255.142 197.458 252.844 197.497C250.701 197.548 248.787 198.352 247.454 199.76L246.909 199.244C248.381 197.689 250.481 196.803 252.825 196.747C255.325 196.686 257.737 197.593 259.44 199.231L258.921 199.772Z" fill="#E1D1CB"/>
<path d="M253.653 221.694C252.453 221.694 251.251 221.416 250.029 220.86L250.34 220.177C252.574 221.195 254.735 221.194 256.95 220.177L257.263 220.859C256.051 221.415 254.853 221.694 253.653 221.694Z" fill="#602320"/>
<path d="M92.6159 376.744L98.3409 368.18C99.0879 366.746 94.7139 361.335 94.7139 361.335C94.7139 361.335 92.4319 362.298 91.0859 365.259L86.2769 375.585C85.5239 377.309 85.6119 378.044 86.2009 378.483C86.7909 378.921 89.9969 380.579 92.6159 376.744Z" fill="#FCA886"/>
<path d="M87.3109 378.133L86.6899 377.713C88.6419 374.827 87.4669 373.834 87.4549 373.824L87.9059 373.224C87.9789 373.279 89.6969 374.605 87.3109 378.133Z" fill="#602320"/>
<path d="M137.361 127.804L144.767 134.964C146.044 135.954 152.149 132.615 152.149 132.615C152.149 132.615 151.608 130.198 148.934 128.345L139.631 121.772C138.068 120.724 137.33 120.679 136.793 121.181C136.257 121.684 134.054 124.544 137.361 127.804Z" fill="#FCA886"/>
<path d="M140.422 124.206C139.63 124.206 138.465 123.826 136.941 122.335L137.464 121.799C139.958 124.236 141.144 123.256 141.154 123.245L141.664 123.796C141.63 123.828 141.212 124.206 140.422 124.206Z" fill="#602320"/>
</g>
<defs>
<clipPath id="clip0_34_3">
<rect width="500" height="500" fill="white"/>
</clipPath>
</defs>
</svg>
