<svg width="500" height="500" viewBox="0 0 500 500" fill="none" xmlns="http://www.w3.org/2000/svg">
<path d="M59.7182 329.699C63.8772 361.303 83.9242 388.485 112.628 401.48C173.546 429.059 280.547 473.116 318.792 461.271C373.493 444.33 485.656 132.034 467.346 75.8822C449.036 19.7302 72.4822 57.6982 55.6382 104.013C42.7772 139.378 50.1292 256.837 59.7182 329.699Z" fill="#97BBD9"/>
<path opacity="0.7" d="M59.7182 329.699C63.8772 361.303 83.9242 388.485 112.628 401.48C173.546 429.059 280.547 473.116 318.792 461.271C373.493 444.33 485.656 132.034 467.346 75.8822C449.036 19.7302 72.4822 57.6982 55.6382 104.013C42.7772 139.378 50.1292 256.837 59.7182 329.699Z" fill="white"/>
<path d="M419.336 326.249L419.338 326.245C419.352 326.21 419.335 326.169 419.3 326.154C419.264 326.138 419.222 326.155 419.207 326.191C417.062 331.146 415.553 336.347 414.294 341.593C413.079 346.854 412.198 352.191 411.583 357.56L411.199 361.596C411.14 362.269 411.067 362.942 411.018 363.616L410.908 365.641C410.85 366.992 410.767 368.342 410.729 369.693L410.766 373.749L410.811 375.776C410.841 376.451 410.889 377.126 410.935 377.8C411.037 379.148 411.119 380.497 411.243 381.842C411.502 384.531 411.906 387.205 412.322 389.868C412.327 389.902 412.357 389.928 412.392 389.928C412.431 389.928 412.463 389.896 412.463 389.857V389.853C412.456 388.501 412.399 387.157 412.368 385.811C412.329 384.467 412.212 383.129 412.231 381.784C412.237 380.44 412.202 379.099 412.187 377.758L412.15 375.748L412.186 373.738L412.204 369.719L412.313 365.702L412.355 363.692C412.381 363.022 412.431 362.354 412.468 361.685L412.715 357.671C413.185 352.329 413.919 347.006 414.989 341.745C416.055 336.488 417.376 331.253 419.336 326.249Z" fill="#263238"/>
<path d="M419.912 347.265C419.922 347.229 419.904 347.189 419.868 347.176C419.831 347.163 419.79 347.183 419.778 347.22C418.621 350.559 417.698 353.975 416.917 357.427C416.171 360.885 415.585 364.388 415.228 367.917C414.871 371.434 414.478 374.955 414.43 378.491C414.376 382.025 414.432 385.564 414.806 389.095C414.81 389.128 414.836 389.155 414.869 389.158C414.908 389.162 414.943 389.134 414.948 389.095C415.356 385.574 415.606 382.062 415.849 378.551C416.098 375.042 416.132 371.522 416.361 368.011C416.573 364.511 417.012 361.025 417.615 357.562C418.204 354.1 418.94 350.649 419.912 347.265Z" fill="#263238"/>
<path d="M431.562 354.657C431.541 354.624 431.497 354.614 431.464 354.635C428.548 356.481 425.947 358.807 423.674 361.427C422.557 362.757 421.518 364.149 420.628 365.663L420.002 366.844L419.512 368.071C419.336 368.478 419.212 368.897 419.085 369.315C418.959 369.734 418.818 370.151 418.705 370.572C417.83 373.949 417.251 377.39 417.093 380.849C416.952 384.306 417.018 387.768 417.479 391.2C417.484 391.233 417.511 391.259 417.545 391.262C417.584 391.265 417.618 391.235 417.621 391.196L418.509 380.95C418.863 377.563 419.08 374.156 419.807 370.847C419.899 370.435 420.018 370.032 420.122 369.623C420.228 369.215 420.33 368.805 420.481 368.416L420.897 367.232L421.432 366.114C422.221 364.634 423.186 363.218 424.223 361.876C426.304 359.191 428.752 356.743 431.538 354.756L431.542 354.753C431.574 354.731 431.582 354.689 431.562 354.657Z" fill="#263238"/>
<path d="M425.923 367.821C424.335 368.846 423.273 370.458 422.38 372.08C421.529 373.738 420.858 375.495 420.395 377.297C420.256 377.743 420.146 378.196 420.048 378.65L419.727 380.012C419.563 380.927 419.435 381.852 419.383 382.779C419.371 383.709 419.344 384.637 419.407 385.564C419.484 386.49 419.589 387.415 419.772 388.331C419.779 388.357 419.8 388.382 419.829 388.388C419.868 388.396 419.906 388.37 419.914 388.331C420.138 387.417 420.285 386.511 420.405 385.607C420.549 384.705 420.689 383.809 420.797 382.912C420.929 382.019 421.047 381.128 421.117 380.227C421.242 379.339 421.307 378.431 421.502 377.554C421.814 375.778 422.327 374.044 423.021 372.386C423.712 370.741 424.612 369.102 425.995 367.944L426.006 367.935C426.033 367.913 426.04 367.873 426.02 367.843C426 367.81 425.956 367.8 425.923 367.821Z" fill="#263238"/>
<path d="M409.584 378.084C409.201 373.535 408.451 369.032 407.742 364.531C407.031 360.03 406.247 355.542 405.423 351.062C404.57 346.588 403.679 342.122 402.714 337.672C402.706 337.635 402.67 337.61 402.632 337.617C402.593 337.624 402.568 337.661 402.575 337.7C403.353 342.184 404.058 346.68 404.723 351.181C405.406 355.678 406.048 360.181 406.617 364.692C407.173 369.205 407.606 373.728 408.172 378.233L409.836 391.773C409.84 391.807 409.868 391.834 409.904 391.836C409.943 391.838 409.976 391.808 409.978 391.768C410.03 390.627 410.031 389.486 410.059 388.342C410.069 387.199 410.013 386.061 409.992 384.918C409.95 382.633 409.755 380.36 409.584 378.084Z" fill="#263238"/>
<path d="M406.855 378.019C406.612 376.217 406.281 374.426 405.937 372.641L405.298 369.985C405.089 369.1 404.891 368.212 404.631 367.338C403.723 363.814 402.564 360.351 401.154 356.994L400.609 355.742L400.003 354.517C399.618 353.692 399.151 352.907 398.709 352.112C397.758 350.563 396.771 349.015 395.426 347.759C395.399 347.734 395.356 347.734 395.328 347.76C395.3 347.787 395.299 347.832 395.326 347.86L395.333 347.867C396.576 349.156 397.482 350.747 398.336 352.319C398.732 353.128 399.15 353.923 399.488 354.758L400.022 355.996L400.496 357.26C401.756 360.627 402.767 364.088 403.527 367.607C403.941 369.357 404.216 371.141 404.555 372.905L404.981 375.571C405.135 376.457 405.325 377.338 405.45 378.23C405.734 380.008 406.061 381.782 406.371 383.562C406.647 385.346 406.973 387.127 407.349 388.91C407.356 388.942 407.385 388.969 407.419 388.969C407.458 388.969 407.49 388.938 407.491 388.898C407.499 387.081 407.457 385.262 407.364 383.447C407.259 381.633 407.044 379.828 406.855 378.019Z" fill="#263238"/>
<path d="M403.091 378.251C402.248 375.864 401.273 373.528 400.211 371.238C399.121 368.96 397.943 366.725 396.588 364.597C396.567 364.567 396.524 364.555 396.492 364.574C396.458 364.594 396.447 364.637 396.467 364.671C397.651 366.882 398.652 369.188 399.559 371.52C400.483 373.846 401.314 376.207 402.012 378.605C402.723 381.001 403.233 383.443 403.87 385.849C404.54 388.253 405.082 390.683 405.822 393.118C405.831 393.147 405.858 393.17 405.89 393.171C405.929 393.171 405.962 393.14 405.963 393.1C405.999 390.559 405.749 388.02 405.255 385.533C404.809 383.031 403.929 380.636 403.091 378.251Z" fill="#263238"/>
<path d="M402.936 386.201C402.505 384.707 401.769 383.314 400.934 382.002C400.113 380.683 399.161 379.437 398.02 378.381C397.432 377.872 396.831 377.381 396.166 376.983C395.511 376.574 394.817 376.228 394.063 376.032C394.03 376.023 393.995 376.04 393.981 376.072C393.965 376.108 393.981 376.15 394.017 376.165L394.025 376.169C395.388 376.775 396.539 377.779 397.513 378.879C398.499 379.98 399.287 381.243 399.943 382.558C400.633 383.865 400.99 385.309 401.59 386.654C401.855 387.344 402.118 388.038 402.424 388.728C402.684 389.431 402.972 390.132 403.338 390.83L403.34 390.834C403.352 390.856 403.375 390.872 403.401 390.873C403.441 390.875 403.475 390.844 403.477 390.803C403.51 390.025 403.464 389.25 403.39 388.478C403.28 387.713 403.119 386.955 402.936 386.201Z" fill="#263238"/>
<path d="M403.217 344.184C403.217 344.184 395.764 342.465 394.044 334.438C392.324 326.411 397.866 329.85 392.897 317.237C387.928 304.624 389.075 301.758 390.795 298.127C392.515 294.496 393.471 295.642 394.999 300.419C396.528 305.197 402.07 312.651 404.172 326.602C406.275 340.554 403.217 344.184 403.217 344.184Z" fill="#164C78"/>
<path d="M417.933 330.615C417.933 330.615 412.964 328.895 412.773 319.53C412.582 310.166 416.404 312.077 416.977 300.419C417.55 288.761 418.315 280.543 420.417 280.352C422.519 280.161 428.062 286.085 429.973 299.081C431.884 312.077 427.489 320.676 423.666 324.499C419.844 328.322 417.933 330.615 417.933 330.615Z" fill="#164C78"/>
<path d="M400.542 355.46C400.542 355.46 399.395 348.579 397.102 345.33C394.809 342.081 389.84 339.214 386.591 332.908C383.342 326.601 379.711 323.544 379.902 332.526C380.093 341.508 384.106 346.096 389.075 349.154C394.044 352.212 400.542 355.46 400.542 355.46Z" fill="#164C78"/>
<path d="M398.44 367.308C398.44 367.308 393.853 358.517 387.165 352.019C380.476 345.521 375.125 342.272 377.036 345.521C378.947 348.77 381.241 348.579 384.489 354.312C387.738 360.045 386.782 364.25 391.369 367.499C395.956 370.748 398.44 367.308 398.44 367.308Z" fill="#164C78"/>
<path d="M397.866 378.584C397.675 378.011 397.484 373.806 390.986 370.366C384.488 366.926 378.373 368.264 379.137 369.984C379.901 371.704 383.915 374.571 387.928 376.291C391.942 378.01 397.866 378.584 397.866 378.584Z" fill="#164C78"/>
<path d="M417.551 355.842C417.551 355.842 414.684 352.211 416.213 344.567C417.742 336.922 421.182 338.834 425.004 334.82C428.826 330.807 428.062 330.233 431.884 326.029C435.706 321.825 439.146 319.531 440.675 321.251C442.204 322.971 439.911 328.322 437.617 331.38C435.324 334.438 431.693 335.967 429.973 339.789C428.253 343.611 429.017 349.727 424.622 352.593C420.226 355.459 417.551 355.842 417.551 355.842Z" fill="#164C78"/>
<path d="M427.105 357.944C427.105 357.944 433.985 350.108 438.954 344.375C443.923 338.642 445.834 334.246 446.025 338.068C446.216 341.89 447.745 344.948 443.732 349.917C439.719 354.886 427.105 357.944 427.105 357.944Z" fill="#164C78"/>
<path d="M423.475 370.557C423.475 370.557 423.284 367.499 434.177 360.428C445.07 353.357 449.657 352.019 448.51 354.886C447.363 357.753 442.586 360.619 437.426 365.779C432.266 370.94 423.475 370.557 423.475 370.557Z" fill="#164C78"/>
<path d="M403.673 343.37C403.673 343.37 401.116 329.66 398.441 319.913C395.765 310.166 394.045 304.242 394.045 304.242" stroke="#263238" stroke-miterlimit="10" stroke-linecap="round" stroke-linejoin="round"/>
<path d="M417.494 330.759C417.494 330.759 422.139 315.899 423.668 306.917C425.197 297.935 423.477 291.246 422.712 287.232" stroke="#263238" stroke-miterlimit="10" stroke-linecap="round" stroke-linejoin="round"/>
<path d="M399.939 355.172C399.939 355.172 397.102 350.108 392.897 345.139C388.693 340.17 385.444 337.495 383.533 332.717" stroke="#263238" stroke-miterlimit="10" stroke-linecap="round" stroke-linejoin="round"/>
<path d="M417.551 355.842C417.551 355.842 419.08 346.669 422.711 341.891C426.342 337.113 433.604 329.66 436.471 324.882" stroke="#263238" stroke-miterlimit="10" stroke-linecap="round" stroke-linejoin="round"/>
<path d="M397.416 378.376C397.416 378.376 390.985 374.189 386.398 371.896" stroke="#263238" stroke-miterlimit="10" stroke-linecap="round" stroke-linejoin="round"/>
<path d="M434.24 416.896C433.81 405.299 420.925 397.568 420.925 397.568H412.773H409.328H401.176C401.176 397.568 388.291 405.299 387.861 416.896C387.431 428.493 402.464 471.015 402.464 471.015H409.327H412.772H419.635C419.637 471.015 434.67 428.493 434.24 416.896Z" fill="#263238" stroke="#263238" stroke-miterlimit="10" stroke-linecap="round" stroke-linejoin="round"/>
<path d="M423.469 386.165H398.27L401.177 397.568H420.561L423.469 386.165Z" fill="#263238" stroke="#263238" stroke-miterlimit="10" stroke-linecap="round" stroke-linejoin="round"/>
<g opacity="0.3">
<path d="M333.059 423.795L348.465 425.561L351.925 410.4L337.738 405.467C337.596 401.703 336.829 398.102 335.537 394.759L346.094 384.242L336.398 372.084L324.076 379.859C321.039 377.647 317.613 375.939 313.919 374.854L312.311 360.334H296.761L295.153 374.854C291.51 375.925 288.129 377.601 285.123 379.769L272.556 371.839L262.86 383.997L273.571 394.667C272.308 397.905 271.529 401.385 271.345 405.023L256.764 410.094L260.224 425.255L275.824 423.467C277.523 426.376 279.646 429.007 282.117 431.267L276.827 446.293L290.838 453.04L299.277 439.551C300.99 439.823 302.746 439.969 304.535 439.969C306.108 439.969 307.653 439.852 309.169 439.64L317.637 453.175L331.648 446.428L326.462 431.698C329.048 429.426 331.28 426.763 333.059 423.795ZM283.473 406.736C283.473 395.103 292.904 385.673 304.537 385.673C316.17 385.673 325.6 395.103 325.6 406.736C325.6 418.369 316.17 427.8 304.537 427.8C292.904 427.8 283.473 418.368 283.473 406.736Z" stroke="black" stroke-miterlimit="10"/>
<path d="M243.022 398.907L253.756 400.137L256.167 389.574L246.282 386.137C246.183 383.515 245.649 381.005 244.748 378.676L252.104 371.349L245.348 362.878L236.763 368.296C234.647 366.755 232.26 365.565 229.686 364.809L228.566 354.692H217.731L216.611 364.809C214.073 365.555 211.717 366.723 209.623 368.233L200.867 362.708L194.111 371.179L201.574 378.613C200.694 380.869 200.151 383.294 200.023 385.829L189.863 389.362L192.274 399.925L203.144 398.679C204.328 400.706 205.807 402.539 207.528 404.114L203.842 414.583L213.604 419.284L219.484 409.886C220.678 410.076 221.901 410.177 223.148 410.177C224.244 410.177 225.321 410.095 226.376 409.948L232.276 419.379L242.038 414.678L238.425 404.415C240.228 402.831 241.783 400.975 243.022 398.907ZM208.474 387.021C208.474 378.916 215.045 372.345 223.15 372.345C231.255 372.345 237.826 378.916 237.826 387.021C237.826 395.126 231.255 401.697 223.15 401.697C215.044 401.697 208.474 395.126 208.474 387.021Z" stroke="black" stroke-miterlimit="10"/>
</g>
<g opacity="0.3">
<path d="M289.843 330.119C301.09 318.872 301.09 300.637 289.843 289.39C278.596 278.143 260.361 278.143 249.114 289.39C237.867 300.637 237.868 318.872 249.114 330.119C260.361 341.366 278.596 341.366 289.843 330.119Z" stroke="black" stroke-miterlimit="10" stroke-linecap="round" stroke-linejoin="round"/>
<path d="M269.816 330.316V326.468C266.975 326.357 264.85 325.447 263.444 323.737C262.037 322.027 261.278 319.475 261.168 316.081L267.003 315.089C267.058 316.468 267.203 317.62 267.437 318.544C267.672 319.468 268.023 320.157 268.493 320.612C268.961 321.068 269.569 321.295 270.313 321.295C271.168 321.295 271.754 321.02 272.072 320.467C272.388 319.916 272.547 319.282 272.547 318.564C272.547 317.157 272.223 315.978 271.575 315.026C270.926 314.073 270.036 313.116 268.906 312.15L265.389 309.129C264.588 308.383 263.872 307.626 263.237 306.853C262.602 306.081 262.099 305.198 261.727 304.205C261.355 303.212 261.168 302.04 261.168 300.688C261.168 298.096 261.905 296.074 263.382 294.626C264.857 293.178 266.837 292.357 269.32 292.164V288.481H271.307V292.164C272.797 292.247 274.018 292.585 274.969 293.178C275.921 293.772 276.645 294.516 277.141 295.412C277.638 296.308 277.996 297.288 278.217 298.35C278.437 299.412 278.575 300.44 278.631 301.433L272.713 302.302C272.685 301.281 272.603 300.378 272.465 299.591C272.326 298.805 272.078 298.192 271.72 297.749C271.361 297.308 270.809 297.101 270.065 297.129C269.292 297.157 268.706 297.459 268.306 298.04C267.906 298.619 267.706 299.267 267.706 299.985C267.706 301.254 268.009 302.274 268.617 303.046C269.223 303.819 269.913 304.563 270.685 305.28L274.12 308.26C275.031 309.087 275.872 309.983 276.644 310.949C277.416 311.915 278.037 312.984 278.506 314.156C278.975 315.329 279.21 316.673 279.21 318.19C279.21 319.652 278.913 320.983 278.32 322.183C277.726 323.383 276.872 324.355 275.755 325.101C274.637 325.846 273.32 326.287 271.803 326.425V330.315H269.816V330.316Z" stroke="black" stroke-miterlimit="10" stroke-linecap="round" stroke-linejoin="round"/>
</g>
<g opacity="0.3">
<path d="M398.902 270.534C408.912 268.15 415.096 258.103 412.712 248.092C410.329 238.081 400.282 231.898 390.271 234.281C380.26 236.665 374.077 246.712 376.46 256.723C378.843 266.734 388.891 272.917 398.902 270.534Z" stroke="black" stroke-miterlimit="10" stroke-linecap="round" stroke-linejoin="round"/>
<path d="M394.807 265.713V263.223C392.969 263.151 391.594 262.563 390.685 261.456C389.775 260.35 389.284 258.699 389.212 256.503L392.987 255.861C393.023 256.753 393.116 257.5 393.268 258.097C393.42 258.695 393.647 259.14 393.951 259.434C394.254 259.729 394.647 259.877 395.129 259.877C395.682 259.877 396.061 259.698 396.267 259.34C396.471 258.984 396.574 258.574 396.574 258.11C396.574 257.199 396.364 256.437 395.945 255.821C395.525 255.205 394.949 254.585 394.218 253.96L391.942 252.006C391.424 251.524 390.96 251.033 390.55 250.533C390.139 250.034 389.814 249.462 389.573 248.82C389.332 248.177 389.211 247.419 389.211 246.544C389.211 244.867 389.688 243.559 390.643 242.622C391.597 241.685 392.878 241.154 394.484 241.029V238.646H395.769V241.029C396.733 241.082 397.523 241.301 398.138 241.685C398.754 242.069 399.222 242.551 399.543 243.131C399.864 243.711 400.096 244.345 400.239 245.032C400.381 245.719 400.471 246.384 400.507 247.027L396.678 247.589C396.66 246.929 396.607 246.344 396.518 245.835C396.428 245.326 396.268 244.93 396.036 244.644C395.804 244.359 395.447 244.225 394.965 244.243C394.465 244.261 394.086 244.456 393.827 244.831C393.568 245.206 393.439 245.626 393.439 246.09C393.439 246.911 393.635 247.571 394.028 248.071C394.42 248.571 394.867 249.053 395.366 249.517L397.588 251.445C398.177 251.98 398.722 252.56 399.221 253.185C399.72 253.81 400.122 254.501 400.426 255.26C400.729 256.019 400.881 256.887 400.881 257.869C400.881 258.815 400.689 259.676 400.305 260.452C399.921 261.229 399.368 261.857 398.646 262.34C397.923 262.822 397.07 263.108 396.089 263.197V265.714H394.807V265.713Z" stroke="black" stroke-miterlimit="10" stroke-linecap="round" stroke-linejoin="round"/>
</g>
<g opacity="0.3">
<path d="M448.363 88.8407H425.809V67.0127C413.346 67.0127 403.24 77.1177 403.24 89.5817C403.24 102.046 413.345 112.151 425.809 112.151C438.272 112.151 448.377 102.045 448.377 89.5817C448.378 89.3367 448.371 89.0857 448.363 88.8407Z" stroke="black" stroke-miterlimit="10"/>
<path d="M450.583 86.622H428.029V64.793C440.248 64.793 450.195 74.504 450.583 86.622Z" stroke="black" stroke-miterlimit="10"/>
</g>
<g opacity="0.3">
<path d="M118.29 76.8525H101.662V128.185H118.29V76.8525Z" stroke="black" stroke-miterlimit="10" stroke-linecap="round" stroke-linejoin="round"/>
<path d="M140.702 94.9277H124.074V128.185H140.702V94.9277Z" stroke="black" stroke-miterlimit="10" stroke-linecap="round" stroke-linejoin="round"/>
<path d="M163.114 106.856H146.486V128.184H163.114V106.856Z" stroke="black" stroke-miterlimit="10" stroke-linecap="round" stroke-linejoin="round"/>
<path d="M160.216 103.48L157.181 88.4273L154.046 91.1913L137.334 72.2363C136.88 71.7213 136.286 71.3513 135.623 71.1723L104.627 62.7773L102.797 69.5343L132.778 77.6543L148.795 95.8203L145.66 98.5843L160.216 103.48Z" stroke="black" stroke-miterlimit="10"/>
</g>
<path d="M341.816 123.025H266.348C260.835 123.025 256.365 118.556 256.365 113.043V39.0201C256.365 33.5071 260.834 29.0371 266.348 29.0371H341.816C347.329 29.0371 351.799 33.5061 351.799 39.0201V113.042C351.799 118.555 347.329 123.025 341.816 123.025Z" fill="#263238"/>
<path d="M440.857 219.649H167.307C167.687 144.429 228.777 83.5693 304.087 83.5693C379.387 83.5693 440.477 144.429 440.857 219.649Z" fill="#164C78" stroke="#263238" stroke-miterlimit="10" stroke-linejoin="round"/>
<path d="M434.047 219.649H174.117C174.347 176.159 195.937 137.729 228.927 114.309C250.147 99.2389 276.087 90.3789 304.087 90.3789C332.087 90.3789 358.027 99.2389 379.247 114.299C412.227 137.729 433.817 176.159 434.047 219.649Z" fill="white" stroke="#263238" stroke-miterlimit="10" stroke-linejoin="round"/>
<path d="M379.246 114.299L304.586 219.649L304.086 220.349L303.586 219.649L228.926 114.309C250.146 99.2389 276.086 90.3789 304.086 90.3789C332.086 90.3789 358.026 99.2389 379.246 114.299Z" fill="white" stroke="#263238" stroke-miterlimit="10" stroke-linejoin="round"/>
<path d="M355.307 219.649H252.857C253.227 191.669 276.017 169.109 304.087 169.109C332.147 169.109 354.937 191.669 355.307 219.649Z" fill="white" stroke="#263238" stroke-miterlimit="10" stroke-linejoin="round"/>
<path d="M342.944 253.35C340.768 255.876 336.951 256.147 334.44 253.953L230.275 161.594L235.496 155.532L342.279 244.85C344.822 247.009 345.12 250.824 342.944 253.35Z" fill="#263238"/>
<path d="M304.082 249.416C320.135 249.416 333.15 236.402 333.15 220.348C333.15 204.294 320.135 191.28 304.082 191.28C288.028 191.28 275.014 204.294 275.014 220.348C275.014 236.402 288.028 249.416 304.082 249.416Z" fill="white" stroke="#263238" stroke-miterlimit="10" stroke-linejoin="round"/>
<path d="M304.081 236.199C312.836 236.199 319.932 229.102 319.932 220.348C319.932 211.594 312.836 204.497 304.081 204.497C295.327 204.497 288.23 211.594 288.23 220.348C288.23 229.102 295.327 236.199 304.081 236.199Z" fill="#263238" stroke="#263238" stroke-miterlimit="10" stroke-linejoin="round"/>
<g opacity="0.7">
<path d="M201.039 190.655V172.001H204.448V188.306H208.962V190.655H201.039Z" fill="#164C78"/>
<path d="M215.572 190.908C214.252 190.908 213.2 190.662 212.417 190.171C211.634 189.68 211.073 188.973 210.736 188.052C210.398 187.131 210.229 186.041 210.229 184.782V177.804C210.229 176.545 210.398 175.467 210.736 174.568C211.073 173.67 211.634 172.983 212.417 172.507C213.2 172.031 214.252 171.793 215.572 171.793C216.923 171.793 217.987 172.031 218.762 172.507C219.537 172.983 220.097 173.67 220.443 174.568C220.788 175.466 220.961 176.545 220.961 177.804V184.805C220.961 186.049 220.788 187.127 220.443 188.041C220.097 188.954 219.537 189.661 218.762 190.16C217.986 190.658 216.923 190.908 215.572 190.908ZM215.572 188.398C216.14 188.398 216.558 188.275 216.827 188.029C217.095 187.784 217.276 187.446 217.368 187.016C217.46 186.586 217.506 186.118 217.506 185.611V177.021C217.506 176.5 217.46 176.031 217.368 175.616C217.276 175.202 217.095 174.876 216.827 174.637C216.558 174.399 216.139 174.28 215.572 174.28C215.034 174.28 214.628 174.399 214.352 174.637C214.076 174.875 213.891 175.201 213.799 175.616C213.707 176.031 213.661 176.499 213.661 177.021V185.611C213.661 186.117 213.703 186.586 213.788 187.016C213.872 187.446 214.053 187.784 214.329 188.029C214.605 188.276 215.019 188.398 215.572 188.398Z" fill="#164C78"/>
<path d="M225.427 190.655L222.779 172.001H225.635L227.178 184.092L229.113 172.048H231.439L233.419 184.092L234.939 172.001H237.749L235.147 190.655H232.383L230.31 178.15L228.26 190.655H225.427Z" fill="#164C78"/>
</g>
<g opacity="0.6">
<path d="M367.006 190.655V172.001H370.392V179.808H374.192V172.001H377.6V190.655H374.192V182.226H370.392V190.655H367.006Z" fill="#164C78" fill-opacity="0.5"/>
<path d="M380.547 190.655V172.001H383.909V190.655H380.547Z" fill="#164C78" fill-opacity="0.5"/>
<path d="M391.464 190.908C390.236 190.908 389.261 190.647 388.539 190.125C387.817 189.604 387.299 188.862 386.984 187.903C386.67 186.943 386.512 185.811 386.512 184.506V178.242C386.512 176.906 386.665 175.755 386.972 174.787C387.28 173.82 387.821 173.08 388.596 172.565C389.371 172.051 390.442 171.794 391.809 171.794C393.083 171.794 394.096 172.009 394.849 172.439C395.601 172.869 396.142 173.487 396.472 174.293C396.802 175.099 396.967 176.078 396.967 177.23V178.197H393.72V177.138C393.72 176.539 393.678 176.025 393.593 175.595C393.509 175.165 393.34 174.839 393.087 174.616C392.833 174.393 392.422 174.282 391.855 174.282C391.256 174.282 390.822 174.428 390.554 174.72C390.284 175.011 390.116 175.396 390.047 175.871C389.978 176.347 389.943 176.869 389.943 177.437V185.244C389.943 185.889 389.996 186.45 390.104 186.925C390.21 187.401 390.411 187.766 390.703 188.019C390.994 188.272 391.409 188.399 391.946 188.399C392.499 188.399 392.921 188.261 393.213 187.984C393.505 187.708 393.708 187.324 393.823 186.833C393.938 186.342 393.996 185.758 393.996 185.082V183.331H391.992V181.189H397.059V190.654H394.87L394.617 188.812C394.371 189.426 393.999 189.929 393.5 190.32C393.003 190.713 392.323 190.908 391.464 190.908Z" fill="#164C78" fill-opacity="0.5"/>
<path d="M399.707 190.655V172.001H403.093V179.808H406.893V172.001H410.301V190.655H406.893V182.226H403.093V190.655H399.707Z" fill="#164C78" fill-opacity="0.5"/>
</g>
<path d="M273.48 69.7624V40.4814H280.492C282.469 40.4814 284.139 40.7164 285.5 41.1864C286.861 41.6564 287.896 42.4574 288.609 43.5904C289.318 44.7234 289.675 46.2654 289.675 48.2174C289.675 49.3984 289.566 50.4584 289.349 51.3984C289.132 52.3384 288.765 53.1394 288.246 53.8024C287.728 54.4654 287.012 54.9774 286.096 55.3394L290.182 69.7624H284.83L281.289 56.3514H278.83V69.7624H273.48ZM278.83 52.9894H280.492C281.529 52.9894 282.355 52.8394 282.969 52.5374C283.584 52.2364 284.024 51.7544 284.289 51.0914C284.553 50.4284 284.685 49.5794 284.685 48.5424C284.685 47.0724 284.415 45.9704 283.872 45.2344C283.329 44.4994 282.3 44.1314 280.78 44.1314H278.829L278.83 52.9894Z" fill="#C1D9EE"/>
<path d="M293.832 69.7624V40.4814H299.11V69.7624H293.832Z" fill="#C1D9EE"/>
<path d="M311.003 70.1602C309.244 70.1602 307.773 69.8172 306.593 69.1302C305.412 68.4432 304.521 67.4382 303.918 66.1112C303.315 64.7862 302.978 63.1602 302.906 61.2312L307.497 60.3282C307.545 61.4612 307.683 62.4612 307.913 63.3282C308.142 64.1952 308.491 64.8642 308.961 65.3342C309.431 65.8052 310.051 66.0392 310.822 66.0392C311.69 66.0392 312.304 65.7802 312.666 65.2622C313.027 64.7442 313.208 64.0872 313.208 63.2922C313.208 62.0152 312.919 60.9672 312.341 60.1472C311.763 59.3282 310.991 58.5082 310.028 57.6892L306.34 54.4362C305.304 53.5442 304.479 52.5502 303.864 51.4542C303.249 50.3582 302.942 49.0022 302.942 47.3872C302.942 45.0742 303.616 43.2902 304.966 42.0372C306.315 40.7852 308.158 40.1582 310.496 40.1582C311.87 40.1582 313.014 40.3692 313.931 40.7902C314.846 41.2122 315.576 41.7972 316.117 42.5432C316.66 43.2902 317.063 44.1402 317.328 45.0912C317.594 46.0432 317.763 47.0492 317.835 48.1102L313.279 48.9052C313.231 47.9902 313.129 47.1702 312.972 46.4472C312.815 45.7242 312.538 45.1582 312.14 44.7482C311.743 44.3382 311.159 44.1332 310.387 44.1332C309.592 44.1332 308.983 44.3922 308.562 44.9102C308.14 45.4292 307.929 46.0732 307.929 46.8442C307.929 47.8322 308.133 48.6462 308.543 49.2842C308.953 49.9232 309.543 50.5802 310.315 51.2542L313.966 54.4712C315.171 55.4832 316.2 56.6702 317.057 58.0322C317.911 59.3942 318.34 61.0392 318.34 62.9672C318.34 64.3642 318.032 65.6062 317.418 66.6912C316.804 67.7752 315.947 68.6252 314.852 69.2392C313.756 69.8532 312.473 70.1602 311.003 70.1602Z" fill="#C1D9EE"/>
<path d="M321.197 69.7624V40.4814H326.547V53.3504L332.331 40.4814H337.429L331.825 53.5674L338.007 69.7624H332.693L327.777 56.4234L326.548 58.6644V69.7624H321.197Z" fill="#C1D9EE"/>
<g opacity="0.4">
<path d="M269.885 130.118L270.207 111.464H273.73L276.378 124.384L279.142 111.464H282.55L282.896 130.118H280.363L280.087 117.152L277.439 130.118H275.389L272.695 117.106L272.441 130.118H269.885Z" fill="#164C78"/>
<path d="M285.521 130.118V111.464H293.352V113.859H288.93V119.225H292.408V121.597H288.93V127.769H293.398V130.118H285.521Z" fill="#164C78"/>
<path d="M295.377 130.118V111.464H299.776C301.296 111.464 302.482 111.671 303.334 112.086C304.186 112.501 304.792 113.138 305.153 113.997C305.513 114.857 305.694 115.947 305.694 117.268V124.085C305.694 125.436 305.513 126.561 305.153 127.458C304.792 128.357 304.193 129.025 303.357 129.462C302.52 129.9 301.372 130.118 299.914 130.118H295.377ZM298.786 127.746H299.822C300.605 127.746 301.165 127.608 301.503 127.332C301.841 127.056 302.048 126.653 302.125 126.123C302.201 125.593 302.24 124.945 302.24 124.177V117.038C302.24 116.286 302.186 115.679 302.079 115.219C301.972 114.759 301.749 114.421 301.411 114.206C301.073 113.991 300.528 113.884 299.776 113.884H298.786V127.746Z" fill="#164C78"/>
<path d="M308.297 130.118V111.464H311.659V130.118H308.297Z" fill="#164C78"/>
<path d="M319.65 130.372C318.268 130.372 317.194 130.119 316.426 129.612C315.657 129.106 315.128 128.384 314.836 127.447C314.545 126.51 314.398 125.39 314.398 124.085V111.464H317.714V124.476C317.714 125.059 317.752 125.608 317.829 126.122C317.906 126.637 318.086 127.051 318.37 127.366C318.654 127.681 319.08 127.838 319.648 127.838C320.247 127.838 320.68 127.681 320.95 127.366C321.217 127.052 321.394 126.637 321.479 126.122C321.563 125.608 321.606 125.059 321.606 124.476V111.464H324.899V124.085C324.899 125.39 324.753 126.511 324.461 127.447C324.169 128.384 323.644 129.105 322.883 129.612C322.126 130.118 321.048 130.372 319.65 130.372Z" fill="#164C78"/>
<path d="M327.527 130.118L327.849 111.464H331.372L334.02 124.384L336.784 111.464H340.193L340.538 130.118H338.005L337.729 117.152L335.081 130.118H333.031L330.337 117.106L330.084 130.118H327.527Z" fill="#164C78"/>
</g>
<path d="M174.578 230.63C179.787 224.205 184.448 227.983 189.657 221.558C194.868 215.13 190.207 211.352 195.418 204.924C200.629 198.496 205.29 202.275 210.501 195.847C215.713 189.418 211.052 185.64 216.264 179.211C221.476 172.782 226.137 176.561 231.348 170.132" stroke="#164C78" stroke-miterlimit="10" stroke-linecap="round" stroke-linejoin="round"/>
<path d="M185.473 239.462C190.682 233.037 195.343 236.815 200.552 230.39C205.763 223.962 201.102 220.184 206.313 213.756C211.524 207.328 216.185 211.107 221.396 204.679C226.608 198.25 221.947 194.472 227.159 188.043C232.371 181.614 237.032 185.393 242.243 178.964" stroke="#164C78" stroke-miterlimit="10" stroke-linecap="round" stroke-linejoin="round"/>
<path d="M196.367 248.294C201.576 241.869 206.237 245.647 211.446 239.222C216.657 232.794 211.996 229.016 217.207 222.588C222.418 216.16 227.079 219.939 232.29 213.511C237.502 207.082 232.841 203.304 238.053 196.875C243.265 190.446 247.926 194.225 253.137 187.796" stroke="#164C78" stroke-miterlimit="10" stroke-linecap="round" stroke-linejoin="round"/>
<path d="M207.262 257.126C212.471 250.701 217.132 254.479 222.341 248.054C227.552 241.626 222.891 237.848 228.102 231.42C233.313 224.992 237.974 228.77 243.185 222.343C248.397 215.914 243.736 212.136 248.948 205.707C254.16 199.278 258.821 203.057 264.032 196.628" stroke="#164C78" stroke-miterlimit="10" stroke-linecap="round" stroke-linejoin="round"/>
<path d="M31.9727 471.015H470.367" stroke="#263238" stroke-miterlimit="10" stroke-linecap="round" stroke-linejoin="round"/>
<path d="M53.6759 448.121C53.6759 448.121 52.5299 465.118 53.8669 468.556C55.2039 471.994 59.9779 477.341 62.8429 476.195C65.7079 475.049 64.9439 468.365 64.9439 463.781C64.9439 459.198 66.0899 452.322 66.0899 451.176C66.0899 450.03 53.6759 448.121 53.6759 448.121Z" fill="white" stroke="#263238" stroke-miterlimit="10" stroke-linejoin="round"/>
<path d="M141.719 459.58C141.719 459.58 141.337 471.23 143.438 471.994C145.539 472.758 157.571 471.421 159.671 471.803C161.772 472.185 168.456 472.567 170.939 471.803C173.422 471.039 176.668 469.702 175.714 467.792C174.759 465.882 162.536 460.726 159.862 459.007C157.188 457.288 152.414 454.041 152.414 454.041L141.719 459.58Z" fill="white" stroke="#263238" stroke-miterlimit="10" stroke-linejoin="round"/>
<path d="M78.8849 317.871C78.8849 317.871 77.9298 324.555 77.5478 336.205C77.1658 347.855 81.1769 372.11 81.1769 372.11L76.2118 400.375L57.1138 443.919C57.1138 443.919 52.5309 445.065 53.6759 448.121C54.8219 451.177 58.8329 454.423 61.1239 454.423C63.4159 454.423 66.4719 453.468 67.4259 451.94C68.3809 450.412 68.7629 446.592 68.7629 446.592C68.7629 446.592 101.994 402.284 102.567 400.756C103.14 399.228 108.487 375.737 108.487 375.737L122.238 394.262L141.336 451.366C141.336 451.366 139.999 453.085 140.763 455.568C141.527 458.051 142.864 461.488 142.864 461.488C142.864 461.488 144.774 461.488 148.02 460.342C151.267 459.196 154.513 456.331 154.513 456.331C154.513 456.331 155.277 454.803 154.895 452.893C154.513 450.983 153.367 450.219 153.558 448.691C153.749 447.163 146.874 392.733 145.728 389.105C144.582 385.476 118.227 330.856 118.227 330.856L116.317 316.914C116.318 316.917 99.3209 323.792 78.8849 317.871Z" fill="#527CA3" stroke="#263238" stroke-miterlimit="10" stroke-linejoin="round"/>
<path d="M105.627 198.948C105.627 198.948 98.0914 196.009 91.9804 197.571C85.8694 199.133 76.4014 207.497 77.0924 212.415C77.7834 217.334 88.9774 228.085 88.9774 228.085L88.5484 237.909L108.079 246.34L110.86 233.789C110.86 233.789 118.034 231.956 117.762 230.893C117.49 229.83 115.843 220.061 115.843 220.061C115.843 220.061 118.031 218.653 116.554 216.199C115.078 213.746 111.905 210.261 111.905 210.261C111.905 210.261 112.888 206.193 105.627 198.948Z" fill="white" stroke="#263238" stroke-miterlimit="10" stroke-linecap="round" stroke-linejoin="round"/>
<path d="M110.861 233.789C110.861 233.789 106.268 233.812 105.514 233.661C104.759 233.51 100.08 230.793 100.08 230.793L108.532 243.019L110.861 233.789Z" fill="#263238" stroke="#263238" stroke-miterlimit="10" stroke-linecap="round" stroke-linejoin="round"/>
<path d="M110.769 212.772C111.25 213.525 111.389 214.296 111.079 214.494C110.769 214.692 110.128 214.242 109.647 213.489C109.166 212.736 109.027 211.965 109.337 211.767C109.647 211.57 110.288 212.019 110.769 212.772Z" fill="#263238"/>
<path d="M110.146 209.249C110.146 209.249 108.394 208.749 107.449 210.703" stroke="#263238" stroke-miterlimit="10" stroke-linecap="round" stroke-linejoin="round"/>
<path d="M114.743 222.964C114.743 222.964 112.921 223.548 110.928 222.418" stroke="#263238" stroke-miterlimit="10" stroke-linecap="round" stroke-linejoin="round"/>
<path d="M106.923 200.678L98.9362 204.852C98.9362 204.852 102.006 206.898 101.351 208.764C100.696 210.63 100.696 210.63 100.696 210.63L100.867 217.946L98.8092 218.755C98.8092 218.755 92.6002 214.398 91.0922 218.463C89.5842 222.528 94.8532 225.427 94.8532 225.427C94.8532 225.427 92.6832 230.227 90.6932 231.302C88.7032 232.377 89.8162 228.979 85.8872 228.002C81.9582 227.025 74.5382 220.146 74.3852 216.223C74.2322 212.299 76.1802 203.31 82.8102 199.351C89.4412 195.392 94.0262 194.503 97.7512 194.683C101.477 194.863 105.166 192.719 106.376 195.24C107.587 197.759 106.923 200.678 106.923 200.678Z" fill="#263238" stroke="#263238" stroke-miterlimit="10" stroke-linecap="round" stroke-linejoin="round"/>
<path d="M87.0988 237.85C87.0988 237.85 79.8418 247.59 76.9768 259.622C74.1118 271.654 73.5388 285.977 76.0218 293.235C78.5048 300.492 78.1228 313.288 78.1228 313.288C78.1228 313.288 76.2128 316.917 78.3138 319.208C80.4148 321.499 93.7828 325.701 105.433 323.983C117.083 322.264 117.465 319.4 118.038 317.49C118.611 315.58 118.42 289.607 115.937 277.957C113.454 266.307 110.59 256.185 108.871 251.029C107.152 245.872 87.0988 237.85 87.0988 237.85Z" fill="white" stroke="#263238" stroke-miterlimit="10" stroke-linejoin="round"/>
<path d="M87.3496 231.441L111.544 247.398L111.162 255.992L84.8066 238.231L87.3496 231.441Z" fill="white" stroke="#263238" stroke-miterlimit="10" stroke-linejoin="round"/>
<path d="M211.68 265.324L198.951 254.315L194.63 251.761L167.833 299.805C159.524 309.602 146.288 312.03 138.271 305.23C130.254 298.43 130.49 284.976 138.8 275.18L178.924 237.542L167.071 227.103L161.874 223.979L120.861 267.453C107.388 283.338 109.343 307.136 125.228 320.609C141.113 334.082 164.912 332.128 178.385 316.243L211.68 265.324Z" fill="#263238" stroke="#263238" stroke-miterlimit="10" stroke-linejoin="round"/>
<path d="M198.951 254.315L194.631 251.761L180.832 276.5L192.653 286.316L196.283 288.87L211.681 265.324L198.951 254.315Z" fill="#263238" stroke="#263238" stroke-miterlimit="10" stroke-linecap="round" stroke-linejoin="round"/>
<path d="M154.852 254.255L157.965 257.202L178.924 237.541L167.071 227.102L161.874 223.978L148.451 238.206L154.852 254.255Z" fill="#263238" stroke="#263238" stroke-miterlimit="10" stroke-linecap="round" stroke-linejoin="round"/>
<path d="M207.892 263.009L194.629 251.76L164.044 297.489C155.735 307.286 142.499 309.715 134.482 302.915C126.465 296.115 126.701 282.661 135.011 272.864L175.135 235.226L161.872 223.977L117.072 265.136C103.599 281.021 105.554 304.82 121.439 318.293C137.324 331.766 161.123 329.811 174.596 313.926L207.892 263.009Z" fill="white" stroke="#263238" stroke-miterlimit="10" stroke-linejoin="round"/>
<path d="M192.653 286.316L207.893 263.009L194.631 251.761L179.168 274.879L192.653 286.316Z" fill="#164C78" stroke="#263238" stroke-miterlimit="10" stroke-linejoin="round"/>
<path d="M154.851 254.255L175.136 235.227L161.873 223.978L141.367 242.818L154.851 254.255Z" fill="#164C78" stroke="#263238" stroke-miterlimit="10" stroke-linejoin="round"/>
<path d="M109.062 300.492L150.505 321.118C150.505 321.118 153.752 318.444 155.279 316.534C156.807 314.624 158.144 314.051 159.863 313.86C161.582 313.669 162.728 314.433 164.828 312.714C166.928 310.995 167.311 311.377 166.547 313.287C165.783 315.197 165.592 315.961 163.873 316.152C162.154 316.343 161.008 317.107 161.008 317.107C161.008 317.107 165.973 320.163 167.119 320.736C168.265 321.309 169.22 322.264 168.838 322.837C168.456 323.41 168.838 324.365 167.692 324.365C166.546 324.365 165.209 324.365 165.209 324.365C165.209 324.365 163.681 325.702 162.153 327.612C160.625 329.522 159.097 330.477 157.378 330.668C155.659 330.859 151.076 330.668 147.065 329.522C143.054 328.376 109.824 318.063 105.431 316.344C101.038 314.625 95.5 310.615 95.5 310.615L109.062 300.492Z" fill="white" stroke="#263238" stroke-miterlimit="10" stroke-linejoin="round"/>
<path d="M83.2781 253.702C83.2781 253.702 77.7401 258.095 78.3131 263.824C78.8861 269.553 89.3901 308.132 89.3901 308.132L108.297 296.482C108.297 296.482 102.376 264.206 98.9391 258.668C95.5011 253.13 91.4911 252.175 91.4911 252.175" fill="white"/>
<path d="M83.2781 253.702C83.2781 253.702 77.7401 258.095 78.3131 263.824C78.8861 269.553 89.3901 308.132 89.3901 308.132L108.297 296.482C108.297 296.482 102.376 264.206 98.9391 258.668C95.5011 253.13 91.4911 252.175 91.4911 252.175" stroke="#263238" stroke-miterlimit="10" stroke-linejoin="round"/>
<path d="M108.296 291.134L85.9512 305.076C85.9512 305.076 88.2432 313.097 89.9622 314.434C91.6812 315.771 91.6812 315.771 91.6812 315.771C91.6812 315.771 110.015 303.166 111.161 301.447C112.306 299.728 108.869 292.089 108.296 291.134Z" fill="white" stroke="#263238" stroke-miterlimit="10" stroke-linejoin="round"/>
<path d="M149.98 266.377L149.613 266.696C149.038 267.197 148.166 267.136 147.666 266.562L144.587 263.027C144.086 262.452 144.147 261.58 144.721 261.08L145.088 260.761C145.663 260.26 146.535 260.32 147.035 260.895L150.114 264.43C150.615 265.004 150.555 265.876 149.98 266.377Z" fill="white" stroke="#263238" stroke-miterlimit="10" stroke-linejoin="round"/>
<path d="M147.249 268.601L146.882 268.92C146.307 269.421 145.435 269.36 144.935 268.786L142.607 266.113C142.106 265.538 142.167 264.666 142.741 264.166L143.108 263.847C143.683 263.346 144.555 263.406 145.055 263.981L147.383 266.654C147.884 267.229 147.824 268.1 147.249 268.601Z" fill="white" stroke="#263238" stroke-miterlimit="10" stroke-linejoin="round"/>
<path d="M144.673 271.176L144.306 271.495C143.731 271.996 142.859 271.935 142.359 271.361L140.031 268.688C139.53 268.113 139.59 267.241 140.165 266.741L140.532 266.422C141.107 265.921 141.979 265.981 142.479 266.556L144.807 269.229C145.308 269.803 145.248 270.675 144.673 271.176Z" fill="white" stroke="#263238" stroke-miterlimit="10" stroke-linejoin="round"/>
<path d="M141.608 272.849L141.241 273.168C140.666 273.669 139.794 273.609 139.294 273.034L137.48 270.951C136.979 270.376 137.04 269.504 137.614 269.004L137.981 268.685C138.556 268.184 139.428 268.245 139.928 268.819L141.742 270.901C142.243 271.477 142.183 272.348 141.608 272.849Z" fill="white" stroke="#263238" stroke-miterlimit="10" stroke-linejoin="round"/>
</svg>
