<svg id="visual" viewBox="0 0 960 540" width="960" height="540" xmlns="http://www.w3.org/2000/svg" xmlns:xlink="http://www.w3.org/1999/xlink" version="1.1"><path d="M0 17L20 19.7C40 22.3 80 27.7 120 34C160 40.3 200 47.7 240 48.7C280 49.7 320 44.3 360 45.2C400 46 440 53 480 50.3C520 47.7 560 35.3 600 29.2C640 23 680 23 720 21.2C760 19.3 800 15.7 840 18.3C880 21 920 30 940 34.5L960 39L960 0L940 0C920 0 880 0 840 0C800 0 760 0 720 0C680 0 640 0 600 0C560 0 520 0 480 0C440 0 400 0 360 0C320 0 280 0 240 0C200 0 160 0 120 0C80 0 40 0 20 0L0 0Z" fill="#97bbd9"></path><path d="M0 39L20 40.8C40 42.7 80 46.3 120 57.2C160 68 200 86 240 86.8C280 87.7 320 71.3 360 72.2C400 73 440 91 480 91.8C520 92.7 560 76.3 600 72.7C640 69 680 78 720 73.5C760 69 800 51 840 46.5C880 42 920 51 940 55.5L960 60L960 37L940 32.5C920 28 880 19 840 16.3C800 13.7 760 17.3 720 19.2C680 21 640 21 600 27.2C560 33.3 520 45.7 480 48.3C440 51 400 44 360 43.2C320 42.3 280 47.7 240 46.7C200 45.7 160 38.3 120 32C80 25.7 40 20.3 20 17.7L0 15Z" fill="#89aece"></path><path d="M0 77L20 77C40 77 80 77 120 86C160 95 200 113 240 113.8C280 114.7 320 98.3 360 96.5C400 94.7 440 107.3 480 106.5C520 105.7 560 91.3 600 92.2C640 93 680 109 720 104.5C760 100 800 75 840 68.7C880 62.3 920 74.7 940 80.8L960 87L960 58L940 53.5C920 49 880 40 840 44.5C800 49 760 67 720 71.5C680 76 640 67 600 70.7C560 74.3 520 90.7 480 89.8C440 89 400 71 360 70.2C320 69.3 280 85.7 240 84.8C200 84 160 66 120 55.2C80 44.3 40 40.7 20 38.8L0 37Z" fill="#7ba1c3"></path><path d="M0 109L20 119.8C40 130.7 80 152.3 120 169.5C160 186.7 200 199.3 240 201.2C280 203 320 194 360 183.2C400 172.3 440 159.7 480 150.7C520 141.7 560 136.3 600 144.3C640 152.3 680 173.7 720 183.5C760 193.3 800 191.7 840 184.5C880 177.3 920 164.7 940 158.3L960 152L960 85L940 78.8C920 72.7 880 60.3 840 66.7C800 73 760 98 720 102.5C680 107 640 91 600 90.2C560 89.3 520 103.7 480 104.5C440 105.3 400 92.7 360 94.5C320 96.3 280 112.7 240 111.8C200 111 160 93 120 84C80 75 40 75 20 75L0 75Z" fill="#6d95b8"></path><path d="M0 125L20 136.7C40 148.3 80 171.7 120 188.8C160 206 200 217 240 218C280 219 320 210 360 201C400 192 440 183 480 173C520 163 560 152 600 159.2C640 166.3 680 191.7 720 207C760 222.3 800 227.7 840 221.3C880 215 920 197 940 188L960 179L960 150L940 156.3C920 162.7 880 175.3 840 182.5C800 189.7 760 191.3 720 181.5C680 171.7 640 150.3 600 142.3C560 134.3 520 139.7 480 148.7C440 157.7 400 170.3 360 181.2C320 192 280 201 240 199.2C200 197.3 160 184.7 120 167.5C80 150.3 40 128.7 20 117.8L0 107Z" fill="#6088ad"></path><path d="M0 341L20 335.7C40 330.3 80 319.7 120 312.5C160 305.3 200 301.7 240 298C280 294.3 320 290.7 360 285.3C400 280 440 273 480 276.7C520 280.3 560 294.7 600 294.7C640 294.7 680 280.3 720 279.3C760 278.3 800 290.7 840 304.2C880 317.7 920 332.3 940 339.7L960 347L960 177L940 186C920 195 880 213 840 219.3C800 225.7 760 220.3 720 205C680 189.7 640 164.3 600 157.2C560 150 520 161 480 171C440 181 400 190 360 199C320 208 280 217 240 216C200 215 160 204 120 186.8C80 169.7 40 146.3 20 134.7L0 123Z" fill="#527ca3"></path><path d="M0 401L20 401C40 401 80 401 120 401C160 401 200 401 240 400C280 399 320 397 360 397C400 397 440 399 480 399C520 399 560 397 600 395.2C640 393.3 680 391.7 720 402.5C760 413.3 800 436.7 840 435.7C880 434.7 920 409.3 940 396.7L960 384L960 345L940 337.7C920 330.3 880 315.7 840 302.2C800 288.7 760 276.3 720 277.3C680 278.3 640 292.7 600 292.7C560 292.7 520 278.3 480 274.7C440 271 400 278 360 283.3C320 288.7 280 292.3 240 296C200 299.7 160 303.3 120 310.5C80 317.7 40 328.3 20 333.7L0 339Z" fill="#446f98"></path><path d="M0 422L20 422C40 422 80 422 120 421.2C160 420.3 200 418.7 240 424.2C280 429.7 320 442.3 360 448.7C400 455 440 455 480 457.7C520 460.3 560 465.7 600 466.5C640 467.3 680 463.7 720 464.5C760 465.3 800 470.7 840 468C880 465.3 920 454.7 940 449.3L960 444L960 382L940 394.7C920 407.3 880 432.7 840 433.7C800 434.7 760 411.3 720 400.5C680 389.7 640 391.3 600 393.2C560 395 520 397 480 397C440 397 400 395 360 395C320 395 280 397 240 398C200 399 160 399 120 399C80 399 40 399 20 399L0 399Z" fill="#36638d"></path><path d="M0 498L20 500.7C40 503.3 80 508.7 120 508.7C160 508.7 200 503.3 240 501.5C280 499.7 320 501.3 360 505.8C400 510.3 440 517.7 480 522.2C520 526.7 560 528.3 600 528.3C640 528.3 680 526.7 720 523.2C760 519.7 800 514.3 840 514.3C880 514.3 920 519.7 940 522.3L960 525L960 442L940 447.3C920 452.7 880 463.3 840 466C800 468.7 760 463.3 720 462.5C680 461.7 640 465.3 600 464.5C560 463.7 520 458.3 480 455.7C440 453 400 453 360 446.7C320 440.3 280 427.7 240 422.2C200 416.7 160 418.3 120 419.2C80 420 40 420 20 420L0 420Z" fill="#275882"></path><path d="M0 541L20 541C40 541 80 541 120 541C160 541 200 541 240 541C280 541 320 541 360 541C400 541 440 541 480 541C520 541 560 541 600 541C640 541 680 541 720 541C760 541 800 541 840 541C880 541 920 541 940 541L960 541L960 523L940 520.3C920 517.7 880 512.3 840 512.3C800 512.3 760 517.7 720 521.2C680 524.7 640 526.3 600 526.3C560 526.3 520 524.7 480 520.2C440 515.7 400 508.3 360 503.8C320 499.3 280 497.7 240 499.5C200 501.3 160 506.7 120 506.7C80 506.7 40 501.3 20 498.7L0 496Z" fill="#164c78"></path></svg>