<svg width="750" height="500" viewBox="0 0 750 500" fill="none" xmlns="http://www.w3.org/2000/svg">
<path d="M652.431 347.235C652.431 347.235 698.222 305.171 680.326 254.29C662.431 203.409 627.887 206.553 597.134 155.504C566.38 104.455 535.072 73.0911 456.488 88.4091C384.669 102.409 360.721 153.576 314.28 151.576C267.839 149.576 201.431 234.401 272.431 326.405L652.431 347.235Z" fill="#F0DBD8"/>
<path d="M128.766 88.4102V358.388L263.315 313.487V60.4102L128.766 88.4102Z" fill="#F7AC8F"/>
<path d="M143.406 98.5V343.5L252.338 315.332V75.5L143.406 98.5Z" fill="#DB815F"/>
<path d="M233.779 197.375V236.277L245.779 232.25V193.923L233.779 197.375Z" fill="#F7AC8F"/>
<path d="M169.707 123.726L169.805 147.019C169.814 149.145 171.932 150.715 174.155 150.244L230.442 138.306C232.871 137.791 234.592 135.772 234.582 133.449L234.489 111.273C234.478 108.737 231.962 106.859 229.306 107.405L173.933 118.8C171.457 119.31 169.697 121.362 169.707 123.726Z" fill="#FFF9BF"/>
<path d="M196.069 120.4L198 120.009L197.363 124.993C197.136 126.723 196.093 127.804 194.645 128.106C193.108 128.426 192.17 127.702 192.402 125.858L194.323 125.462C194.238 126.116 194.442 126.303 194.806 126.228C195.131 126.161 195.351 125.917 195.431 125.391L196.069 120.4Z" fill="#B55C58"/>
<path d="M201.544 126.672C199.761 127.042 198.554 126.046 198.49 124.241C198.397 121.632 200.009 119.488 202.431 118.999C204.254 118.631 205.45 119.609 205.514 121.404C205.606 123.978 203.997 126.162 201.544 126.672ZM201.772 124.738C202.974 124.49 203.655 123.253 203.611 122.03C203.58 121.168 203.098 120.737 202.252 120.91C201.05 121.154 200.349 122.376 200.393 123.612C200.423 124.467 200.905 124.917 201.772 124.738Z" fill="#B55C58"/>
<path d="M209.377 124.974L205.939 125.687L206.913 118.209L210.243 117.537C211.652 117.253 212.424 117.776 212.27 119.01C212.153 119.907 211.573 120.601 210.87 120.94C211.676 120.97 212.086 121.616 211.967 122.464C211.814 123.718 210.875 124.663 209.377 124.974ZM209.381 122.027L208.268 122.255L208.099 123.62L209.223 123.388C209.696 123.291 209.974 123.028 210.037 122.572C210.089 122.118 209.854 121.929 209.381 122.027ZM209.61 119.271L208.634 119.469L208.463 120.792L209.439 120.593C209.911 120.497 210.189 120.223 210.244 119.791C210.298 119.347 210.083 119.175 209.61 119.271Z" fill="#B55C58"/>
<path d="M176.828 134.871L178.759 134.463L177.795 142.104L175.855 142.525L176.828 134.871Z" fill="#B55C58"/>
<path d="M186.298 132.873L185.334 140.472L183.393 140.892L181.377 137.183L180.832 141.446L178.891 141.867L179.865 134.23L181.796 133.822L183.823 137.584L184.367 133.279L186.298 132.873Z" fill="#B55C58"/>
<path d="M187.022 132.72L192.637 131.537L192.418 133.211L190.576 133.601L189.821 139.501L187.881 139.921L188.636 134.013L186.803 134.401L187.022 132.72Z" fill="#B55C58"/>
<path d="M197.593 132.106L195.081 132.637L194.926 133.888L197.143 133.417L196.932 135.011L194.715 135.485L194.535 136.857L197.047 136.318L196.838 137.985L192.385 138.947L193.359 131.386L197.802 130.452L197.593 132.106Z" fill="#B55C58"/>
<path d="M201.804 129.61C203.528 129.248 204.263 130.127 204.084 131.469C203.96 132.448 203.358 133.403 202.276 133.965L203.461 136.557L201.313 137.02L200.292 134.544L200.085 134.588L199.727 137.362L197.787 137.78L198.761 130.249L201.804 129.61ZM201.42 131.38L200.464 131.582L200.271 133.158L201.227 132.955C201.749 132.844 202.036 132.524 202.106 132.001C202.17 131.532 201.952 131.268 201.42 131.38Z" fill="#B55C58"/>
<path d="M204.773 128.987L206.832 128.556L207.707 133.611L209.975 127.897L212.034 127.466L208.666 135.438L206.203 135.968L204.773 128.987Z" fill="#B55C58"/>
<path d="M212.639 127.338L214.57 126.934L213.606 134.374L211.666 134.791L212.639 127.338Z" fill="#B55C58"/>
<path d="M219.908 127.4L217.396 127.929L217.242 129.159L219.459 128.69L219.247 130.258L217.031 130.729L216.851 132.078L219.363 131.542L219.154 133.182L214.701 134.139L215.675 126.703L220.118 125.774L219.908 127.4Z" fill="#B55C58"/>
<path d="M220.791 125.632L222.88 125.196L223.036 130.077L224.781 124.799L226.899 124.357L227.301 129.15L228.771 123.967L230.86 123.531L228.191 131.245L225.817 131.754L225.452 127.427L223.877 132.17L221.503 132.68L220.791 125.632Z" fill="#B55C58"/>
<path d="M156.432 338.806C156.432 338.806 192.277 321.701 319.329 305.363C446.381 289.025 608.432 300.41 665.432 352.41C722.432 404.41 607.775 456.41 458.604 434.41C309.433 412.41 192.432 431.41 121.432 426.41C50.4317 421.41 32.0367 358.388 156.432 338.806Z" fill="#F9C0AF"/>
<path d="M293.407 356.71C293.407 356.71 317.014 344.957 359.032 341.407C401.05 337.856 417.866 355.885 480.939 356.71C544.012 357.535 611.584 361.306 620.431 372.765C629.278 384.225 625.76 402.136 545.269 403.007C464.778 403.878 338.778 386.974 311.778 387.783C284.779 388.593 266.535 368.066 293.407 356.71Z" fill="#D69683"/>
<path d="M91.3535 353.816C91.3535 353.816 92.2845 366.108 97.8705 367.333L102.837 387.799C102.837 387.799 105.941 390.903 120.682 391.523C135.424 392.144 138.837 388.419 138.837 388.419L142.251 367.332C142.251 367.332 150.941 363.901 150.01 353.815H91.3535V353.816Z" fill="#EE8D00"/>
<path d="M150.007 353.813C150.007 356.094 141.46 358.031 129.645 358.692C126.815 358.85 123.807 358.934 120.679 358.934H120.269C119.021 358.934 117.792 358.915 116.591 358.888C112.113 358.776 107.96 358.497 104.366 358.069C96.5166 357.157 91.3496 355.592 91.3496 353.814C91.3496 352.548 94.0126 351.375 98.4256 350.481H98.4346C101.88 349.783 106.396 349.243 111.535 348.954C113.993 348.805 116.591 348.721 119.281 348.703C119.747 348.694 120.212 348.694 120.678 348.694C124.067 348.694 127.326 348.797 130.352 348.983C141.804 349.68 150.007 351.579 150.007 353.813Z" fill="#432200"/>
<path d="M126.523 334.323C126.523 334.323 125.68 317.162 135.532 308.422C145.385 299.682 144.254 297.801 145.677 289.52C147.1 281.239 155.45 275.963 159.516 277.615C163.582 279.267 151.474 290.644 156.747 295.156C162.02 299.668 157.216 304.829 153.414 308.539C149.612 312.249 154.862 314.283 152.395 321.621C149.928 328.959 139.316 330.474 140.525 335.892C141.734 341.31 142.643 347.933 138.357 352.303C134.07 356.673 129.029 358.935 129.029 358.935C129.029 358.935 125.911 342.87 126.523 334.323Z" fill="#496B52"/>
<path d="M134.652 322.781C131.31 330.928 128.051 340.704 128.051 340.704C128.051 340.704 129.624 344.493 130.351 348.981C130.882 352.24 130.956 355.88 129.643 358.692C126.813 358.85 123.805 358.934 120.677 358.934H120.267C119.019 358.934 117.79 358.915 116.589 358.888C115.481 356.793 113.554 353.115 111.533 348.954C107.613 340.873 103.321 330.957 103.843 327.205C103.843 327.205 101.45 312.178 103.796 301.732C104.559 298.352 105.807 295.447 107.8 293.688C115.947 286.472 100.584 275.998 107.8 267.851C115.016 259.704 122.231 259.472 119.438 249.463C116.645 239.454 132.473 244.575 130.378 257.842C128.283 271.109 130.378 273.437 134.102 279.954C137.826 286.471 121.3 301.135 125.024 304.859C128.749 308.583 137.994 314.635 134.652 322.781Z" fill="#739465"/>
<path d="M120.268 358.934C119.02 358.934 117.791 358.915 116.59 358.888C112.112 358.776 107.959 358.497 104.365 358.069C104.365 356.337 103.732 352.436 98.434 350.481H98.425C91.507 347.921 89.645 343.033 92.904 334.188C96.163 325.343 89.878 325.809 81.964 318.128C74.05 310.447 80.567 302.067 79.404 296.947C78.24 291.826 72.188 293.688 69.861 288.102C67.534 282.516 73.585 275.067 68.464 271.11C63.343 267.153 65.634 263.783 69.861 265.524C69.861 265.524 74.749 266.455 79.87 271.809C84.991 277.162 80.336 282.283 85.689 282.982C91.042 283.681 97.56 287.637 96.862 294.154C96.415 298.344 100.009 299.266 103.798 301.733C105.912 303.111 108.081 304.964 109.664 308.12C114.087 316.965 108.966 328.37 112.69 332.56C114.906 335.055 117.774 341.666 119.282 348.704C120.026 352.156 120.435 355.713 120.268 358.934Z" fill="#94B171"/>
<path d="M312.92 304.876L304.67 367.26H308.795L319.92 310.984L343.17 313.626L348.17 375.376H352.63L351.42 313.876L370.42 303.229L377.43 361.758L380.42 362.391L382.17 360.688L376.727 288.251L312.92 304.876Z" fill="#B35555"/>
<path d="M328.67 300.876C328.67 300.876 344.42 304.083 350.42 303.23C356.42 302.377 376.92 290.876 377.42 286.876C377.92 282.876 359.42 282.376 359.42 282.376L328.67 300.876Z" fill="#334947"/>
<path d="M304.625 247.208C304.625 247.208 313.587 258.843 322.304 260.562C331.021 262.281 334.707 251.169 334.707 251.169L304.625 247.208Z" fill="#E28869"/>
<path d="M338.826 193.923C338.826 193.923 329.821 198.61 327.856 222.187C325.891 245.764 324.447 250.185 324.447 250.185L334.035 252.968L340.954 209.416L338.826 193.923Z" fill="#769069"/>
<path d="M313.315 357C312.922 349.094 312.061 334.98 310.534 324.513C308.297 309.181 304.451 300.34 304.451 300.34L318.687 289.727L301.586 280.735C301.586 280.735 292.936 286.386 289.37 291.666C286.424 296.027 301.779 341.726 307.213 357.501C307.213 357.501 298.007 371.66 294.649 375.11C291.291 378.56 294.756 378.882 300.935 377.802C307.114 376.722 310.494 369.452 312.168 368.862C313.842 368.272 313.699 371.343 313.699 371.343L316.611 371.097C316.611 371.097 318.934 365.882 315.221 359.404C314.593 358.311 313.951 357.539 313.315 357Z" fill="#E28869"/>
<path d="M339.4 374.297L336.532 374.867C336.532 374.867 336.326 371.802 334.734 372.578C333.143 373.354 330.598 380.958 324.586 382.726C318.564 384.494 315.086 384.563 318.034 380.761C319.478 378.904 322.032 374.307 324.262 370.112C324.301 370.033 324.34 369.955 324.38 369.876C326.639 365.622 328.526 361.85 328.526 361.85C321.345 346.79 300.931 303.113 303.367 298.447C306.314 292.798 314.272 286.206 314.272 286.206L331.071 300.225L319.331 305.363C319.331 305.363 324.155 313.713 328.104 328.695C330.806 338.922 333.252 352.852 334.539 360.662C334.991 360.967 335.453 361.369 335.924 361.89C336.179 362.165 336.445 362.48 336.7 362.833C341.119 368.845 339.4 374.297 339.4 374.297Z" fill="#F39F7D"/>
<path d="M370.758 196.306C373.059 198.015 366.253 242.326 366.253 242.326C366.253 242.326 369.17 255.916 369.143 258.372C369.116 260.828 359.456 264.921 351.597 265.576C343.738 266.231 334.035 260.337 334.035 260.337C334.035 260.337 336.37 235.941 334.896 231.193C333.422 226.445 330.639 219.241 331.13 213.346C331.621 207.452 338.825 193.923 338.825 193.923C338.825 193.923 357.822 186.699 370.758 196.306Z" fill="#A1B173"/>
<path d="M330.852 170.508C330.852 170.508 332.963 182.879 335.912 187.188C338.861 191.497 343.822 193.449 347.211 191.998C347.211 191.998 346.952 197.285 349.913 198.38C352.874 199.475 357.823 191.161 357.823 191.161L356.033 184.393C356.033 184.393 357.026 168.805 355.52 163.803C354.013 158.8 331.612 156.871 330.852 170.508Z" fill="#F39F7D"/>
<path d="M368.963 256.509C368.963 256.509 375.608 272.677 370.757 283.524C365.906 294.371 329.819 300.45 329.819 300.45C329.819 300.45 317.539 288.094 294.699 285.974C294.699 285.974 307.716 274.908 318.767 270.487C329.819 266.066 333.613 265.626 333.613 265.626L334.223 258.228C334.223 258.228 344.005 266.108 368.963 256.509Z" fill="#44467F"/>
<path d="M339.4 374.297L336.532 374.867C336.532 374.867 336.326 371.802 334.734 372.578C333.143 373.354 330.598 380.958 324.586 382.726C318.564 384.494 315.086 384.563 318.034 380.761C319.478 378.904 322.032 374.307 324.262 370.112C324.399 370.77 324.822 371.34 325.726 371.674C328.919 372.823 333.025 362.42 335.923 361.889C336.178 362.164 336.444 362.479 336.699 362.832C341.119 368.845 339.4 374.297 339.4 374.297Z" fill="#1D1700"/>
<path d="M316.67 371.108L313.756 371.353C313.756 371.353 313.895 368.284 312.226 368.877C310.558 369.47 307.177 376.74 301.004 377.823C294.822 378.905 291.358 378.583 294.713 375.136C296.356 373.453 299.41 369.171 302.096 365.253C302.159 365.922 302.515 366.536 303.375 366.969C306.419 368.469 311.666 358.592 314.605 358.39C314.828 358.692 315.056 359.034 315.27 359.414C318.99 365.883 316.67 371.108 316.67 371.108Z" fill="#1D1700"/>
<path d="M370.757 196.306C370.757 196.306 375.664 199.429 377.138 209.744C378.612 220.059 369.775 254.291 369.775 254.291L359.031 247.775L364.695 218.749C364.695 218.749 364.704 199.733 370.757 196.306Z" fill="#769069"/>
<path d="M336.854 158.286C336.854 158.286 329.485 155.066 325.242 161.826C320.999 168.585 328.717 176.56 333.473 172.703C333.473 172.703 340.57 174.723 347.88 168.411C347.88 168.411 346.87 173.432 349.545 176.06C349.545 176.06 349.744 178.765 350.82 179.251C350.82 179.251 350.449 174.002 352.307 173.196C354.165 172.391 355.441 175.084 354.858 178.582C354.275 182.081 352.43 182.967 352.43 182.967C352.43 182.967 353.209 188.678 357.016 188.115C360.823 187.552 363.112 174.81 362.729 168.982C362.345 163.154 359.522 161.132 359.522 161.132C359.522 161.132 359.163 157.457 353.203 155.041C347.244 152.626 336.854 158.286 336.854 158.286Z" fill="#B55C58"/>
<path d="M355.743 158.854C355.743 158.854 352.236 153.709 358.483 151.845C364.73 149.982 370.09 158.305 367.501 162.717C364.912 167.129 357.256 165.49 355.743 158.854Z" fill="#B55C58"/>
<path d="M302.411 234.344L318.866 231.642L337.079 252.149C337.079 252.149 328.322 260.008 312.481 256.508L291.482 231.641L302.411 234.344Z" fill="white"/>
<path d="M338.753 242.469C338.753 242.469 355.493 244.561 360.84 245.957C366.187 247.352 369.907 252.234 369.907 253.862C369.907 255.49 366.431 258.906 360.032 258.302C353.632 257.698 333.104 247.352 333.104 247.352V241.423L338.753 242.469Z" fill="#F39F7D"/>
<path d="M337.077 242.159C337.077 242.159 327.475 237.005 325.732 236.424C323.988 235.843 316.897 237.122 315.851 237.935C314.805 238.749 317.595 239.33 320.966 238.633L320.85 239.218C320.85 239.218 314.224 239.679 314.689 240.783C315.154 241.887 316.956 241.422 316.956 241.422C316.956 241.422 314.864 242.352 315.619 242.875C316.375 243.398 319.223 242.875 319.223 242.875L321.606 243.107C321.606 243.107 317.886 244.037 317.363 245.2C316.84 246.362 318.525 246.13 319.397 245.781C320.269 245.432 320.676 245.258 320.676 245.258C320.676 245.258 326.024 247.234 329.162 247.757C332.301 248.28 335.094 248.335 335.094 248.335L337.077 242.159Z" fill="#F39F7D"/>
<path d="M296.659 237.774C296.659 237.774 294.736 238.888 296.455 240.669C298.174 242.45 302.068 241.09 301.858 240.7C301.213 239.503 298.178 239.574 298.178 239.574L296.659 237.774Z" fill="#E28869"/>
<path d="M299.116 240.598C299.116 240.598 297.193 241.712 298.912 243.493C300.631 245.274 304.525 243.914 304.315 243.524C303.67 242.327 300.635 242.398 300.635 242.398L299.116 240.598Z" fill="#E28869"/>
<path d="M300.651 242.307C300.651 242.307 298.728 243.421 300.447 245.202C302.166 246.983 306.06 245.622 305.85 245.233C305.205 244.036 302.171 244.107 302.171 244.107L300.651 242.307Z" fill="#E28869"/>
<path d="M302.845 244.818C302.845 244.818 301.248 245.743 302.676 247.222C304.104 248.701 307.338 247.571 307.164 247.247C306.629 246.253 304.108 246.312 304.108 246.312L302.845 244.818Z" fill="#E28869"/>
<path d="M387.916 310.842L379.666 373.226H383.791L394.916 316.95L418.166 319.592L423.166 381.342H427.626L426.416 319.842L445.416 309.195L452.426 367.724L455.416 368.357L457.166 366.654L451.723 294.217L387.916 310.842Z" fill="#B35555"/>
<path d="M403.666 306.842C403.666 306.842 419.416 310.049 425.416 309.196C431.416 308.343 451.916 296.842 452.416 292.842C452.916 288.842 434.416 288.342 434.416 288.342L403.666 306.842Z" fill="#334947"/>
<path d="M413.875 197.816C413.875 197.816 404.708 202.587 402.708 226.587C400.708 250.587 399.238 255.087 399.238 255.087L408.998 257.92L416.041 213.587L413.875 197.816Z" fill="#DE845F"/>
<path d="M387.908 363.819C387.508 355.771 386.631 341.404 385.077 330.75C382.8 315.143 378.885 306.143 378.885 306.143L393.376 295.339L375.968 286.185C375.968 286.185 367.163 291.938 363.533 297.312C360.535 301.751 376.165 348.27 381.696 364.328C381.696 364.328 372.325 378.741 368.907 382.252C365.489 385.763 369.016 386.092 375.305 384.992C381.594 383.892 385.035 376.492 386.739 375.892C388.443 375.292 388.297 378.418 388.297 378.418L391.261 378.168C391.261 378.168 393.626 372.859 389.846 366.265C389.209 365.153 388.555 364.367 387.908 363.819Z" fill="#E28869"/>
<path d="M414.459 381.424L411.538 382.004C411.538 382.004 411.329 378.884 409.709 379.674C408.089 380.464 405.498 388.204 399.378 390.004C393.248 391.804 389.709 391.874 392.709 388.004C394.179 386.114 396.779 381.434 399.049 377.164C399.089 377.084 399.128 377.004 399.168 376.924C401.468 372.594 403.388 368.754 403.388 368.754C396.078 353.424 375.298 308.964 377.778 304.214C380.778 298.464 388.878 291.754 388.878 291.754L405.978 306.024L394.028 311.254C394.028 311.254 398.939 319.754 402.959 335.004C405.709 345.414 408.198 359.594 409.508 367.544C409.968 367.854 410.438 368.264 410.918 368.794C411.178 369.074 411.449 369.394 411.709 369.754C416.209 375.875 414.459 381.424 414.459 381.424Z" fill="#F39F7D"/>
<path d="M437.209 195.553C437.209 195.553 443.885 198.732 446.381 200.244C448.876 201.756 441.795 247.089 441.795 247.089C441.795 247.089 444.764 260.922 444.737 263.422C444.709 265.922 434.876 270.089 426.876 270.755C418.876 271.422 408.999 265.422 408.999 265.422C408.999 265.422 411.376 240.589 409.876 235.755C408.376 230.921 405.543 223.588 406.043 217.588C406.543 211.588 413.876 197.817 413.876 197.817C413.876 197.817 432.709 193.684 437.209 195.553Z" fill="#BB5759"/>
<path d="M413.911 185.755C413.911 185.755 408.085 193.505 412.457 197.63C412.457 197.63 413.335 202.005 415.835 202.505C415.835 202.505 417.335 203.968 419.585 203.986C419.585 203.986 420.21 199.349 422.585 195.552C424.96 191.755 414.861 185.255 413.911 185.755Z" fill="#1E2144"/>
<path d="M408.998 168.365C408.998 168.365 409.062 181.14 411.308 185.957C413.554 190.774 418.212 193.559 421.856 192.665C421.856 192.665 420.717 197.931 423.509 199.523C426.301 201.115 432.652 193.588 432.652 193.588L431.979 186.494C431.979 186.494 435.566 171.005 434.885 165.731C434.204 160.457 412.028 154.797 408.998 168.365Z" fill="#F39F7D"/>
<path d="M412.455 162.63C412.455 162.63 414.208 172.505 427.208 172.38C427.208 172.38 425.875 177.838 427.625 179.005C427.625 179.005 428.958 175.755 431.042 175.505C433.125 175.255 433.125 180.505 431.792 182.922C430.459 185.339 428.542 184.787 428.542 184.787C428.542 184.787 429.625 199.505 424.542 203.005C424.542 203.005 427.375 206.422 430.959 204.505C430.959 204.505 433.792 206.672 437.542 204.422C441.292 202.172 439.542 198.839 441.709 197.422C443.876 196.005 445.959 192.755 443.876 188.005C441.793 183.255 439.793 178.255 439.793 178.255C439.793 178.255 441.126 169.922 438.043 163.172C434.96 156.422 428.043 155.505 424.376 155.505C420.709 155.505 413.702 158.171 412.455 162.63Z" fill="#1E2144"/>
<path d="M408.041 165.088C405.975 172.293 409.261 174.685 409.261 174.685C409.261 174.685 410.085 165.737 412.73 163.621C415.375 161.505 420.458 156.422 420.458 156.422C420.458 156.422 411.125 154.338 408.041 165.088Z" fill="#1E2144"/>
<path d="M444.554 261.525C444.554 261.525 451.318 277.983 446.381 289.025C441.443 300.067 404.872 306.688 404.872 306.688C404.872 306.688 392.209 293.678 368.959 291.52C368.959 291.52 382.209 280.255 393.459 275.755C404.709 271.255 408.572 270.807 408.572 270.807L409.193 263.276C409.193 263.276 419.149 271.296 444.554 261.525Z" fill="#4A7257"/>
<path d="M414.459 381.424L411.539 382.004C411.539 382.004 411.329 378.884 409.709 379.674C408.089 380.464 405.499 388.204 399.379 390.004C393.249 391.804 389.709 391.874 392.709 388.004C394.179 386.114 396.779 381.434 399.049 377.164C399.189 377.834 399.619 378.414 400.539 378.754C403.789 379.924 407.969 369.334 410.919 368.794C411.179 369.074 411.449 369.394 411.709 369.754C416.209 375.875 414.459 381.424 414.459 381.424Z" fill="#1D1700"/>
<path d="M391.322 378.178L388.355 378.427C388.355 378.427 388.496 375.303 386.798 375.906C385.1 376.509 381.658 383.91 375.375 385.012C369.082 386.113 365.556 385.786 368.971 382.277C370.644 380.564 373.752 376.205 376.487 372.216C376.551 372.897 376.913 373.522 377.789 373.963C380.887 375.49 386.229 365.436 389.22 365.23C389.447 365.537 389.679 365.886 389.897 366.273C393.684 372.859 391.322 378.178 391.322 378.178Z" fill="#1D1700"/>
<path d="M446.381 200.243C446.381 200.243 451.376 203.422 452.876 213.922C454.376 224.422 443.806 265.654 443.806 265.654L432.709 261.526L440.209 223.088C440.209 223.088 440.219 203.731 446.381 200.243Z" fill="#DE845F"/>
<path d="M404.042 253.755C404.042 253.755 408.378 253.568 408.999 257.922C409.62 262.276 400.684 279.741 400.684 279.741L394.959 277.755C394.959 277.755 397.769 256.755 399.239 255.088C400.709 253.421 404.042 253.755 404.042 253.755Z" fill="#E28869"/>
<path d="M401.781 276.629C401.781 276.629 403.583 278.226 403.833 279.74C404.083 281.254 405.1 282.042 404.458 283.004C403.816 283.966 403.208 281.566 402.208 281.066C401.208 280.566 399.708 282.391 399.458 283.229C399.208 284.066 398.395 288.334 397.52 288.513C396.645 288.692 396.707 286.942 396.707 286.942C396.707 286.942 396.082 287.255 394.957 285.942C393.832 284.629 393.757 283.844 393.268 283.274C392.779 282.704 393.268 281.317 393.268 281.317L395.395 276.629H401.781Z" fill="#E28869"/>
<path d="M432.959 260.754L402.709 277.879L404.334 282.629C404.334 282.629 440.152 272.551 443.806 265.652C443.806 265.652 442.459 259.629 432.959 260.754Z" fill="#F39F7D"/>
<path d="M405.267 276.479C405.128 276.479 395.408 277.921 393.455 278.293C391.502 278.665 387.642 283.339 387.596 284.583C387.549 285.827 392.339 281.316 392.339 281.316L392.479 281.781C392.479 281.781 388.48 286.059 388.945 287.408C389.41 288.757 390.387 286.943 390.387 286.943C390.387 286.943 389.596 288.71 390.526 288.896C391.456 289.082 393.13 286.292 393.13 286.292L394.897 285.408C394.897 285.408 393.316 287.332 393.362 288.905C393.408 290.478 394.571 289.547 394.943 288.478C395.315 287.408 396.152 286.664 396.152 286.664C396.152 286.664 403.157 285.352 406.002 282.311C408.848 279.269 405.267 276.479 405.267 276.479Z" fill="#F39F7D"/>
<path d="M476.02 311.868L467.77 374.252H471.895L483.02 317.976L506.27 320.618L511.27 382.368H515.73L514.52 320.868L533.52 310.221L540.53 368.75L543.52 369.383L545.27 367.68L539.827 295.243L476.02 311.868Z" fill="#B35555"/>
<path d="M491.77 307.868C491.77 307.868 507.52 311.075 513.52 310.222C519.52 309.369 540.02 297.868 540.52 293.868C541.02 289.868 522.52 289.368 522.52 289.368L491.77 307.868Z" fill="#334947"/>
<path d="M469.687 373.401L469.104 381.151H478.77L479.854 373.401H469.687Z" fill="#432D00"/>
<path d="M467.353 381.151C467.353 381.151 455.186 391.651 456.603 393.568C458.02 395.485 462.27 395.735 467.353 393.568C472.436 391.401 476.27 388.985 476.27 388.985C476.27 388.985 480.853 386.818 480.937 386.318C481.02 385.818 479.237 377.813 479.237 377.813L469.31 378.404L467.353 381.151Z" fill="#1D1700"/>
<path d="M453.937 366.427L453.354 374.177H463.02L464.104 366.427H453.937Z" fill="#432D00"/>
<path d="M451.603 374.177C451.603 374.177 439.436 384.677 440.853 386.594C442.27 388.511 446.52 388.761 451.603 386.594C456.686 384.427 460.52 382.011 460.52 382.011C460.52 382.011 465.103 379.844 465.187 379.344C465.27 378.844 463.487 370.839 463.487 370.839L453.56 371.43L451.603 374.177Z" fill="#1D1700"/>
<path d="M501.691 266.901C501.691 266.901 460.574 278.652 453.04 296.984C450.102 304.131 453.04 368.901 453.04 368.901H464.853L469.166 320.519L520.52 274.109L501.691 266.901Z" fill="#1E2247"/>
<path d="M535.519 262.734C535.519 262.734 537.852 281.567 532.519 289.234C527.186 296.901 488.465 315.234 488.465 315.234C488.465 315.234 484.561 363.234 480.707 374.567H467.852C467.852 374.567 469.248 315.4 469.519 307.567C469.79 299.734 512.352 274.067 512.352 274.067L535.519 262.734Z" fill="#44467F"/>
<path d="M477.519 211.568C477.519 211.568 470.852 255.235 466.602 264.235C462.352 273.235 458.602 286.235 458.602 286.235L465.852 289.235C465.852 289.235 480.659 269.985 482.756 258.735C484.852 247.485 488.465 233.735 488.465 233.735L477.519 211.568Z" fill="#91AF71"/>
<path d="M460.04 283.109C460.04 283.109 453.727 290.234 452.415 292.922C451.103 295.61 450.852 299.235 451.79 299.735C452.728 300.235 453.04 296.985 453.04 296.985L453.478 296.922C453.478 296.922 452.54 300.61 453.666 302.61C454.792 304.61 455.041 300.922 455.041 300.922C455.041 300.922 455.166 303.735 456.229 303.672C457.292 303.609 457.354 297.547 457.354 297.547C457.354 297.547 457.729 302.922 459.042 302.547C460.355 302.172 459.48 297.047 460.042 295.797C460.604 294.547 461.73 293.391 461.73 293.391C461.73 293.391 459.98 298.359 461.417 298.797C462.854 299.235 463.857 295.129 465.356 292.588C466.855 290.047 466.167 286.672 466.167 286.672C466.167 286.672 461.665 283.609 460.04 283.109Z" fill="#E28869"/>
<path d="M492.728 200.36C492.728 200.36 487.02 201.735 477.52 211.568C477.52 211.568 480.687 229.401 489.853 243.568C499.02 257.735 498.353 270.735 498.353 270.735C498.353 270.735 502.186 273.235 512.353 274.068C522.52 274.901 535.52 262.735 535.52 262.735C535.52 262.735 531.52 210.402 524.353 203.568C517.186 196.734 503.353 198.235 503.353 198.235L492.728 200.36Z" fill="#4A7257"/>
<path d="M473.603 180.609C473.603 180.609 477.228 192.859 480.728 196.859C484.228 200.859 489.478 202.234 492.728 200.359C492.728 200.359 493.103 205.734 496.228 206.484C499.353 207.234 503.353 198.234 503.353 198.234L500.728 191.609C500.728 191.609 499.853 175.734 497.728 170.859C495.603 165.984 472.728 166.734 473.603 180.609Z" fill="#F39F7D"/>
<path d="M493.979 166.109C493.979 166.109 491.604 161.359 483.104 161.484C474.604 161.609 470.104 170.109 468.854 175.984C467.604 181.859 462.479 182.984 462.479 182.984C462.479 182.984 464.229 186.109 467.729 185.484C467.729 185.484 470.354 188.859 476.604 186.734C482.854 184.609 486.604 177.859 490.104 177.484C490.104 177.484 489.678 183.562 494.979 184.609C494.979 184.609 493.916 179.734 496.167 178.671C498.418 177.608 499.271 183.775 499.271 185.65C499.271 187.525 497.417 188.483 497.417 188.483L500.64 190.185C500.64 190.185 504.792 174.671 502.167 169.983C499.542 165.295 493.979 166.109 493.979 166.109Z" fill="#1E2144"/>
<path d="M515.02 205.529C515.02 205.529 509.937 249.068 508.103 255.735C506.27 262.402 474.686 284.235 474.686 284.235L480.186 291.568C480.186 291.568 516.186 274.901 520.686 265.568C525.186 256.235 530.353 216.901 528.186 209.401C526.02 201.901 518.187 196.99 515.02 205.529Z" fill="#91AF71"/>
<path d="M475.552 283.672C475.552 283.672 470.132 285.439 467.585 286.899C465.039 288.359 462.726 292.859 462.226 295.234C461.726 297.609 463.976 295.859 464.601 294.234C465.226 292.609 465.664 292.109 465.664 292.109L466.289 292.359C466.289 292.359 463.851 297.609 464.476 299.109C465.101 300.609 466.289 298.046 466.289 298.046C466.289 298.046 465.789 300.109 466.914 300.109C468.039 300.109 469.664 296.046 469.664 296.046L470.602 294.983C470.602 294.983 469.414 298.546 469.789 299.733C470.164 300.92 471.539 299.921 471.852 297.67C472.165 295.419 475.04 294.795 476.29 294.045C477.54 293.295 480.707 291.322 480.707 291.322C480.707 291.322 478.615 285.422 475.552 283.672Z" fill="#F39F7D"/>
<path d="M502.138 195.17L496.936 206.529L503.353 210.401L506.018 198.1L502.138 195.17Z" fill="#91AF71"/>
<path d="M496.228 206.484L493.58 208.913L490.688 211.567V201.181L492.729 200.358C492.729 200.358 493.886 205.455 496.228 206.484Z" fill="#91AF71"/>
<path d="M551.182 320.297L542.932 382.681H547.057L558.182 326.406L581.432 329.047L586.432 390.797H590.892L589.682 329.297L608.682 318.651L615.692 377.18L618.682 377.813L620.432 376.11L614.989 303.673L551.182 320.297Z" fill="#B35555"/>
<path d="M566.932 316.297C566.932 316.297 582.682 319.504 588.682 318.651C594.682 317.798 615.182 306.297 615.682 302.297C616.182 298.297 597.682 297.797 597.682 297.797L566.932 316.297Z" fill="#334947"/>
<path d="M563.931 210.131C563.931 210.131 552.681 234.298 550.556 247.548C548.431 260.798 552.306 263.506 560.556 265.465C568.806 267.423 577.681 265.465 577.681 265.465L563.931 210.131Z" fill="white"/>
<path d="M580.033 201.402C580.033 201.402 575.668 203.117 563.931 210.13C563.931 210.13 560.83 226.294 565.982 242.362C571.134 258.43 567.098 270.805 567.098 270.805C567.098 270.805 570.146 274.219 579.743 277.676C589.34 281.133 605.064 272.781 605.064 272.781C605.064 272.781 614.86 221.217 609.725 212.75C604.59 204.283 590.845 202.121 590.845 202.121L580.033 201.402Z" fill="white"/>
<path d="M590.19 199.405L582.486 208.456L587.67 213.869L593.453 202.689L590.19 199.405Z" fill="#432D00"/>
<path d="M581.815 208.228L575.139 211.689L577.849 201.663L580.035 201.402C580.035 201.402 579.823 206.623 581.815 208.228Z" fill="#432D00"/>
<path d="M557.344 379.568L558.597 387.238L567.993 384.967L567.226 377.18L557.344 379.568Z" fill="#432D00"/>
<path d="M556.895 387.649C556.895 387.649 547.536 400.713 549.363 402.244C551.19 403.774 555.38 403.019 559.812 399.719C564.244 396.419 567.402 393.169 567.402 393.169C567.402 393.169 571.348 389.986 571.312 389.481C571.276 388.976 567.661 381.614 567.661 381.614L558.151 384.52L556.895 387.649Z" fill="#1D1700"/>
<path d="M524.308 374.931L523.725 382.681H533.392L534.475 374.931H524.308Z" fill="#432D00"/>
<path d="M521.974 382.681C521.974 382.681 509.807 393.181 511.224 395.098C512.641 397.015 516.891 397.265 521.974 395.098C527.057 392.931 530.891 390.515 530.891 390.515C530.891 390.515 535.474 388.348 535.558 387.848C535.641 387.348 533.858 379.343 533.858 379.343L523.931 379.934L521.974 382.681Z" fill="#1D1700"/>
<path d="M572.062 275.406C572.062 275.406 530.945 287.157 523.411 305.489C520.474 312.636 523.411 377.406 523.411 377.406H535.224L539.537 329.024L590.891 282.614L572.062 275.406Z" fill="#1E2247"/>
<path d="M566.629 176.854C566.629 176.854 566.776 189.628 569.053 194.431C571.33 199.234 576.006 201.988 579.644 201.07C579.644 201.07 578.539 206.344 581.341 207.917C584.143 209.491 589.135 203.653 589.931 201.047C590.452 199.343 589.726 194.833 589.726 194.833C589.726 194.833 593.213 179.321 592.497 174.051C591.783 168.781 569.57 163.266 566.629 176.854Z" fill="#F39F7D"/>
<path d="M605.558 209.099L594.306 255.923L564.993 249.61L561.014 258.298C561.014 258.298 588.681 276.173 602.056 269.909C612.351 265.087 616.181 231.548 613.431 218.548C611.868 211.16 606.028 207.204 605.558 209.099Z" fill="white"/>
<path d="M564.994 249.61C564.994 249.61 558.329 245.141 556.795 245.051C555.261 244.961 555.261 246.495 555.261 246.495C555.261 246.495 553.185 246.495 553.591 248.526C553.591 248.526 552.372 249.744 553.095 251.143C553.095 251.143 551.961 252.361 552.866 253.58C553.772 254.798 553.772 254.798 553.772 254.798L555.035 253.489C555.035 253.489 557.517 256.242 561.849 256.422L564.994 249.61Z" fill="#FFC7A5"/>
<path d="M605.89 271.239C605.89 271.239 580.431 277.649 567.098 270.806L565.764 278.516C565.764 278.516 570.783 282.715 572.857 288.756C560.266 296.863 540.076 310.685 539.89 316.072C539.619 323.905 555.18 381.905 555.18 381.905L569.68 377.275L558.836 323.738C558.836 323.738 597.557 305.405 602.89 297.738C608.223 290.073 605.89 271.239 605.89 271.239Z" fill="#44467F"/>
<path d="M586.029 187.25C586.029 187.25 584.862 185.5 584.946 181.833C585.029 178.166 585.486 176.75 585.486 176.75C585.486 176.75 582.78 178.5 580.196 176.75C577.613 175 577.363 178.667 574.196 177.917C571.029 177.167 571.196 174.876 568.113 176.271C565.03 177.667 561.863 177.167 560.03 174.583C558.197 172 558.863 167.25 562.447 165.666C566.03 164.083 568.53 166.333 570.114 163.749C571.697 161.166 577.864 160.582 580.697 162.749C583.53 164.916 585.163 162.499 587.972 163.749C590.781 164.999 593.302 167.099 592.597 169.916C592.597 169.916 594.948 170.333 595.281 175.083C595.614 179.833 589.793 195.26 589.793 195.26L588.448 190.333C588.448 190.333 591.281 186.75 590.698 182.833C590.113 178.917 587.196 179.083 586.029 187.25Z" fill="#B55C58"/>
<path d="M604.399 211.689C604.399 211.689 597.537 228.419 598.532 242.084" stroke="#D0D1D3" stroke-miterlimit="10" stroke-linecap="round"/>
<path d="M564.992 249.61L594.305 255.922L596.055 253.047" stroke="#D0D1D3" stroke-miterlimit="10" stroke-linecap="round"/>
<path d="M563.007 247.375C563.007 247.375 562.854 220.629 566.629 211.689" stroke="#D0D1D3" stroke-miterlimit="10" stroke-linecap="round"/>
<path d="M561.43 258.559C561.43 258.559 594.547 280.169 605.997 266.334" stroke="#D0D1D3" stroke-miterlimit="10" stroke-linecap="round"/>
<path d="M587.109 254.373C587.109 254.373 588.513 249.548 590.597 246.589C592.68 243.631 595.055 242.006 597.305 242.006C599.555 242.006 603.097 242.923 604.263 244.589C605.43 246.256 598.638 245.047 598.638 245.047C598.638 245.047 603.388 246.755 604.138 248.464C604.888 250.172 597.93 248.089 597.93 248.089C597.93 248.089 600.847 249.297 601.847 251.089C602.847 252.881 596.847 250.881 596.847 250.881C596.847 250.881 599.93 252.298 600.264 253.589C600.597 254.881 596.056 253.047 596.056 253.047C596.056 253.047 595.264 255.589 594.306 255.922L587.109 254.373Z" fill="#FFC7A5"/>
</svg>
