<svg width="112" height="113" viewBox="0 0 112 113" fill="none" xmlns="http://www.w3.org/2000/svg">
<circle cx="56" cy="56" r="56" fill="#2980BC"/>
<path d="M51.5 111.5L29 89L54 71.5L36.5 54L37.5 53L65.5 28L109.5 72C109.5 72 107.5 77 106 80C100.866 90.2686 95.1642 96.0129 87 102C72 113 51.5 111.5 51.5 111.5Z" fill="#003B96" stroke="#003B96"/>
<path d="M47.5 70.5C50.3 69.3 50 66 49.5 64.5L56 63.5V88.5H29.5C30 86 31.2 80.3 32 77.5C32.8 74.7 36 73.3333 37.5 73C39.6667 72.6667 44.7 71.7 47.5 70.5Z" fill="#E9F2ED" stroke="#ECF0F1"/>
<path d="M65.5 70.5C62.7 69.3 63 66 63.5 64.5L57 63.5V88.5H83.5C83 86 81.8 80.3 81 77.5C80.2 74.7 77 73.3333 75.5 73C73.3333 72.6667 68.3 71.7 65.5 70.5Z" fill="#E9F2ED" stroke="#ECF0F1"/>
<path d="M56 24C44 24 39.6999 34.504 39.5 39.5C39 52 45.5 60.5 47 62C48 63 54 68.4 62 64C72 58.5 72 42.5 72 39.5C72 36.5 71 24 56 24Z" fill="#E9F2ED"/>
<path d="M56.2432 27C45.1756 27 40.1843 36.8278 40 41.5C39.5388 53.1899 46.559 61.1344 47.9425 62.5371C48.8648 63.4723 54.3986 68.5224 61.777 64.4075C71 59.264 72 44.3056 72 41.5C72 38.6944 70.0777 27 56.2432 27Z" stroke="#003B96"/>
<path d="M78 48C78 42.4 73.3333 41 71 41V55.5C73.3333 55.3333 78 53.6 78 48Z" fill="#E9F2ED" stroke="#003B96"/>
<path d="M34 48C34 42.4 38.6667 41 41 41V55.5C38.6667 55.3333 34 53.6 34 48Z" fill="#E9F2ED" stroke="#ECF0F1"/>
<circle cx="56" cy="66" r="3.5" fill="#EDF0F1" stroke="#003B96"/>
<path d="M40 54C40 56.8333 44.5 64.5 53.5 66" stroke="#ECF0F1"/>
<path d="M56 84C52 80.8 48.5 75 47.5 72C46.3 78.4 52.3333 84.6667 55.5 87.5L56 84Z" fill="#003C96" stroke="#003C96"/>
<path d="M41.5 56V40.5V39.5L40 40L41 39.5" stroke="#003B96"/>
<path d="M71 55V41.6232V40.5L72 41V39.5" stroke="#003B96"/>
<path d="M56.5 84C60.5 80.8 64 75 65 72C66.2 78.4 60.1667 84.6667 57 87.5L56.5 84Z" fill="#003C96" stroke="#003C96"/>
</svg>
